G75*
%MOIN*%
%OFA0B0*%
%FSLAX25Y25*%
%IPPOS*%
%LPD*%
%AMOC8*
5,1,8,0,0,1.08239X$1,22.5*
%
%ADD10C,0.12998*%
%ADD11C,0.07450*%
%ADD12C,0.11400*%
%ADD13C,0.07800*%
%ADD14C,0.13200*%
%ADD15C,0.07400*%
%ADD16R,0.07400X0.07400*%
%ADD17R,0.06400X0.06400*%
%ADD18OC8,0.06400*%
%ADD19C,0.07000*%
D10*
X0061648Y0062772D03*
X0061648Y0220252D03*
X0356924Y0220252D03*
X0356924Y0062772D03*
D11*
X0362336Y0095646D02*
X0369386Y0095646D01*
X0369386Y0115331D02*
X0362336Y0115331D01*
X0362336Y0168283D02*
X0369386Y0168283D01*
X0369386Y0187969D02*
X0362336Y0187969D01*
X0157416Y0221924D02*
X0157416Y0228974D01*
X0137731Y0228974D02*
X0137731Y0221924D01*
X0118046Y0221924D02*
X0118046Y0228974D01*
X0098361Y0228974D02*
X0098361Y0221924D01*
D12*
X0209286Y0230094D03*
X0209286Y0052929D03*
D13*
X0068400Y0104780D03*
X0058400Y0109780D03*
X0068400Y0114780D03*
X0058400Y0119780D03*
X0068400Y0124780D03*
X0058400Y0099780D03*
X0058400Y0158047D03*
X0068400Y0163047D03*
X0058400Y0168047D03*
X0068400Y0173047D03*
X0058400Y0178047D03*
X0068400Y0183047D03*
D14*
X0033400Y0190547D03*
X0033400Y0150547D03*
X0033400Y0132280D03*
X0033400Y0092280D03*
D15*
X0164424Y0120921D03*
X0174424Y0120921D03*
X0184424Y0120921D03*
X0194424Y0120921D03*
X0204424Y0120921D03*
X0214424Y0120921D03*
X0224424Y0120921D03*
X0234424Y0120921D03*
X0244424Y0120921D03*
X0254424Y0120921D03*
X0264424Y0120921D03*
X0274424Y0120921D03*
X0294424Y0120921D03*
X0294424Y0190921D03*
X0284424Y0190921D03*
X0274424Y0190921D03*
X0264424Y0190921D03*
X0254424Y0190921D03*
X0244424Y0190921D03*
X0234424Y0190921D03*
X0224424Y0190921D03*
X0214424Y0190921D03*
X0204424Y0190921D03*
X0194424Y0190921D03*
X0184424Y0190921D03*
X0174424Y0190921D03*
X0164424Y0190921D03*
D16*
X0284424Y0120921D03*
D17*
X0246933Y0214740D03*
X0326017Y0231576D03*
X0104527Y0081364D03*
D18*
X0114527Y0081364D03*
X0124527Y0081364D03*
X0134527Y0081364D03*
X0144527Y0081364D03*
X0154527Y0081364D03*
X0164527Y0081364D03*
X0256933Y0214740D03*
X0266933Y0214740D03*
X0276933Y0214740D03*
X0286933Y0214740D03*
X0296933Y0214740D03*
X0316017Y0231576D03*
D19*
X0332995Y0220336D02*
X0332995Y0213736D01*
X0332995Y0170336D02*
X0332995Y0163736D01*
M02*
