%
M48
M72
T01C0.01969
T02C0.02362
T03C0.03937
T04C0.04000
T05C0.04400
T06C0.04700
T07C0.11000
T08C0.12598
T09C0.12800
%
T01
X203685Y111994
X164935Y141994
X180560Y146994
X189935Y155119
X197435Y165119
X205560Y170432
X213373Y162619
X206185Y157619
X241498Y166057
X249037Y166877
X254310Y180119
X276810Y146994
X269310Y129494
X314310Y120744
X318060Y114494
X330560Y114494
X320408Y101945
X306727Y102142
X293144Y66118
X282435Y65119
X264310Y58869
X256810Y65119
X273685Y46369
X333302Y66118
X162435Y173244
X137435Y156994
X81136Y146408
X140560Y201994
X313060Y185119
T02
X322435Y192619
X304310Y197619
X290560Y170744
X301810Y149494
X290560Y133869
X320560Y133869
X248656Y110606
X235861Y110178
X206102Y85626
X186353Y89922
X161707Y107786
X156810Y131994
X108105Y161098
X93735Y198106
X34310Y210744
X29935Y221994
X153060Y201994
X218031Y179209
X227888Y170154
X244251Y159622
X230447Y156276
X221983Y138362
X266810Y81994
X239611Y67014
X90487Y107688
T03
X164424Y120921
X174424Y120921
X184424Y120921
X194424Y120921
X204424Y120921
X214424Y120921
X224424Y120921
X234424Y120921
X244424Y120921
X254424Y120921
X264424Y120921
X274424Y120921
X284424Y120921
X294424Y120921
X294424Y190921
X284424Y190921
X274424Y190921
X264424Y190921
X254424Y190921
X244424Y190921
X234424Y190921
X224424Y190921
X214424Y190921
X204424Y190921
X194424Y190921
X184424Y190921
X174424Y190921
X164424Y190921
T04
X246933Y214740
X256933Y214740
X266933Y214740
X276933Y214740
X286933Y214740
X296933Y214740
X316017Y231576
X326017Y231576
X164527Y81364
X154527Y81364
X144527Y81364
X134527Y81364
X124527Y81364
X114527Y81364
X104527Y81364
X68400Y104780
X58400Y109780
X68400Y114780
X58400Y119780
X68400Y124780
X58400Y99780
X58400Y158047
X68400Y163047
X58400Y168047
X68400Y173047
X58400Y178047
X68400Y183047
T05
X332995Y167036
X332995Y217036
T06
X365861Y187969
X365861Y168283
X365861Y115331
X365861Y95646
X157416Y225449
X137731Y225449
X118046Y225449
X98361Y225449
T07
X209286Y230094
X209286Y52929
T08
X61648Y62772
X61648Y220252
X356924Y220252
X356924Y62772
T09
X33400Y92280
X33400Y132280
X33400Y150547
X33400Y190547
M30
