G75*
%MOIN*%
%OFA0B0*%
%FSLAX25Y25*%
%IPPOS*%
%LPD*%
%AMOC8*
5,1,8,0,0,1.08239X$1,22.5*
%
%ADD10C,0.00000*%
D10*
X0036370Y0033244D02*
X0279168Y0033244D01*
X0279418Y0033247D01*
X0279667Y0033256D01*
X0279917Y0033271D01*
X0280165Y0033292D01*
X0280414Y0033319D01*
X0280661Y0033352D01*
X0280908Y0033392D01*
X0281154Y0033437D01*
X0281398Y0033487D01*
X0281641Y0033544D01*
X0281883Y0033607D01*
X0282123Y0033676D01*
X0282362Y0033750D01*
X0282598Y0033830D01*
X0282833Y0033916D01*
X0283065Y0034007D01*
X0283295Y0034104D01*
X0283523Y0034206D01*
X0283748Y0034314D01*
X0283971Y0034428D01*
X0284191Y0034547D01*
X0284407Y0034671D01*
X0284621Y0034800D01*
X0284832Y0034934D01*
X0285039Y0035073D01*
X0285243Y0035218D01*
X0285443Y0035367D01*
X0285640Y0035521D01*
X0285832Y0035680D01*
X0286021Y0035843D01*
X0286206Y0036011D01*
X0286387Y0036183D01*
X0286564Y0036360D01*
X0286736Y0036541D01*
X0286904Y0036726D01*
X0287067Y0036915D01*
X0287226Y0037107D01*
X0287380Y0037304D01*
X0287529Y0037504D01*
X0287674Y0037708D01*
X0287813Y0037915D01*
X0287947Y0038126D01*
X0288076Y0038340D01*
X0288200Y0038556D01*
X0288319Y0038776D01*
X0288433Y0038999D01*
X0288541Y0039224D01*
X0288643Y0039452D01*
X0288740Y0039682D01*
X0288831Y0039914D01*
X0288917Y0040149D01*
X0288997Y0040385D01*
X0289071Y0040624D01*
X0289140Y0040864D01*
X0289203Y0041106D01*
X0289260Y0041349D01*
X0289310Y0041593D01*
X0289355Y0041839D01*
X0289395Y0042086D01*
X0289428Y0042333D01*
X0289455Y0042582D01*
X0289476Y0042830D01*
X0289491Y0043080D01*
X0289500Y0043329D01*
X0289503Y0043579D01*
X0289502Y0043579D02*
X0289502Y0054932D01*
X0289501Y0055066D01*
X0289504Y0055199D01*
X0289511Y0055333D01*
X0289522Y0055466D01*
X0289537Y0055599D01*
X0289555Y0055731D01*
X0289578Y0055863D01*
X0289604Y0055994D01*
X0289634Y0056124D01*
X0289667Y0056254D01*
X0289705Y0056382D01*
X0289746Y0056509D01*
X0289791Y0056635D01*
X0289840Y0056759D01*
X0289892Y0056883D01*
X0289948Y0057004D01*
X0290007Y0057124D01*
X0290069Y0057242D01*
X0290136Y0057358D01*
X0290205Y0057472D01*
X0290278Y0057584D01*
X0290354Y0057694D01*
X0290433Y0057802D01*
X0290515Y0057907D01*
X0290600Y0058010D01*
X0290689Y0058111D01*
X0290780Y0058209D01*
X0290874Y0058304D01*
X0290970Y0058396D01*
X0291070Y0058486D01*
X0291171Y0058572D01*
X0291276Y0058656D01*
X0291382Y0058736D01*
X0291491Y0058813D01*
X0291603Y0058888D01*
X0291716Y0058959D01*
X0291831Y0059026D01*
X0291948Y0059090D01*
X0292068Y0059151D01*
X0292188Y0059208D01*
X0292311Y0059262D01*
X0292435Y0059312D01*
X0292560Y0059359D01*
X0292686Y0059401D01*
X0292814Y0059441D01*
X0292943Y0059476D01*
X0293073Y0059508D01*
X0293204Y0059536D01*
X0293335Y0059560D01*
X0293467Y0059580D01*
X0293600Y0059596D01*
X0293733Y0059609D01*
X0293866Y0059617D01*
X0294000Y0059622D01*
X0331623Y0059622D01*
X0331623Y0059623D02*
X0331753Y0059619D01*
X0331883Y0059611D01*
X0332012Y0059599D01*
X0332141Y0059583D01*
X0332269Y0059564D01*
X0332397Y0059541D01*
X0332524Y0059513D01*
X0332651Y0059482D01*
X0332776Y0059447D01*
X0332900Y0059409D01*
X0333023Y0059366D01*
X0333144Y0059320D01*
X0333264Y0059271D01*
X0333383Y0059217D01*
X0333500Y0059160D01*
X0333615Y0059100D01*
X0333728Y0059036D01*
X0333839Y0058969D01*
X0333948Y0058899D01*
X0334055Y0058825D01*
X0334160Y0058748D01*
X0334262Y0058668D01*
X0334362Y0058584D01*
X0334459Y0058498D01*
X0334554Y0058409D01*
X0334646Y0058317D01*
X0334735Y0058223D01*
X0334821Y0058126D01*
X0334904Y0058026D01*
X0334985Y0057923D01*
X0335062Y0057819D01*
X0335135Y0057712D01*
X0335206Y0057603D01*
X0335273Y0057492D01*
X0335337Y0057378D01*
X0335398Y0057263D01*
X0335454Y0057147D01*
X0335508Y0057028D01*
X0335558Y0056908D01*
X0335604Y0056787D01*
X0335646Y0056664D01*
X0335685Y0056540D01*
X0335720Y0056414D01*
X0335751Y0056288D01*
X0335778Y0056161D01*
X0335802Y0056033D01*
X0335821Y0055905D01*
X0335837Y0055776D01*
X0335849Y0055647D01*
X0335857Y0055517D01*
X0335860Y0055387D01*
X0335861Y0055257D01*
X0335861Y0043579D01*
X0335860Y0043579D02*
X0335863Y0043329D01*
X0335872Y0043080D01*
X0335887Y0042830D01*
X0335908Y0042582D01*
X0335935Y0042333D01*
X0335968Y0042086D01*
X0336008Y0041839D01*
X0336053Y0041593D01*
X0336103Y0041349D01*
X0336160Y0041106D01*
X0336223Y0040864D01*
X0336292Y0040624D01*
X0336366Y0040385D01*
X0336446Y0040149D01*
X0336532Y0039914D01*
X0336623Y0039682D01*
X0336720Y0039452D01*
X0336822Y0039224D01*
X0336930Y0038999D01*
X0337044Y0038776D01*
X0337163Y0038556D01*
X0337287Y0038340D01*
X0337416Y0038126D01*
X0337550Y0037915D01*
X0337689Y0037708D01*
X0337834Y0037504D01*
X0337983Y0037304D01*
X0338137Y0037107D01*
X0338296Y0036915D01*
X0338459Y0036726D01*
X0338627Y0036541D01*
X0338799Y0036360D01*
X0338976Y0036183D01*
X0339157Y0036011D01*
X0339342Y0035843D01*
X0339531Y0035680D01*
X0339723Y0035521D01*
X0339920Y0035367D01*
X0340120Y0035218D01*
X0340324Y0035073D01*
X0340531Y0034934D01*
X0340742Y0034800D01*
X0340956Y0034671D01*
X0341172Y0034547D01*
X0341392Y0034428D01*
X0341615Y0034314D01*
X0341840Y0034206D01*
X0342068Y0034104D01*
X0342298Y0034007D01*
X0342530Y0033916D01*
X0342765Y0033830D01*
X0343001Y0033750D01*
X0343240Y0033676D01*
X0343480Y0033607D01*
X0343722Y0033544D01*
X0343965Y0033487D01*
X0344209Y0033437D01*
X0344455Y0033392D01*
X0344702Y0033352D01*
X0344949Y0033319D01*
X0345198Y0033292D01*
X0345446Y0033271D01*
X0345696Y0033256D01*
X0345945Y0033247D01*
X0346195Y0033244D01*
X0382251Y0033244D01*
X0382828Y0033252D01*
X0383406Y0033273D01*
X0383982Y0033309D01*
X0384558Y0033358D01*
X0385132Y0033421D01*
X0385705Y0033498D01*
X0386276Y0033589D01*
X0386844Y0033694D01*
X0387409Y0033813D01*
X0387972Y0033945D01*
X0388531Y0034090D01*
X0389087Y0034249D01*
X0389638Y0034422D01*
X0390185Y0034608D01*
X0390728Y0034806D01*
X0391265Y0035018D01*
X0391797Y0035243D01*
X0392324Y0035481D01*
X0392845Y0035731D01*
X0393359Y0035994D01*
X0393867Y0036269D01*
X0394369Y0036557D01*
X0394863Y0036856D01*
X0395350Y0037167D01*
X0395829Y0037490D01*
X0396300Y0037825D01*
X0396763Y0038171D01*
X0397217Y0038527D01*
X0397663Y0038895D01*
X0398100Y0039273D01*
X0398527Y0039662D01*
X0398945Y0040061D01*
X0399353Y0040470D01*
X0399751Y0040889D01*
X0400139Y0041317D01*
X0400517Y0041755D01*
X0400883Y0042201D01*
X0401239Y0042656D01*
X0401584Y0043120D01*
X0401918Y0043592D01*
X0402239Y0044072D01*
X0402550Y0044559D01*
X0402848Y0045054D01*
X0403135Y0045556D01*
X0403409Y0046064D01*
X0403670Y0046579D01*
X0403920Y0047101D01*
X0404156Y0047628D01*
X0404380Y0048160D01*
X0404591Y0048698D01*
X0404789Y0049241D01*
X0404973Y0049789D01*
X0405145Y0050341D01*
X0405303Y0050896D01*
X0405447Y0051456D01*
X0405578Y0052019D01*
X0405695Y0052584D01*
X0405799Y0053153D01*
X0405889Y0053724D01*
X0405965Y0054296D01*
X0406027Y0054871D01*
X0406075Y0055447D01*
X0406109Y0056023D01*
X0406130Y0056601D01*
X0406136Y0057179D01*
X0406185Y0080744D01*
X0406185Y0081994D01*
X0406183Y0082114D01*
X0406177Y0082234D01*
X0406168Y0082354D01*
X0406154Y0082474D01*
X0406137Y0082592D01*
X0406116Y0082711D01*
X0406091Y0082828D01*
X0406062Y0082945D01*
X0406030Y0083061D01*
X0405994Y0083176D01*
X0405954Y0083289D01*
X0405911Y0083401D01*
X0405864Y0083512D01*
X0405814Y0083621D01*
X0405760Y0083729D01*
X0405702Y0083834D01*
X0405642Y0083938D01*
X0405578Y0084040D01*
X0405511Y0084139D01*
X0405440Y0084237D01*
X0405367Y0084332D01*
X0405290Y0084425D01*
X0405211Y0084515D01*
X0405129Y0084603D01*
X0405044Y0084688D01*
X0404956Y0084770D01*
X0404866Y0084849D01*
X0404773Y0084926D01*
X0404678Y0084999D01*
X0404580Y0085070D01*
X0404481Y0085137D01*
X0404379Y0085201D01*
X0404275Y0085261D01*
X0404170Y0085319D01*
X0404062Y0085373D01*
X0403953Y0085423D01*
X0403842Y0085470D01*
X0403730Y0085513D01*
X0403617Y0085553D01*
X0403502Y0085589D01*
X0403386Y0085621D01*
X0403269Y0085650D01*
X0403152Y0085675D01*
X0403033Y0085696D01*
X0402915Y0085713D01*
X0402795Y0085727D01*
X0402675Y0085736D01*
X0402555Y0085742D01*
X0402435Y0085744D01*
X0402305Y0085746D01*
X0402176Y0085752D01*
X0402047Y0085761D01*
X0401918Y0085775D01*
X0401789Y0085792D01*
X0401661Y0085813D01*
X0401534Y0085838D01*
X0401407Y0085866D01*
X0401282Y0085899D01*
X0401157Y0085935D01*
X0401034Y0085974D01*
X0400912Y0086018D01*
X0400791Y0086065D01*
X0400671Y0086115D01*
X0400553Y0086169D01*
X0400437Y0086227D01*
X0400323Y0086288D01*
X0400210Y0086352D01*
X0400100Y0086420D01*
X0399991Y0086490D01*
X0399884Y0086564D01*
X0399780Y0086642D01*
X0399678Y0086722D01*
X0399579Y0086805D01*
X0399482Y0086891D01*
X0399388Y0086980D01*
X0399296Y0087072D01*
X0399207Y0087166D01*
X0399121Y0087263D01*
X0399038Y0087362D01*
X0398958Y0087464D01*
X0398880Y0087568D01*
X0398806Y0087675D01*
X0398736Y0087784D01*
X0398668Y0087894D01*
X0398604Y0088007D01*
X0398543Y0088121D01*
X0398485Y0088237D01*
X0398431Y0088355D01*
X0398381Y0088475D01*
X0398334Y0088596D01*
X0398290Y0088718D01*
X0398251Y0088841D01*
X0398215Y0088966D01*
X0398182Y0089091D01*
X0398154Y0089218D01*
X0398129Y0089345D01*
X0398108Y0089473D01*
X0398091Y0089602D01*
X0398077Y0089731D01*
X0398068Y0089860D01*
X0398062Y0089989D01*
X0398060Y0090119D01*
X0398060Y0121994D01*
X0398062Y0122114D01*
X0398068Y0122234D01*
X0398077Y0122354D01*
X0398091Y0122474D01*
X0398108Y0122592D01*
X0398129Y0122711D01*
X0398154Y0122828D01*
X0398183Y0122945D01*
X0398215Y0123061D01*
X0398251Y0123176D01*
X0398291Y0123289D01*
X0398334Y0123401D01*
X0398381Y0123512D01*
X0398431Y0123621D01*
X0398485Y0123729D01*
X0398543Y0123834D01*
X0398603Y0123938D01*
X0398667Y0124040D01*
X0398734Y0124139D01*
X0398805Y0124237D01*
X0398878Y0124332D01*
X0398955Y0124425D01*
X0399034Y0124515D01*
X0399116Y0124603D01*
X0399201Y0124688D01*
X0399289Y0124770D01*
X0399379Y0124849D01*
X0399472Y0124926D01*
X0399567Y0124999D01*
X0399665Y0125070D01*
X0399764Y0125137D01*
X0399866Y0125201D01*
X0399970Y0125261D01*
X0400075Y0125319D01*
X0400183Y0125373D01*
X0400292Y0125423D01*
X0400403Y0125470D01*
X0400515Y0125513D01*
X0400628Y0125553D01*
X0400743Y0125589D01*
X0400859Y0125621D01*
X0400976Y0125650D01*
X0401093Y0125675D01*
X0401212Y0125696D01*
X0401330Y0125713D01*
X0401450Y0125727D01*
X0401570Y0125736D01*
X0401690Y0125742D01*
X0401810Y0125744D01*
X0401940Y0125746D01*
X0402069Y0125752D01*
X0402198Y0125761D01*
X0402327Y0125775D01*
X0402456Y0125792D01*
X0402584Y0125813D01*
X0402711Y0125838D01*
X0402838Y0125866D01*
X0402963Y0125899D01*
X0403088Y0125935D01*
X0403211Y0125974D01*
X0403333Y0126018D01*
X0403454Y0126065D01*
X0403574Y0126115D01*
X0403692Y0126169D01*
X0403808Y0126227D01*
X0403922Y0126288D01*
X0404035Y0126352D01*
X0404145Y0126420D01*
X0404254Y0126490D01*
X0404361Y0126564D01*
X0404465Y0126642D01*
X0404567Y0126722D01*
X0404666Y0126805D01*
X0404763Y0126891D01*
X0404857Y0126980D01*
X0404949Y0127072D01*
X0405038Y0127166D01*
X0405124Y0127263D01*
X0405207Y0127362D01*
X0405287Y0127464D01*
X0405365Y0127568D01*
X0405439Y0127675D01*
X0405509Y0127784D01*
X0405577Y0127894D01*
X0405641Y0128007D01*
X0405702Y0128121D01*
X0405760Y0128237D01*
X0405814Y0128355D01*
X0405864Y0128475D01*
X0405911Y0128596D01*
X0405955Y0128718D01*
X0405994Y0128841D01*
X0406030Y0128966D01*
X0406063Y0129091D01*
X0406091Y0129218D01*
X0406116Y0129345D01*
X0406137Y0129473D01*
X0406154Y0129602D01*
X0406168Y0129731D01*
X0406177Y0129860D01*
X0406183Y0129989D01*
X0406185Y0130119D01*
X0406185Y0154494D01*
X0406183Y0154614D01*
X0406177Y0154734D01*
X0406168Y0154854D01*
X0406154Y0154974D01*
X0406137Y0155092D01*
X0406116Y0155211D01*
X0406091Y0155328D01*
X0406062Y0155445D01*
X0406030Y0155561D01*
X0405994Y0155676D01*
X0405954Y0155789D01*
X0405911Y0155901D01*
X0405864Y0156012D01*
X0405814Y0156121D01*
X0405760Y0156229D01*
X0405702Y0156334D01*
X0405642Y0156438D01*
X0405578Y0156540D01*
X0405511Y0156639D01*
X0405440Y0156737D01*
X0405367Y0156832D01*
X0405290Y0156925D01*
X0405211Y0157015D01*
X0405129Y0157103D01*
X0405044Y0157188D01*
X0404956Y0157270D01*
X0404866Y0157349D01*
X0404773Y0157426D01*
X0404678Y0157499D01*
X0404580Y0157570D01*
X0404481Y0157637D01*
X0404379Y0157701D01*
X0404275Y0157761D01*
X0404170Y0157819D01*
X0404062Y0157873D01*
X0403953Y0157923D01*
X0403842Y0157970D01*
X0403730Y0158013D01*
X0403617Y0158053D01*
X0403502Y0158089D01*
X0403386Y0158121D01*
X0403269Y0158150D01*
X0403152Y0158175D01*
X0403033Y0158196D01*
X0402915Y0158213D01*
X0402795Y0158227D01*
X0402675Y0158236D01*
X0402555Y0158242D01*
X0402435Y0158244D01*
X0401185Y0158244D01*
X0401073Y0158246D01*
X0400962Y0158252D01*
X0400851Y0158262D01*
X0400740Y0158276D01*
X0400630Y0158294D01*
X0400521Y0158315D01*
X0400412Y0158341D01*
X0400305Y0158371D01*
X0400198Y0158404D01*
X0400093Y0158441D01*
X0399989Y0158482D01*
X0399887Y0158526D01*
X0399786Y0158575D01*
X0399687Y0158626D01*
X0399590Y0158681D01*
X0399495Y0158740D01*
X0399403Y0158802D01*
X0399312Y0158867D01*
X0399224Y0158936D01*
X0399139Y0159007D01*
X0399056Y0159082D01*
X0398975Y0159159D01*
X0398898Y0159240D01*
X0398823Y0159323D01*
X0398752Y0159408D01*
X0398683Y0159496D01*
X0398618Y0159587D01*
X0398556Y0159679D01*
X0398497Y0159774D01*
X0398442Y0159871D01*
X0398391Y0159970D01*
X0398342Y0160071D01*
X0398298Y0160173D01*
X0398257Y0160277D01*
X0398220Y0160382D01*
X0398187Y0160489D01*
X0398157Y0160596D01*
X0398131Y0160705D01*
X0398110Y0160814D01*
X0398092Y0160924D01*
X0398078Y0161035D01*
X0398068Y0161146D01*
X0398062Y0161257D01*
X0398060Y0161369D01*
X0398060Y0195119D01*
X0398062Y0195231D01*
X0398068Y0195342D01*
X0398078Y0195453D01*
X0398092Y0195564D01*
X0398110Y0195674D01*
X0398131Y0195783D01*
X0398157Y0195892D01*
X0398187Y0195999D01*
X0398220Y0196106D01*
X0398257Y0196211D01*
X0398298Y0196315D01*
X0398342Y0196417D01*
X0398391Y0196518D01*
X0398442Y0196617D01*
X0398497Y0196714D01*
X0398556Y0196809D01*
X0398618Y0196901D01*
X0398683Y0196992D01*
X0398752Y0197080D01*
X0398823Y0197165D01*
X0398898Y0197248D01*
X0398975Y0197329D01*
X0399056Y0197406D01*
X0399139Y0197481D01*
X0399224Y0197552D01*
X0399312Y0197621D01*
X0399403Y0197686D01*
X0399495Y0197748D01*
X0399590Y0197807D01*
X0399687Y0197862D01*
X0399786Y0197913D01*
X0399887Y0197962D01*
X0399989Y0198006D01*
X0400093Y0198047D01*
X0400198Y0198084D01*
X0400305Y0198117D01*
X0400412Y0198147D01*
X0400521Y0198173D01*
X0400630Y0198194D01*
X0400740Y0198212D01*
X0400851Y0198226D01*
X0400962Y0198236D01*
X0401073Y0198242D01*
X0401185Y0198244D01*
X0401324Y0198246D01*
X0401463Y0198252D01*
X0401601Y0198262D01*
X0401739Y0198275D01*
X0401877Y0198293D01*
X0402014Y0198314D01*
X0402151Y0198339D01*
X0402287Y0198368D01*
X0402422Y0198401D01*
X0402556Y0198437D01*
X0402689Y0198478D01*
X0402820Y0198522D01*
X0402951Y0198570D01*
X0403080Y0198621D01*
X0403207Y0198676D01*
X0403333Y0198734D01*
X0403457Y0198796D01*
X0403580Y0198862D01*
X0403700Y0198931D01*
X0403819Y0199003D01*
X0403936Y0199078D01*
X0404050Y0199157D01*
X0404162Y0199239D01*
X0404272Y0199324D01*
X0404379Y0199412D01*
X0404484Y0199503D01*
X0404586Y0199597D01*
X0404686Y0199694D01*
X0404783Y0199794D01*
X0404877Y0199896D01*
X0404968Y0200001D01*
X0405056Y0200108D01*
X0405141Y0200218D01*
X0405223Y0200330D01*
X0405302Y0200444D01*
X0405377Y0200561D01*
X0405449Y0200680D01*
X0405518Y0200800D01*
X0405584Y0200923D01*
X0405646Y0201047D01*
X0405704Y0201173D01*
X0405759Y0201300D01*
X0405810Y0201429D01*
X0405858Y0201560D01*
X0405902Y0201691D01*
X0405943Y0201824D01*
X0405979Y0201958D01*
X0406012Y0202093D01*
X0406041Y0202229D01*
X0406066Y0202366D01*
X0406087Y0202503D01*
X0406105Y0202641D01*
X0406118Y0202779D01*
X0406128Y0202917D01*
X0406134Y0203056D01*
X0406136Y0203195D01*
X0406136Y0225921D01*
X0406136Y0225922D02*
X0406129Y0226498D01*
X0406107Y0227075D01*
X0406072Y0227651D01*
X0406023Y0228225D01*
X0405960Y0228799D01*
X0405884Y0229371D01*
X0405793Y0229940D01*
X0405689Y0230508D01*
X0405571Y0231072D01*
X0405439Y0231634D01*
X0405294Y0232192D01*
X0405135Y0232747D01*
X0404963Y0233298D01*
X0404778Y0233844D01*
X0404580Y0234386D01*
X0404369Y0234923D01*
X0404144Y0235454D01*
X0403907Y0235980D01*
X0403658Y0236500D01*
X0403395Y0237014D01*
X0403121Y0237521D01*
X0402834Y0238022D01*
X0402535Y0238515D01*
X0402225Y0239001D01*
X0401903Y0239480D01*
X0401569Y0239951D01*
X0401224Y0240413D01*
X0400868Y0240867D01*
X0400501Y0241312D01*
X0400123Y0241748D01*
X0399735Y0242175D01*
X0399337Y0242593D01*
X0398929Y0243000D01*
X0398511Y0243398D01*
X0398084Y0243785D01*
X0397647Y0244162D01*
X0397202Y0244529D01*
X0396747Y0244884D01*
X0396285Y0245229D01*
X0395814Y0245562D01*
X0395335Y0245884D01*
X0394848Y0246194D01*
X0394354Y0246492D01*
X0393854Y0246778D01*
X0393346Y0247052D01*
X0392832Y0247313D01*
X0392311Y0247563D01*
X0391785Y0247799D01*
X0391253Y0248023D01*
X0390716Y0248234D01*
X0390175Y0248431D01*
X0389628Y0248616D01*
X0389077Y0248787D01*
X0388522Y0248945D01*
X0387964Y0249090D01*
X0387402Y0249221D01*
X0386837Y0249338D01*
X0386270Y0249442D01*
X0385700Y0249531D01*
X0385128Y0249608D01*
X0384555Y0249670D01*
X0383980Y0249718D01*
X0383404Y0249753D01*
X0382827Y0249773D01*
X0382250Y0249780D01*
X0382251Y0249780D02*
X0036370Y0249780D01*
X0035783Y0249773D01*
X0035196Y0249751D01*
X0034609Y0249715D01*
X0034024Y0249665D01*
X0033440Y0249600D01*
X0032858Y0249521D01*
X0032278Y0249428D01*
X0031701Y0249320D01*
X0031126Y0249198D01*
X0030554Y0249063D01*
X0029986Y0248913D01*
X0029422Y0248749D01*
X0028862Y0248572D01*
X0028307Y0248381D01*
X0027756Y0248176D01*
X0027210Y0247958D01*
X0026671Y0247727D01*
X0026136Y0247482D01*
X0025609Y0247224D01*
X0025087Y0246954D01*
X0024572Y0246671D01*
X0024065Y0246375D01*
X0023565Y0246067D01*
X0023072Y0245746D01*
X0022588Y0245414D01*
X0022112Y0245070D01*
X0021644Y0244714D01*
X0021186Y0244347D01*
X0020736Y0243969D01*
X0020296Y0243580D01*
X0019866Y0243180D01*
X0019445Y0242770D01*
X0019035Y0242349D01*
X0018635Y0241919D01*
X0018246Y0241479D01*
X0017868Y0241029D01*
X0017501Y0240571D01*
X0017145Y0240103D01*
X0016801Y0239627D01*
X0016469Y0239143D01*
X0016148Y0238650D01*
X0015840Y0238150D01*
X0015544Y0237643D01*
X0015261Y0237128D01*
X0014991Y0236606D01*
X0014733Y0236079D01*
X0014488Y0235544D01*
X0014257Y0235005D01*
X0014039Y0234459D01*
X0013834Y0233908D01*
X0013643Y0233353D01*
X0013466Y0232793D01*
X0013302Y0232229D01*
X0013152Y0231661D01*
X0013017Y0231089D01*
X0012895Y0230514D01*
X0012787Y0229937D01*
X0012694Y0229357D01*
X0012615Y0228775D01*
X0012550Y0228191D01*
X0012500Y0227606D01*
X0012464Y0227019D01*
X0012442Y0226432D01*
X0012435Y0225845D01*
X0012435Y0057179D01*
X0012442Y0056601D01*
X0012463Y0056023D01*
X0012498Y0055445D01*
X0012547Y0054869D01*
X0012610Y0054294D01*
X0012686Y0053721D01*
X0012777Y0053149D01*
X0012881Y0052580D01*
X0012999Y0052014D01*
X0013131Y0051451D01*
X0013276Y0050891D01*
X0013434Y0050335D01*
X0013606Y0049783D01*
X0013792Y0049235D01*
X0013990Y0048692D01*
X0014202Y0048153D01*
X0014427Y0047620D01*
X0014664Y0047093D01*
X0014914Y0046571D01*
X0015177Y0046056D01*
X0015452Y0045547D01*
X0015739Y0045045D01*
X0016038Y0044550D01*
X0016349Y0044062D01*
X0016672Y0043582D01*
X0017006Y0043110D01*
X0017352Y0042647D01*
X0017708Y0042191D01*
X0018076Y0041745D01*
X0018454Y0041307D01*
X0018843Y0040879D01*
X0019242Y0040460D01*
X0019651Y0040051D01*
X0020070Y0039652D01*
X0020498Y0039263D01*
X0020936Y0038885D01*
X0021382Y0038517D01*
X0021838Y0038161D01*
X0022301Y0037815D01*
X0022773Y0037481D01*
X0023253Y0037158D01*
X0023741Y0036847D01*
X0024236Y0036548D01*
X0024738Y0036261D01*
X0025247Y0035986D01*
X0025762Y0035723D01*
X0026284Y0035473D01*
X0026811Y0035236D01*
X0027344Y0035011D01*
X0027883Y0034799D01*
X0028426Y0034601D01*
X0028974Y0034415D01*
X0029526Y0034243D01*
X0030082Y0034085D01*
X0030642Y0033940D01*
X0031205Y0033808D01*
X0031771Y0033690D01*
X0032340Y0033586D01*
X0032912Y0033495D01*
X0033485Y0033419D01*
X0034060Y0033356D01*
X0034636Y0033307D01*
X0035214Y0033272D01*
X0035792Y0033251D01*
X0036370Y0033244D01*
X0055349Y0062772D02*
X0055351Y0062930D01*
X0055357Y0063088D01*
X0055367Y0063246D01*
X0055381Y0063404D01*
X0055399Y0063561D01*
X0055420Y0063718D01*
X0055446Y0063874D01*
X0055476Y0064030D01*
X0055509Y0064185D01*
X0055547Y0064338D01*
X0055588Y0064491D01*
X0055633Y0064643D01*
X0055682Y0064794D01*
X0055735Y0064943D01*
X0055791Y0065091D01*
X0055851Y0065237D01*
X0055915Y0065382D01*
X0055983Y0065525D01*
X0056054Y0065667D01*
X0056128Y0065807D01*
X0056206Y0065944D01*
X0056288Y0066080D01*
X0056372Y0066214D01*
X0056461Y0066345D01*
X0056552Y0066474D01*
X0056647Y0066601D01*
X0056744Y0066726D01*
X0056845Y0066848D01*
X0056949Y0066967D01*
X0057056Y0067084D01*
X0057166Y0067198D01*
X0057279Y0067309D01*
X0057394Y0067418D01*
X0057512Y0067523D01*
X0057633Y0067625D01*
X0057756Y0067725D01*
X0057882Y0067821D01*
X0058010Y0067914D01*
X0058140Y0068004D01*
X0058273Y0068090D01*
X0058408Y0068174D01*
X0058544Y0068253D01*
X0058683Y0068330D01*
X0058824Y0068402D01*
X0058966Y0068472D01*
X0059110Y0068537D01*
X0059256Y0068599D01*
X0059403Y0068657D01*
X0059552Y0068712D01*
X0059702Y0068763D01*
X0059853Y0068810D01*
X0060005Y0068853D01*
X0060158Y0068892D01*
X0060313Y0068928D01*
X0060468Y0068959D01*
X0060624Y0068987D01*
X0060780Y0069011D01*
X0060937Y0069031D01*
X0061095Y0069047D01*
X0061252Y0069059D01*
X0061411Y0069067D01*
X0061569Y0069071D01*
X0061727Y0069071D01*
X0061885Y0069067D01*
X0062044Y0069059D01*
X0062201Y0069047D01*
X0062359Y0069031D01*
X0062516Y0069011D01*
X0062672Y0068987D01*
X0062828Y0068959D01*
X0062983Y0068928D01*
X0063138Y0068892D01*
X0063291Y0068853D01*
X0063443Y0068810D01*
X0063594Y0068763D01*
X0063744Y0068712D01*
X0063893Y0068657D01*
X0064040Y0068599D01*
X0064186Y0068537D01*
X0064330Y0068472D01*
X0064472Y0068402D01*
X0064613Y0068330D01*
X0064752Y0068253D01*
X0064888Y0068174D01*
X0065023Y0068090D01*
X0065156Y0068004D01*
X0065286Y0067914D01*
X0065414Y0067821D01*
X0065540Y0067725D01*
X0065663Y0067625D01*
X0065784Y0067523D01*
X0065902Y0067418D01*
X0066017Y0067309D01*
X0066130Y0067198D01*
X0066240Y0067084D01*
X0066347Y0066967D01*
X0066451Y0066848D01*
X0066552Y0066726D01*
X0066649Y0066601D01*
X0066744Y0066474D01*
X0066835Y0066345D01*
X0066924Y0066214D01*
X0067008Y0066080D01*
X0067090Y0065944D01*
X0067168Y0065807D01*
X0067242Y0065667D01*
X0067313Y0065525D01*
X0067381Y0065382D01*
X0067445Y0065237D01*
X0067505Y0065091D01*
X0067561Y0064943D01*
X0067614Y0064794D01*
X0067663Y0064643D01*
X0067708Y0064491D01*
X0067749Y0064338D01*
X0067787Y0064185D01*
X0067820Y0064030D01*
X0067850Y0063874D01*
X0067876Y0063718D01*
X0067897Y0063561D01*
X0067915Y0063404D01*
X0067929Y0063246D01*
X0067939Y0063088D01*
X0067945Y0062930D01*
X0067947Y0062772D01*
X0067945Y0062614D01*
X0067939Y0062456D01*
X0067929Y0062298D01*
X0067915Y0062140D01*
X0067897Y0061983D01*
X0067876Y0061826D01*
X0067850Y0061670D01*
X0067820Y0061514D01*
X0067787Y0061359D01*
X0067749Y0061206D01*
X0067708Y0061053D01*
X0067663Y0060901D01*
X0067614Y0060750D01*
X0067561Y0060601D01*
X0067505Y0060453D01*
X0067445Y0060307D01*
X0067381Y0060162D01*
X0067313Y0060019D01*
X0067242Y0059877D01*
X0067168Y0059737D01*
X0067090Y0059600D01*
X0067008Y0059464D01*
X0066924Y0059330D01*
X0066835Y0059199D01*
X0066744Y0059070D01*
X0066649Y0058943D01*
X0066552Y0058818D01*
X0066451Y0058696D01*
X0066347Y0058577D01*
X0066240Y0058460D01*
X0066130Y0058346D01*
X0066017Y0058235D01*
X0065902Y0058126D01*
X0065784Y0058021D01*
X0065663Y0057919D01*
X0065540Y0057819D01*
X0065414Y0057723D01*
X0065286Y0057630D01*
X0065156Y0057540D01*
X0065023Y0057454D01*
X0064888Y0057370D01*
X0064752Y0057291D01*
X0064613Y0057214D01*
X0064472Y0057142D01*
X0064330Y0057072D01*
X0064186Y0057007D01*
X0064040Y0056945D01*
X0063893Y0056887D01*
X0063744Y0056832D01*
X0063594Y0056781D01*
X0063443Y0056734D01*
X0063291Y0056691D01*
X0063138Y0056652D01*
X0062983Y0056616D01*
X0062828Y0056585D01*
X0062672Y0056557D01*
X0062516Y0056533D01*
X0062359Y0056513D01*
X0062201Y0056497D01*
X0062044Y0056485D01*
X0061885Y0056477D01*
X0061727Y0056473D01*
X0061569Y0056473D01*
X0061411Y0056477D01*
X0061252Y0056485D01*
X0061095Y0056497D01*
X0060937Y0056513D01*
X0060780Y0056533D01*
X0060624Y0056557D01*
X0060468Y0056585D01*
X0060313Y0056616D01*
X0060158Y0056652D01*
X0060005Y0056691D01*
X0059853Y0056734D01*
X0059702Y0056781D01*
X0059552Y0056832D01*
X0059403Y0056887D01*
X0059256Y0056945D01*
X0059110Y0057007D01*
X0058966Y0057072D01*
X0058824Y0057142D01*
X0058683Y0057214D01*
X0058544Y0057291D01*
X0058408Y0057370D01*
X0058273Y0057454D01*
X0058140Y0057540D01*
X0058010Y0057630D01*
X0057882Y0057723D01*
X0057756Y0057819D01*
X0057633Y0057919D01*
X0057512Y0058021D01*
X0057394Y0058126D01*
X0057279Y0058235D01*
X0057166Y0058346D01*
X0057056Y0058460D01*
X0056949Y0058577D01*
X0056845Y0058696D01*
X0056744Y0058818D01*
X0056647Y0058943D01*
X0056552Y0059070D01*
X0056461Y0059199D01*
X0056372Y0059330D01*
X0056288Y0059464D01*
X0056206Y0059600D01*
X0056128Y0059737D01*
X0056054Y0059877D01*
X0055983Y0060019D01*
X0055915Y0060162D01*
X0055851Y0060307D01*
X0055791Y0060453D01*
X0055735Y0060601D01*
X0055682Y0060750D01*
X0055633Y0060901D01*
X0055588Y0061053D01*
X0055547Y0061206D01*
X0055509Y0061359D01*
X0055476Y0061514D01*
X0055446Y0061670D01*
X0055420Y0061826D01*
X0055399Y0061983D01*
X0055381Y0062140D01*
X0055367Y0062298D01*
X0055357Y0062456D01*
X0055351Y0062614D01*
X0055349Y0062772D01*
X0027000Y0092280D02*
X0027002Y0092440D01*
X0027008Y0092599D01*
X0027018Y0092758D01*
X0027032Y0092917D01*
X0027050Y0093076D01*
X0027071Y0093234D01*
X0027097Y0093391D01*
X0027127Y0093548D01*
X0027160Y0093704D01*
X0027198Y0093859D01*
X0027239Y0094013D01*
X0027284Y0094166D01*
X0027333Y0094318D01*
X0027386Y0094469D01*
X0027442Y0094618D01*
X0027503Y0094766D01*
X0027566Y0094912D01*
X0027634Y0095057D01*
X0027705Y0095200D01*
X0027779Y0095341D01*
X0027857Y0095480D01*
X0027939Y0095617D01*
X0028024Y0095752D01*
X0028112Y0095885D01*
X0028204Y0096016D01*
X0028298Y0096144D01*
X0028396Y0096270D01*
X0028497Y0096394D01*
X0028601Y0096515D01*
X0028708Y0096633D01*
X0028818Y0096749D01*
X0028931Y0096862D01*
X0029047Y0096972D01*
X0029165Y0097079D01*
X0029286Y0097183D01*
X0029410Y0097284D01*
X0029536Y0097382D01*
X0029664Y0097476D01*
X0029795Y0097568D01*
X0029928Y0097656D01*
X0030063Y0097741D01*
X0030200Y0097823D01*
X0030339Y0097901D01*
X0030480Y0097975D01*
X0030623Y0098046D01*
X0030768Y0098114D01*
X0030914Y0098177D01*
X0031062Y0098238D01*
X0031211Y0098294D01*
X0031362Y0098347D01*
X0031514Y0098396D01*
X0031667Y0098441D01*
X0031821Y0098482D01*
X0031976Y0098520D01*
X0032132Y0098553D01*
X0032289Y0098583D01*
X0032446Y0098609D01*
X0032604Y0098630D01*
X0032763Y0098648D01*
X0032922Y0098662D01*
X0033081Y0098672D01*
X0033240Y0098678D01*
X0033400Y0098680D01*
X0033560Y0098678D01*
X0033719Y0098672D01*
X0033878Y0098662D01*
X0034037Y0098648D01*
X0034196Y0098630D01*
X0034354Y0098609D01*
X0034511Y0098583D01*
X0034668Y0098553D01*
X0034824Y0098520D01*
X0034979Y0098482D01*
X0035133Y0098441D01*
X0035286Y0098396D01*
X0035438Y0098347D01*
X0035589Y0098294D01*
X0035738Y0098238D01*
X0035886Y0098177D01*
X0036032Y0098114D01*
X0036177Y0098046D01*
X0036320Y0097975D01*
X0036461Y0097901D01*
X0036600Y0097823D01*
X0036737Y0097741D01*
X0036872Y0097656D01*
X0037005Y0097568D01*
X0037136Y0097476D01*
X0037264Y0097382D01*
X0037390Y0097284D01*
X0037514Y0097183D01*
X0037635Y0097079D01*
X0037753Y0096972D01*
X0037869Y0096862D01*
X0037982Y0096749D01*
X0038092Y0096633D01*
X0038199Y0096515D01*
X0038303Y0096394D01*
X0038404Y0096270D01*
X0038502Y0096144D01*
X0038596Y0096016D01*
X0038688Y0095885D01*
X0038776Y0095752D01*
X0038861Y0095617D01*
X0038943Y0095480D01*
X0039021Y0095341D01*
X0039095Y0095200D01*
X0039166Y0095057D01*
X0039234Y0094912D01*
X0039297Y0094766D01*
X0039358Y0094618D01*
X0039414Y0094469D01*
X0039467Y0094318D01*
X0039516Y0094166D01*
X0039561Y0094013D01*
X0039602Y0093859D01*
X0039640Y0093704D01*
X0039673Y0093548D01*
X0039703Y0093391D01*
X0039729Y0093234D01*
X0039750Y0093076D01*
X0039768Y0092917D01*
X0039782Y0092758D01*
X0039792Y0092599D01*
X0039798Y0092440D01*
X0039800Y0092280D01*
X0039798Y0092120D01*
X0039792Y0091961D01*
X0039782Y0091802D01*
X0039768Y0091643D01*
X0039750Y0091484D01*
X0039729Y0091326D01*
X0039703Y0091169D01*
X0039673Y0091012D01*
X0039640Y0090856D01*
X0039602Y0090701D01*
X0039561Y0090547D01*
X0039516Y0090394D01*
X0039467Y0090242D01*
X0039414Y0090091D01*
X0039358Y0089942D01*
X0039297Y0089794D01*
X0039234Y0089648D01*
X0039166Y0089503D01*
X0039095Y0089360D01*
X0039021Y0089219D01*
X0038943Y0089080D01*
X0038861Y0088943D01*
X0038776Y0088808D01*
X0038688Y0088675D01*
X0038596Y0088544D01*
X0038502Y0088416D01*
X0038404Y0088290D01*
X0038303Y0088166D01*
X0038199Y0088045D01*
X0038092Y0087927D01*
X0037982Y0087811D01*
X0037869Y0087698D01*
X0037753Y0087588D01*
X0037635Y0087481D01*
X0037514Y0087377D01*
X0037390Y0087276D01*
X0037264Y0087178D01*
X0037136Y0087084D01*
X0037005Y0086992D01*
X0036872Y0086904D01*
X0036737Y0086819D01*
X0036600Y0086737D01*
X0036461Y0086659D01*
X0036320Y0086585D01*
X0036177Y0086514D01*
X0036032Y0086446D01*
X0035886Y0086383D01*
X0035738Y0086322D01*
X0035589Y0086266D01*
X0035438Y0086213D01*
X0035286Y0086164D01*
X0035133Y0086119D01*
X0034979Y0086078D01*
X0034824Y0086040D01*
X0034668Y0086007D01*
X0034511Y0085977D01*
X0034354Y0085951D01*
X0034196Y0085930D01*
X0034037Y0085912D01*
X0033878Y0085898D01*
X0033719Y0085888D01*
X0033560Y0085882D01*
X0033400Y0085880D01*
X0033240Y0085882D01*
X0033081Y0085888D01*
X0032922Y0085898D01*
X0032763Y0085912D01*
X0032604Y0085930D01*
X0032446Y0085951D01*
X0032289Y0085977D01*
X0032132Y0086007D01*
X0031976Y0086040D01*
X0031821Y0086078D01*
X0031667Y0086119D01*
X0031514Y0086164D01*
X0031362Y0086213D01*
X0031211Y0086266D01*
X0031062Y0086322D01*
X0030914Y0086383D01*
X0030768Y0086446D01*
X0030623Y0086514D01*
X0030480Y0086585D01*
X0030339Y0086659D01*
X0030200Y0086737D01*
X0030063Y0086819D01*
X0029928Y0086904D01*
X0029795Y0086992D01*
X0029664Y0087084D01*
X0029536Y0087178D01*
X0029410Y0087276D01*
X0029286Y0087377D01*
X0029165Y0087481D01*
X0029047Y0087588D01*
X0028931Y0087698D01*
X0028818Y0087811D01*
X0028708Y0087927D01*
X0028601Y0088045D01*
X0028497Y0088166D01*
X0028396Y0088290D01*
X0028298Y0088416D01*
X0028204Y0088544D01*
X0028112Y0088675D01*
X0028024Y0088808D01*
X0027939Y0088943D01*
X0027857Y0089080D01*
X0027779Y0089219D01*
X0027705Y0089360D01*
X0027634Y0089503D01*
X0027566Y0089648D01*
X0027503Y0089794D01*
X0027442Y0089942D01*
X0027386Y0090091D01*
X0027333Y0090242D01*
X0027284Y0090394D01*
X0027239Y0090547D01*
X0027198Y0090701D01*
X0027160Y0090856D01*
X0027127Y0091012D01*
X0027097Y0091169D01*
X0027071Y0091326D01*
X0027050Y0091484D01*
X0027032Y0091643D01*
X0027018Y0091802D01*
X0027008Y0091961D01*
X0027002Y0092120D01*
X0027000Y0092280D01*
X0087435Y0129799D02*
X0087435Y0137673D01*
X0104660Y0137673D01*
X0104660Y0129799D01*
X0087435Y0129799D01*
X0087435Y0145547D02*
X0087435Y0153421D01*
X0104660Y0153421D01*
X0104660Y0145547D01*
X0087435Y0145547D01*
X0027000Y0150547D02*
X0027002Y0150707D01*
X0027008Y0150866D01*
X0027018Y0151025D01*
X0027032Y0151184D01*
X0027050Y0151343D01*
X0027071Y0151501D01*
X0027097Y0151658D01*
X0027127Y0151815D01*
X0027160Y0151971D01*
X0027198Y0152126D01*
X0027239Y0152280D01*
X0027284Y0152433D01*
X0027333Y0152585D01*
X0027386Y0152736D01*
X0027442Y0152885D01*
X0027503Y0153033D01*
X0027566Y0153179D01*
X0027634Y0153324D01*
X0027705Y0153467D01*
X0027779Y0153608D01*
X0027857Y0153747D01*
X0027939Y0153884D01*
X0028024Y0154019D01*
X0028112Y0154152D01*
X0028204Y0154283D01*
X0028298Y0154411D01*
X0028396Y0154537D01*
X0028497Y0154661D01*
X0028601Y0154782D01*
X0028708Y0154900D01*
X0028818Y0155016D01*
X0028931Y0155129D01*
X0029047Y0155239D01*
X0029165Y0155346D01*
X0029286Y0155450D01*
X0029410Y0155551D01*
X0029536Y0155649D01*
X0029664Y0155743D01*
X0029795Y0155835D01*
X0029928Y0155923D01*
X0030063Y0156008D01*
X0030200Y0156090D01*
X0030339Y0156168D01*
X0030480Y0156242D01*
X0030623Y0156313D01*
X0030768Y0156381D01*
X0030914Y0156444D01*
X0031062Y0156505D01*
X0031211Y0156561D01*
X0031362Y0156614D01*
X0031514Y0156663D01*
X0031667Y0156708D01*
X0031821Y0156749D01*
X0031976Y0156787D01*
X0032132Y0156820D01*
X0032289Y0156850D01*
X0032446Y0156876D01*
X0032604Y0156897D01*
X0032763Y0156915D01*
X0032922Y0156929D01*
X0033081Y0156939D01*
X0033240Y0156945D01*
X0033400Y0156947D01*
X0033560Y0156945D01*
X0033719Y0156939D01*
X0033878Y0156929D01*
X0034037Y0156915D01*
X0034196Y0156897D01*
X0034354Y0156876D01*
X0034511Y0156850D01*
X0034668Y0156820D01*
X0034824Y0156787D01*
X0034979Y0156749D01*
X0035133Y0156708D01*
X0035286Y0156663D01*
X0035438Y0156614D01*
X0035589Y0156561D01*
X0035738Y0156505D01*
X0035886Y0156444D01*
X0036032Y0156381D01*
X0036177Y0156313D01*
X0036320Y0156242D01*
X0036461Y0156168D01*
X0036600Y0156090D01*
X0036737Y0156008D01*
X0036872Y0155923D01*
X0037005Y0155835D01*
X0037136Y0155743D01*
X0037264Y0155649D01*
X0037390Y0155551D01*
X0037514Y0155450D01*
X0037635Y0155346D01*
X0037753Y0155239D01*
X0037869Y0155129D01*
X0037982Y0155016D01*
X0038092Y0154900D01*
X0038199Y0154782D01*
X0038303Y0154661D01*
X0038404Y0154537D01*
X0038502Y0154411D01*
X0038596Y0154283D01*
X0038688Y0154152D01*
X0038776Y0154019D01*
X0038861Y0153884D01*
X0038943Y0153747D01*
X0039021Y0153608D01*
X0039095Y0153467D01*
X0039166Y0153324D01*
X0039234Y0153179D01*
X0039297Y0153033D01*
X0039358Y0152885D01*
X0039414Y0152736D01*
X0039467Y0152585D01*
X0039516Y0152433D01*
X0039561Y0152280D01*
X0039602Y0152126D01*
X0039640Y0151971D01*
X0039673Y0151815D01*
X0039703Y0151658D01*
X0039729Y0151501D01*
X0039750Y0151343D01*
X0039768Y0151184D01*
X0039782Y0151025D01*
X0039792Y0150866D01*
X0039798Y0150707D01*
X0039800Y0150547D01*
X0039798Y0150387D01*
X0039792Y0150228D01*
X0039782Y0150069D01*
X0039768Y0149910D01*
X0039750Y0149751D01*
X0039729Y0149593D01*
X0039703Y0149436D01*
X0039673Y0149279D01*
X0039640Y0149123D01*
X0039602Y0148968D01*
X0039561Y0148814D01*
X0039516Y0148661D01*
X0039467Y0148509D01*
X0039414Y0148358D01*
X0039358Y0148209D01*
X0039297Y0148061D01*
X0039234Y0147915D01*
X0039166Y0147770D01*
X0039095Y0147627D01*
X0039021Y0147486D01*
X0038943Y0147347D01*
X0038861Y0147210D01*
X0038776Y0147075D01*
X0038688Y0146942D01*
X0038596Y0146811D01*
X0038502Y0146683D01*
X0038404Y0146557D01*
X0038303Y0146433D01*
X0038199Y0146312D01*
X0038092Y0146194D01*
X0037982Y0146078D01*
X0037869Y0145965D01*
X0037753Y0145855D01*
X0037635Y0145748D01*
X0037514Y0145644D01*
X0037390Y0145543D01*
X0037264Y0145445D01*
X0037136Y0145351D01*
X0037005Y0145259D01*
X0036872Y0145171D01*
X0036737Y0145086D01*
X0036600Y0145004D01*
X0036461Y0144926D01*
X0036320Y0144852D01*
X0036177Y0144781D01*
X0036032Y0144713D01*
X0035886Y0144650D01*
X0035738Y0144589D01*
X0035589Y0144533D01*
X0035438Y0144480D01*
X0035286Y0144431D01*
X0035133Y0144386D01*
X0034979Y0144345D01*
X0034824Y0144307D01*
X0034668Y0144274D01*
X0034511Y0144244D01*
X0034354Y0144218D01*
X0034196Y0144197D01*
X0034037Y0144179D01*
X0033878Y0144165D01*
X0033719Y0144155D01*
X0033560Y0144149D01*
X0033400Y0144147D01*
X0033240Y0144149D01*
X0033081Y0144155D01*
X0032922Y0144165D01*
X0032763Y0144179D01*
X0032604Y0144197D01*
X0032446Y0144218D01*
X0032289Y0144244D01*
X0032132Y0144274D01*
X0031976Y0144307D01*
X0031821Y0144345D01*
X0031667Y0144386D01*
X0031514Y0144431D01*
X0031362Y0144480D01*
X0031211Y0144533D01*
X0031062Y0144589D01*
X0030914Y0144650D01*
X0030768Y0144713D01*
X0030623Y0144781D01*
X0030480Y0144852D01*
X0030339Y0144926D01*
X0030200Y0145004D01*
X0030063Y0145086D01*
X0029928Y0145171D01*
X0029795Y0145259D01*
X0029664Y0145351D01*
X0029536Y0145445D01*
X0029410Y0145543D01*
X0029286Y0145644D01*
X0029165Y0145748D01*
X0029047Y0145855D01*
X0028931Y0145965D01*
X0028818Y0146078D01*
X0028708Y0146194D01*
X0028601Y0146312D01*
X0028497Y0146433D01*
X0028396Y0146557D01*
X0028298Y0146683D01*
X0028204Y0146811D01*
X0028112Y0146942D01*
X0028024Y0147075D01*
X0027939Y0147210D01*
X0027857Y0147347D01*
X0027779Y0147486D01*
X0027705Y0147627D01*
X0027634Y0147770D01*
X0027566Y0147915D01*
X0027503Y0148061D01*
X0027442Y0148209D01*
X0027386Y0148358D01*
X0027333Y0148509D01*
X0027284Y0148661D01*
X0027239Y0148814D01*
X0027198Y0148968D01*
X0027160Y0149123D01*
X0027127Y0149279D01*
X0027097Y0149436D01*
X0027071Y0149593D01*
X0027050Y0149751D01*
X0027032Y0149910D01*
X0027018Y0150069D01*
X0027008Y0150228D01*
X0027002Y0150387D01*
X0027000Y0150547D01*
X0027000Y0132280D02*
X0027002Y0132440D01*
X0027008Y0132599D01*
X0027018Y0132758D01*
X0027032Y0132917D01*
X0027050Y0133076D01*
X0027071Y0133234D01*
X0027097Y0133391D01*
X0027127Y0133548D01*
X0027160Y0133704D01*
X0027198Y0133859D01*
X0027239Y0134013D01*
X0027284Y0134166D01*
X0027333Y0134318D01*
X0027386Y0134469D01*
X0027442Y0134618D01*
X0027503Y0134766D01*
X0027566Y0134912D01*
X0027634Y0135057D01*
X0027705Y0135200D01*
X0027779Y0135341D01*
X0027857Y0135480D01*
X0027939Y0135617D01*
X0028024Y0135752D01*
X0028112Y0135885D01*
X0028204Y0136016D01*
X0028298Y0136144D01*
X0028396Y0136270D01*
X0028497Y0136394D01*
X0028601Y0136515D01*
X0028708Y0136633D01*
X0028818Y0136749D01*
X0028931Y0136862D01*
X0029047Y0136972D01*
X0029165Y0137079D01*
X0029286Y0137183D01*
X0029410Y0137284D01*
X0029536Y0137382D01*
X0029664Y0137476D01*
X0029795Y0137568D01*
X0029928Y0137656D01*
X0030063Y0137741D01*
X0030200Y0137823D01*
X0030339Y0137901D01*
X0030480Y0137975D01*
X0030623Y0138046D01*
X0030768Y0138114D01*
X0030914Y0138177D01*
X0031062Y0138238D01*
X0031211Y0138294D01*
X0031362Y0138347D01*
X0031514Y0138396D01*
X0031667Y0138441D01*
X0031821Y0138482D01*
X0031976Y0138520D01*
X0032132Y0138553D01*
X0032289Y0138583D01*
X0032446Y0138609D01*
X0032604Y0138630D01*
X0032763Y0138648D01*
X0032922Y0138662D01*
X0033081Y0138672D01*
X0033240Y0138678D01*
X0033400Y0138680D01*
X0033560Y0138678D01*
X0033719Y0138672D01*
X0033878Y0138662D01*
X0034037Y0138648D01*
X0034196Y0138630D01*
X0034354Y0138609D01*
X0034511Y0138583D01*
X0034668Y0138553D01*
X0034824Y0138520D01*
X0034979Y0138482D01*
X0035133Y0138441D01*
X0035286Y0138396D01*
X0035438Y0138347D01*
X0035589Y0138294D01*
X0035738Y0138238D01*
X0035886Y0138177D01*
X0036032Y0138114D01*
X0036177Y0138046D01*
X0036320Y0137975D01*
X0036461Y0137901D01*
X0036600Y0137823D01*
X0036737Y0137741D01*
X0036872Y0137656D01*
X0037005Y0137568D01*
X0037136Y0137476D01*
X0037264Y0137382D01*
X0037390Y0137284D01*
X0037514Y0137183D01*
X0037635Y0137079D01*
X0037753Y0136972D01*
X0037869Y0136862D01*
X0037982Y0136749D01*
X0038092Y0136633D01*
X0038199Y0136515D01*
X0038303Y0136394D01*
X0038404Y0136270D01*
X0038502Y0136144D01*
X0038596Y0136016D01*
X0038688Y0135885D01*
X0038776Y0135752D01*
X0038861Y0135617D01*
X0038943Y0135480D01*
X0039021Y0135341D01*
X0039095Y0135200D01*
X0039166Y0135057D01*
X0039234Y0134912D01*
X0039297Y0134766D01*
X0039358Y0134618D01*
X0039414Y0134469D01*
X0039467Y0134318D01*
X0039516Y0134166D01*
X0039561Y0134013D01*
X0039602Y0133859D01*
X0039640Y0133704D01*
X0039673Y0133548D01*
X0039703Y0133391D01*
X0039729Y0133234D01*
X0039750Y0133076D01*
X0039768Y0132917D01*
X0039782Y0132758D01*
X0039792Y0132599D01*
X0039798Y0132440D01*
X0039800Y0132280D01*
X0039798Y0132120D01*
X0039792Y0131961D01*
X0039782Y0131802D01*
X0039768Y0131643D01*
X0039750Y0131484D01*
X0039729Y0131326D01*
X0039703Y0131169D01*
X0039673Y0131012D01*
X0039640Y0130856D01*
X0039602Y0130701D01*
X0039561Y0130547D01*
X0039516Y0130394D01*
X0039467Y0130242D01*
X0039414Y0130091D01*
X0039358Y0129942D01*
X0039297Y0129794D01*
X0039234Y0129648D01*
X0039166Y0129503D01*
X0039095Y0129360D01*
X0039021Y0129219D01*
X0038943Y0129080D01*
X0038861Y0128943D01*
X0038776Y0128808D01*
X0038688Y0128675D01*
X0038596Y0128544D01*
X0038502Y0128416D01*
X0038404Y0128290D01*
X0038303Y0128166D01*
X0038199Y0128045D01*
X0038092Y0127927D01*
X0037982Y0127811D01*
X0037869Y0127698D01*
X0037753Y0127588D01*
X0037635Y0127481D01*
X0037514Y0127377D01*
X0037390Y0127276D01*
X0037264Y0127178D01*
X0037136Y0127084D01*
X0037005Y0126992D01*
X0036872Y0126904D01*
X0036737Y0126819D01*
X0036600Y0126737D01*
X0036461Y0126659D01*
X0036320Y0126585D01*
X0036177Y0126514D01*
X0036032Y0126446D01*
X0035886Y0126383D01*
X0035738Y0126322D01*
X0035589Y0126266D01*
X0035438Y0126213D01*
X0035286Y0126164D01*
X0035133Y0126119D01*
X0034979Y0126078D01*
X0034824Y0126040D01*
X0034668Y0126007D01*
X0034511Y0125977D01*
X0034354Y0125951D01*
X0034196Y0125930D01*
X0034037Y0125912D01*
X0033878Y0125898D01*
X0033719Y0125888D01*
X0033560Y0125882D01*
X0033400Y0125880D01*
X0033240Y0125882D01*
X0033081Y0125888D01*
X0032922Y0125898D01*
X0032763Y0125912D01*
X0032604Y0125930D01*
X0032446Y0125951D01*
X0032289Y0125977D01*
X0032132Y0126007D01*
X0031976Y0126040D01*
X0031821Y0126078D01*
X0031667Y0126119D01*
X0031514Y0126164D01*
X0031362Y0126213D01*
X0031211Y0126266D01*
X0031062Y0126322D01*
X0030914Y0126383D01*
X0030768Y0126446D01*
X0030623Y0126514D01*
X0030480Y0126585D01*
X0030339Y0126659D01*
X0030200Y0126737D01*
X0030063Y0126819D01*
X0029928Y0126904D01*
X0029795Y0126992D01*
X0029664Y0127084D01*
X0029536Y0127178D01*
X0029410Y0127276D01*
X0029286Y0127377D01*
X0029165Y0127481D01*
X0029047Y0127588D01*
X0028931Y0127698D01*
X0028818Y0127811D01*
X0028708Y0127927D01*
X0028601Y0128045D01*
X0028497Y0128166D01*
X0028396Y0128290D01*
X0028298Y0128416D01*
X0028204Y0128544D01*
X0028112Y0128675D01*
X0028024Y0128808D01*
X0027939Y0128943D01*
X0027857Y0129080D01*
X0027779Y0129219D01*
X0027705Y0129360D01*
X0027634Y0129503D01*
X0027566Y0129648D01*
X0027503Y0129794D01*
X0027442Y0129942D01*
X0027386Y0130091D01*
X0027333Y0130242D01*
X0027284Y0130394D01*
X0027239Y0130547D01*
X0027198Y0130701D01*
X0027160Y0130856D01*
X0027127Y0131012D01*
X0027097Y0131169D01*
X0027071Y0131326D01*
X0027050Y0131484D01*
X0027032Y0131643D01*
X0027018Y0131802D01*
X0027008Y0131961D01*
X0027002Y0132120D01*
X0027000Y0132280D01*
X0027000Y0190547D02*
X0027002Y0190707D01*
X0027008Y0190866D01*
X0027018Y0191025D01*
X0027032Y0191184D01*
X0027050Y0191343D01*
X0027071Y0191501D01*
X0027097Y0191658D01*
X0027127Y0191815D01*
X0027160Y0191971D01*
X0027198Y0192126D01*
X0027239Y0192280D01*
X0027284Y0192433D01*
X0027333Y0192585D01*
X0027386Y0192736D01*
X0027442Y0192885D01*
X0027503Y0193033D01*
X0027566Y0193179D01*
X0027634Y0193324D01*
X0027705Y0193467D01*
X0027779Y0193608D01*
X0027857Y0193747D01*
X0027939Y0193884D01*
X0028024Y0194019D01*
X0028112Y0194152D01*
X0028204Y0194283D01*
X0028298Y0194411D01*
X0028396Y0194537D01*
X0028497Y0194661D01*
X0028601Y0194782D01*
X0028708Y0194900D01*
X0028818Y0195016D01*
X0028931Y0195129D01*
X0029047Y0195239D01*
X0029165Y0195346D01*
X0029286Y0195450D01*
X0029410Y0195551D01*
X0029536Y0195649D01*
X0029664Y0195743D01*
X0029795Y0195835D01*
X0029928Y0195923D01*
X0030063Y0196008D01*
X0030200Y0196090D01*
X0030339Y0196168D01*
X0030480Y0196242D01*
X0030623Y0196313D01*
X0030768Y0196381D01*
X0030914Y0196444D01*
X0031062Y0196505D01*
X0031211Y0196561D01*
X0031362Y0196614D01*
X0031514Y0196663D01*
X0031667Y0196708D01*
X0031821Y0196749D01*
X0031976Y0196787D01*
X0032132Y0196820D01*
X0032289Y0196850D01*
X0032446Y0196876D01*
X0032604Y0196897D01*
X0032763Y0196915D01*
X0032922Y0196929D01*
X0033081Y0196939D01*
X0033240Y0196945D01*
X0033400Y0196947D01*
X0033560Y0196945D01*
X0033719Y0196939D01*
X0033878Y0196929D01*
X0034037Y0196915D01*
X0034196Y0196897D01*
X0034354Y0196876D01*
X0034511Y0196850D01*
X0034668Y0196820D01*
X0034824Y0196787D01*
X0034979Y0196749D01*
X0035133Y0196708D01*
X0035286Y0196663D01*
X0035438Y0196614D01*
X0035589Y0196561D01*
X0035738Y0196505D01*
X0035886Y0196444D01*
X0036032Y0196381D01*
X0036177Y0196313D01*
X0036320Y0196242D01*
X0036461Y0196168D01*
X0036600Y0196090D01*
X0036737Y0196008D01*
X0036872Y0195923D01*
X0037005Y0195835D01*
X0037136Y0195743D01*
X0037264Y0195649D01*
X0037390Y0195551D01*
X0037514Y0195450D01*
X0037635Y0195346D01*
X0037753Y0195239D01*
X0037869Y0195129D01*
X0037982Y0195016D01*
X0038092Y0194900D01*
X0038199Y0194782D01*
X0038303Y0194661D01*
X0038404Y0194537D01*
X0038502Y0194411D01*
X0038596Y0194283D01*
X0038688Y0194152D01*
X0038776Y0194019D01*
X0038861Y0193884D01*
X0038943Y0193747D01*
X0039021Y0193608D01*
X0039095Y0193467D01*
X0039166Y0193324D01*
X0039234Y0193179D01*
X0039297Y0193033D01*
X0039358Y0192885D01*
X0039414Y0192736D01*
X0039467Y0192585D01*
X0039516Y0192433D01*
X0039561Y0192280D01*
X0039602Y0192126D01*
X0039640Y0191971D01*
X0039673Y0191815D01*
X0039703Y0191658D01*
X0039729Y0191501D01*
X0039750Y0191343D01*
X0039768Y0191184D01*
X0039782Y0191025D01*
X0039792Y0190866D01*
X0039798Y0190707D01*
X0039800Y0190547D01*
X0039798Y0190387D01*
X0039792Y0190228D01*
X0039782Y0190069D01*
X0039768Y0189910D01*
X0039750Y0189751D01*
X0039729Y0189593D01*
X0039703Y0189436D01*
X0039673Y0189279D01*
X0039640Y0189123D01*
X0039602Y0188968D01*
X0039561Y0188814D01*
X0039516Y0188661D01*
X0039467Y0188509D01*
X0039414Y0188358D01*
X0039358Y0188209D01*
X0039297Y0188061D01*
X0039234Y0187915D01*
X0039166Y0187770D01*
X0039095Y0187627D01*
X0039021Y0187486D01*
X0038943Y0187347D01*
X0038861Y0187210D01*
X0038776Y0187075D01*
X0038688Y0186942D01*
X0038596Y0186811D01*
X0038502Y0186683D01*
X0038404Y0186557D01*
X0038303Y0186433D01*
X0038199Y0186312D01*
X0038092Y0186194D01*
X0037982Y0186078D01*
X0037869Y0185965D01*
X0037753Y0185855D01*
X0037635Y0185748D01*
X0037514Y0185644D01*
X0037390Y0185543D01*
X0037264Y0185445D01*
X0037136Y0185351D01*
X0037005Y0185259D01*
X0036872Y0185171D01*
X0036737Y0185086D01*
X0036600Y0185004D01*
X0036461Y0184926D01*
X0036320Y0184852D01*
X0036177Y0184781D01*
X0036032Y0184713D01*
X0035886Y0184650D01*
X0035738Y0184589D01*
X0035589Y0184533D01*
X0035438Y0184480D01*
X0035286Y0184431D01*
X0035133Y0184386D01*
X0034979Y0184345D01*
X0034824Y0184307D01*
X0034668Y0184274D01*
X0034511Y0184244D01*
X0034354Y0184218D01*
X0034196Y0184197D01*
X0034037Y0184179D01*
X0033878Y0184165D01*
X0033719Y0184155D01*
X0033560Y0184149D01*
X0033400Y0184147D01*
X0033240Y0184149D01*
X0033081Y0184155D01*
X0032922Y0184165D01*
X0032763Y0184179D01*
X0032604Y0184197D01*
X0032446Y0184218D01*
X0032289Y0184244D01*
X0032132Y0184274D01*
X0031976Y0184307D01*
X0031821Y0184345D01*
X0031667Y0184386D01*
X0031514Y0184431D01*
X0031362Y0184480D01*
X0031211Y0184533D01*
X0031062Y0184589D01*
X0030914Y0184650D01*
X0030768Y0184713D01*
X0030623Y0184781D01*
X0030480Y0184852D01*
X0030339Y0184926D01*
X0030200Y0185004D01*
X0030063Y0185086D01*
X0029928Y0185171D01*
X0029795Y0185259D01*
X0029664Y0185351D01*
X0029536Y0185445D01*
X0029410Y0185543D01*
X0029286Y0185644D01*
X0029165Y0185748D01*
X0029047Y0185855D01*
X0028931Y0185965D01*
X0028818Y0186078D01*
X0028708Y0186194D01*
X0028601Y0186312D01*
X0028497Y0186433D01*
X0028396Y0186557D01*
X0028298Y0186683D01*
X0028204Y0186811D01*
X0028112Y0186942D01*
X0028024Y0187075D01*
X0027939Y0187210D01*
X0027857Y0187347D01*
X0027779Y0187486D01*
X0027705Y0187627D01*
X0027634Y0187770D01*
X0027566Y0187915D01*
X0027503Y0188061D01*
X0027442Y0188209D01*
X0027386Y0188358D01*
X0027333Y0188509D01*
X0027284Y0188661D01*
X0027239Y0188814D01*
X0027198Y0188968D01*
X0027160Y0189123D01*
X0027127Y0189279D01*
X0027097Y0189436D01*
X0027071Y0189593D01*
X0027050Y0189751D01*
X0027032Y0189910D01*
X0027018Y0190069D01*
X0027008Y0190228D01*
X0027002Y0190387D01*
X0027000Y0190547D01*
X0055349Y0220252D02*
X0055351Y0220410D01*
X0055357Y0220568D01*
X0055367Y0220726D01*
X0055381Y0220884D01*
X0055399Y0221041D01*
X0055420Y0221198D01*
X0055446Y0221354D01*
X0055476Y0221510D01*
X0055509Y0221665D01*
X0055547Y0221818D01*
X0055588Y0221971D01*
X0055633Y0222123D01*
X0055682Y0222274D01*
X0055735Y0222423D01*
X0055791Y0222571D01*
X0055851Y0222717D01*
X0055915Y0222862D01*
X0055983Y0223005D01*
X0056054Y0223147D01*
X0056128Y0223287D01*
X0056206Y0223424D01*
X0056288Y0223560D01*
X0056372Y0223694D01*
X0056461Y0223825D01*
X0056552Y0223954D01*
X0056647Y0224081D01*
X0056744Y0224206D01*
X0056845Y0224328D01*
X0056949Y0224447D01*
X0057056Y0224564D01*
X0057166Y0224678D01*
X0057279Y0224789D01*
X0057394Y0224898D01*
X0057512Y0225003D01*
X0057633Y0225105D01*
X0057756Y0225205D01*
X0057882Y0225301D01*
X0058010Y0225394D01*
X0058140Y0225484D01*
X0058273Y0225570D01*
X0058408Y0225654D01*
X0058544Y0225733D01*
X0058683Y0225810D01*
X0058824Y0225882D01*
X0058966Y0225952D01*
X0059110Y0226017D01*
X0059256Y0226079D01*
X0059403Y0226137D01*
X0059552Y0226192D01*
X0059702Y0226243D01*
X0059853Y0226290D01*
X0060005Y0226333D01*
X0060158Y0226372D01*
X0060313Y0226408D01*
X0060468Y0226439D01*
X0060624Y0226467D01*
X0060780Y0226491D01*
X0060937Y0226511D01*
X0061095Y0226527D01*
X0061252Y0226539D01*
X0061411Y0226547D01*
X0061569Y0226551D01*
X0061727Y0226551D01*
X0061885Y0226547D01*
X0062044Y0226539D01*
X0062201Y0226527D01*
X0062359Y0226511D01*
X0062516Y0226491D01*
X0062672Y0226467D01*
X0062828Y0226439D01*
X0062983Y0226408D01*
X0063138Y0226372D01*
X0063291Y0226333D01*
X0063443Y0226290D01*
X0063594Y0226243D01*
X0063744Y0226192D01*
X0063893Y0226137D01*
X0064040Y0226079D01*
X0064186Y0226017D01*
X0064330Y0225952D01*
X0064472Y0225882D01*
X0064613Y0225810D01*
X0064752Y0225733D01*
X0064888Y0225654D01*
X0065023Y0225570D01*
X0065156Y0225484D01*
X0065286Y0225394D01*
X0065414Y0225301D01*
X0065540Y0225205D01*
X0065663Y0225105D01*
X0065784Y0225003D01*
X0065902Y0224898D01*
X0066017Y0224789D01*
X0066130Y0224678D01*
X0066240Y0224564D01*
X0066347Y0224447D01*
X0066451Y0224328D01*
X0066552Y0224206D01*
X0066649Y0224081D01*
X0066744Y0223954D01*
X0066835Y0223825D01*
X0066924Y0223694D01*
X0067008Y0223560D01*
X0067090Y0223424D01*
X0067168Y0223287D01*
X0067242Y0223147D01*
X0067313Y0223005D01*
X0067381Y0222862D01*
X0067445Y0222717D01*
X0067505Y0222571D01*
X0067561Y0222423D01*
X0067614Y0222274D01*
X0067663Y0222123D01*
X0067708Y0221971D01*
X0067749Y0221818D01*
X0067787Y0221665D01*
X0067820Y0221510D01*
X0067850Y0221354D01*
X0067876Y0221198D01*
X0067897Y0221041D01*
X0067915Y0220884D01*
X0067929Y0220726D01*
X0067939Y0220568D01*
X0067945Y0220410D01*
X0067947Y0220252D01*
X0067945Y0220094D01*
X0067939Y0219936D01*
X0067929Y0219778D01*
X0067915Y0219620D01*
X0067897Y0219463D01*
X0067876Y0219306D01*
X0067850Y0219150D01*
X0067820Y0218994D01*
X0067787Y0218839D01*
X0067749Y0218686D01*
X0067708Y0218533D01*
X0067663Y0218381D01*
X0067614Y0218230D01*
X0067561Y0218081D01*
X0067505Y0217933D01*
X0067445Y0217787D01*
X0067381Y0217642D01*
X0067313Y0217499D01*
X0067242Y0217357D01*
X0067168Y0217217D01*
X0067090Y0217080D01*
X0067008Y0216944D01*
X0066924Y0216810D01*
X0066835Y0216679D01*
X0066744Y0216550D01*
X0066649Y0216423D01*
X0066552Y0216298D01*
X0066451Y0216176D01*
X0066347Y0216057D01*
X0066240Y0215940D01*
X0066130Y0215826D01*
X0066017Y0215715D01*
X0065902Y0215606D01*
X0065784Y0215501D01*
X0065663Y0215399D01*
X0065540Y0215299D01*
X0065414Y0215203D01*
X0065286Y0215110D01*
X0065156Y0215020D01*
X0065023Y0214934D01*
X0064888Y0214850D01*
X0064752Y0214771D01*
X0064613Y0214694D01*
X0064472Y0214622D01*
X0064330Y0214552D01*
X0064186Y0214487D01*
X0064040Y0214425D01*
X0063893Y0214367D01*
X0063744Y0214312D01*
X0063594Y0214261D01*
X0063443Y0214214D01*
X0063291Y0214171D01*
X0063138Y0214132D01*
X0062983Y0214096D01*
X0062828Y0214065D01*
X0062672Y0214037D01*
X0062516Y0214013D01*
X0062359Y0213993D01*
X0062201Y0213977D01*
X0062044Y0213965D01*
X0061885Y0213957D01*
X0061727Y0213953D01*
X0061569Y0213953D01*
X0061411Y0213957D01*
X0061252Y0213965D01*
X0061095Y0213977D01*
X0060937Y0213993D01*
X0060780Y0214013D01*
X0060624Y0214037D01*
X0060468Y0214065D01*
X0060313Y0214096D01*
X0060158Y0214132D01*
X0060005Y0214171D01*
X0059853Y0214214D01*
X0059702Y0214261D01*
X0059552Y0214312D01*
X0059403Y0214367D01*
X0059256Y0214425D01*
X0059110Y0214487D01*
X0058966Y0214552D01*
X0058824Y0214622D01*
X0058683Y0214694D01*
X0058544Y0214771D01*
X0058408Y0214850D01*
X0058273Y0214934D01*
X0058140Y0215020D01*
X0058010Y0215110D01*
X0057882Y0215203D01*
X0057756Y0215299D01*
X0057633Y0215399D01*
X0057512Y0215501D01*
X0057394Y0215606D01*
X0057279Y0215715D01*
X0057166Y0215826D01*
X0057056Y0215940D01*
X0056949Y0216057D01*
X0056845Y0216176D01*
X0056744Y0216298D01*
X0056647Y0216423D01*
X0056552Y0216550D01*
X0056461Y0216679D01*
X0056372Y0216810D01*
X0056288Y0216944D01*
X0056206Y0217080D01*
X0056128Y0217217D01*
X0056054Y0217357D01*
X0055983Y0217499D01*
X0055915Y0217642D01*
X0055851Y0217787D01*
X0055791Y0217933D01*
X0055735Y0218081D01*
X0055682Y0218230D01*
X0055633Y0218381D01*
X0055588Y0218533D01*
X0055547Y0218686D01*
X0055509Y0218839D01*
X0055476Y0218994D01*
X0055446Y0219150D01*
X0055420Y0219306D01*
X0055399Y0219463D01*
X0055381Y0219620D01*
X0055367Y0219778D01*
X0055357Y0219936D01*
X0055351Y0220094D01*
X0055349Y0220252D01*
X0191372Y0220154D02*
X0199246Y0220154D01*
X0199246Y0240035D01*
X0191372Y0240035D01*
X0191372Y0220154D01*
X0203786Y0230094D02*
X0203788Y0230242D01*
X0203794Y0230390D01*
X0203804Y0230538D01*
X0203818Y0230686D01*
X0203836Y0230833D01*
X0203858Y0230980D01*
X0203884Y0231126D01*
X0203913Y0231271D01*
X0203947Y0231416D01*
X0203985Y0231559D01*
X0204026Y0231702D01*
X0204071Y0231843D01*
X0204121Y0231983D01*
X0204173Y0232121D01*
X0204230Y0232259D01*
X0204290Y0232394D01*
X0204354Y0232528D01*
X0204421Y0232660D01*
X0204492Y0232790D01*
X0204567Y0232919D01*
X0204645Y0233045D01*
X0204726Y0233169D01*
X0204810Y0233291D01*
X0204898Y0233410D01*
X0204989Y0233527D01*
X0205083Y0233642D01*
X0205181Y0233754D01*
X0205281Y0233863D01*
X0205384Y0233970D01*
X0205490Y0234074D01*
X0205598Y0234175D01*
X0205710Y0234273D01*
X0205824Y0234368D01*
X0205940Y0234459D01*
X0206059Y0234548D01*
X0206180Y0234633D01*
X0206304Y0234715D01*
X0206430Y0234794D01*
X0206557Y0234869D01*
X0206687Y0234941D01*
X0206819Y0235010D01*
X0206952Y0235074D01*
X0207087Y0235135D01*
X0207224Y0235193D01*
X0207362Y0235247D01*
X0207502Y0235297D01*
X0207643Y0235343D01*
X0207785Y0235385D01*
X0207928Y0235424D01*
X0208072Y0235458D01*
X0208218Y0235489D01*
X0208363Y0235516D01*
X0208510Y0235539D01*
X0208657Y0235558D01*
X0208805Y0235573D01*
X0208952Y0235584D01*
X0209101Y0235591D01*
X0209249Y0235594D01*
X0209397Y0235593D01*
X0209545Y0235588D01*
X0209693Y0235579D01*
X0209841Y0235566D01*
X0209989Y0235549D01*
X0210135Y0235528D01*
X0210282Y0235503D01*
X0210427Y0235474D01*
X0210572Y0235442D01*
X0210715Y0235405D01*
X0210858Y0235365D01*
X0211000Y0235320D01*
X0211140Y0235272D01*
X0211279Y0235220D01*
X0211416Y0235165D01*
X0211552Y0235105D01*
X0211687Y0235042D01*
X0211819Y0234976D01*
X0211950Y0234906D01*
X0212079Y0234832D01*
X0212205Y0234755D01*
X0212330Y0234675D01*
X0212452Y0234591D01*
X0212573Y0234504D01*
X0212690Y0234414D01*
X0212806Y0234320D01*
X0212918Y0234224D01*
X0213028Y0234125D01*
X0213136Y0234022D01*
X0213240Y0233917D01*
X0213342Y0233809D01*
X0213440Y0233698D01*
X0213536Y0233585D01*
X0213629Y0233469D01*
X0213718Y0233351D01*
X0213804Y0233230D01*
X0213887Y0233107D01*
X0213967Y0232982D01*
X0214043Y0232855D01*
X0214116Y0232725D01*
X0214185Y0232594D01*
X0214250Y0232461D01*
X0214313Y0232327D01*
X0214371Y0232190D01*
X0214426Y0232052D01*
X0214476Y0231913D01*
X0214524Y0231772D01*
X0214567Y0231631D01*
X0214607Y0231488D01*
X0214642Y0231344D01*
X0214674Y0231199D01*
X0214702Y0231053D01*
X0214726Y0230907D01*
X0214746Y0230760D01*
X0214762Y0230612D01*
X0214774Y0230465D01*
X0214782Y0230316D01*
X0214786Y0230168D01*
X0214786Y0230020D01*
X0214782Y0229872D01*
X0214774Y0229723D01*
X0214762Y0229576D01*
X0214746Y0229428D01*
X0214726Y0229281D01*
X0214702Y0229135D01*
X0214674Y0228989D01*
X0214642Y0228844D01*
X0214607Y0228700D01*
X0214567Y0228557D01*
X0214524Y0228416D01*
X0214476Y0228275D01*
X0214426Y0228136D01*
X0214371Y0227998D01*
X0214313Y0227861D01*
X0214250Y0227727D01*
X0214185Y0227594D01*
X0214116Y0227463D01*
X0214043Y0227333D01*
X0213967Y0227206D01*
X0213887Y0227081D01*
X0213804Y0226958D01*
X0213718Y0226837D01*
X0213629Y0226719D01*
X0213536Y0226603D01*
X0213440Y0226490D01*
X0213342Y0226379D01*
X0213240Y0226271D01*
X0213136Y0226166D01*
X0213028Y0226063D01*
X0212918Y0225964D01*
X0212806Y0225868D01*
X0212690Y0225774D01*
X0212573Y0225684D01*
X0212452Y0225597D01*
X0212330Y0225513D01*
X0212205Y0225433D01*
X0212079Y0225356D01*
X0211950Y0225282D01*
X0211819Y0225212D01*
X0211687Y0225146D01*
X0211552Y0225083D01*
X0211416Y0225023D01*
X0211279Y0224968D01*
X0211140Y0224916D01*
X0211000Y0224868D01*
X0210858Y0224823D01*
X0210715Y0224783D01*
X0210572Y0224746D01*
X0210427Y0224714D01*
X0210282Y0224685D01*
X0210135Y0224660D01*
X0209989Y0224639D01*
X0209841Y0224622D01*
X0209693Y0224609D01*
X0209545Y0224600D01*
X0209397Y0224595D01*
X0209249Y0224594D01*
X0209101Y0224597D01*
X0208952Y0224604D01*
X0208805Y0224615D01*
X0208657Y0224630D01*
X0208510Y0224649D01*
X0208363Y0224672D01*
X0208218Y0224699D01*
X0208072Y0224730D01*
X0207928Y0224764D01*
X0207785Y0224803D01*
X0207643Y0224845D01*
X0207502Y0224891D01*
X0207362Y0224941D01*
X0207224Y0224995D01*
X0207087Y0225053D01*
X0206952Y0225114D01*
X0206819Y0225178D01*
X0206687Y0225247D01*
X0206557Y0225319D01*
X0206430Y0225394D01*
X0206304Y0225473D01*
X0206180Y0225555D01*
X0206059Y0225640D01*
X0205940Y0225729D01*
X0205824Y0225820D01*
X0205710Y0225915D01*
X0205598Y0226013D01*
X0205490Y0226114D01*
X0205384Y0226218D01*
X0205281Y0226325D01*
X0205181Y0226434D01*
X0205083Y0226546D01*
X0204989Y0226661D01*
X0204898Y0226778D01*
X0204810Y0226897D01*
X0204726Y0227019D01*
X0204645Y0227143D01*
X0204567Y0227269D01*
X0204492Y0227398D01*
X0204421Y0227528D01*
X0204354Y0227660D01*
X0204290Y0227794D01*
X0204230Y0227929D01*
X0204173Y0228067D01*
X0204121Y0228205D01*
X0204071Y0228345D01*
X0204026Y0228486D01*
X0203985Y0228629D01*
X0203947Y0228772D01*
X0203913Y0228917D01*
X0203884Y0229062D01*
X0203858Y0229208D01*
X0203836Y0229355D01*
X0203818Y0229502D01*
X0203804Y0229650D01*
X0203794Y0229798D01*
X0203788Y0229946D01*
X0203786Y0230094D01*
X0219325Y0220154D02*
X0227199Y0220154D01*
X0227199Y0240035D01*
X0219325Y0240035D01*
X0219325Y0220154D01*
X0341176Y0153421D02*
X0341176Y0145547D01*
X0358400Y0145547D01*
X0358400Y0153421D01*
X0341176Y0153421D01*
X0341176Y0137673D02*
X0341176Y0129799D01*
X0358400Y0129799D01*
X0358400Y0137673D01*
X0341176Y0137673D01*
X0350625Y0062772D02*
X0350627Y0062930D01*
X0350633Y0063088D01*
X0350643Y0063246D01*
X0350657Y0063404D01*
X0350675Y0063561D01*
X0350696Y0063718D01*
X0350722Y0063874D01*
X0350752Y0064030D01*
X0350785Y0064185D01*
X0350823Y0064338D01*
X0350864Y0064491D01*
X0350909Y0064643D01*
X0350958Y0064794D01*
X0351011Y0064943D01*
X0351067Y0065091D01*
X0351127Y0065237D01*
X0351191Y0065382D01*
X0351259Y0065525D01*
X0351330Y0065667D01*
X0351404Y0065807D01*
X0351482Y0065944D01*
X0351564Y0066080D01*
X0351648Y0066214D01*
X0351737Y0066345D01*
X0351828Y0066474D01*
X0351923Y0066601D01*
X0352020Y0066726D01*
X0352121Y0066848D01*
X0352225Y0066967D01*
X0352332Y0067084D01*
X0352442Y0067198D01*
X0352555Y0067309D01*
X0352670Y0067418D01*
X0352788Y0067523D01*
X0352909Y0067625D01*
X0353032Y0067725D01*
X0353158Y0067821D01*
X0353286Y0067914D01*
X0353416Y0068004D01*
X0353549Y0068090D01*
X0353684Y0068174D01*
X0353820Y0068253D01*
X0353959Y0068330D01*
X0354100Y0068402D01*
X0354242Y0068472D01*
X0354386Y0068537D01*
X0354532Y0068599D01*
X0354679Y0068657D01*
X0354828Y0068712D01*
X0354978Y0068763D01*
X0355129Y0068810D01*
X0355281Y0068853D01*
X0355434Y0068892D01*
X0355589Y0068928D01*
X0355744Y0068959D01*
X0355900Y0068987D01*
X0356056Y0069011D01*
X0356213Y0069031D01*
X0356371Y0069047D01*
X0356528Y0069059D01*
X0356687Y0069067D01*
X0356845Y0069071D01*
X0357003Y0069071D01*
X0357161Y0069067D01*
X0357320Y0069059D01*
X0357477Y0069047D01*
X0357635Y0069031D01*
X0357792Y0069011D01*
X0357948Y0068987D01*
X0358104Y0068959D01*
X0358259Y0068928D01*
X0358414Y0068892D01*
X0358567Y0068853D01*
X0358719Y0068810D01*
X0358870Y0068763D01*
X0359020Y0068712D01*
X0359169Y0068657D01*
X0359316Y0068599D01*
X0359462Y0068537D01*
X0359606Y0068472D01*
X0359748Y0068402D01*
X0359889Y0068330D01*
X0360028Y0068253D01*
X0360164Y0068174D01*
X0360299Y0068090D01*
X0360432Y0068004D01*
X0360562Y0067914D01*
X0360690Y0067821D01*
X0360816Y0067725D01*
X0360939Y0067625D01*
X0361060Y0067523D01*
X0361178Y0067418D01*
X0361293Y0067309D01*
X0361406Y0067198D01*
X0361516Y0067084D01*
X0361623Y0066967D01*
X0361727Y0066848D01*
X0361828Y0066726D01*
X0361925Y0066601D01*
X0362020Y0066474D01*
X0362111Y0066345D01*
X0362200Y0066214D01*
X0362284Y0066080D01*
X0362366Y0065944D01*
X0362444Y0065807D01*
X0362518Y0065667D01*
X0362589Y0065525D01*
X0362657Y0065382D01*
X0362721Y0065237D01*
X0362781Y0065091D01*
X0362837Y0064943D01*
X0362890Y0064794D01*
X0362939Y0064643D01*
X0362984Y0064491D01*
X0363025Y0064338D01*
X0363063Y0064185D01*
X0363096Y0064030D01*
X0363126Y0063874D01*
X0363152Y0063718D01*
X0363173Y0063561D01*
X0363191Y0063404D01*
X0363205Y0063246D01*
X0363215Y0063088D01*
X0363221Y0062930D01*
X0363223Y0062772D01*
X0363221Y0062614D01*
X0363215Y0062456D01*
X0363205Y0062298D01*
X0363191Y0062140D01*
X0363173Y0061983D01*
X0363152Y0061826D01*
X0363126Y0061670D01*
X0363096Y0061514D01*
X0363063Y0061359D01*
X0363025Y0061206D01*
X0362984Y0061053D01*
X0362939Y0060901D01*
X0362890Y0060750D01*
X0362837Y0060601D01*
X0362781Y0060453D01*
X0362721Y0060307D01*
X0362657Y0060162D01*
X0362589Y0060019D01*
X0362518Y0059877D01*
X0362444Y0059737D01*
X0362366Y0059600D01*
X0362284Y0059464D01*
X0362200Y0059330D01*
X0362111Y0059199D01*
X0362020Y0059070D01*
X0361925Y0058943D01*
X0361828Y0058818D01*
X0361727Y0058696D01*
X0361623Y0058577D01*
X0361516Y0058460D01*
X0361406Y0058346D01*
X0361293Y0058235D01*
X0361178Y0058126D01*
X0361060Y0058021D01*
X0360939Y0057919D01*
X0360816Y0057819D01*
X0360690Y0057723D01*
X0360562Y0057630D01*
X0360432Y0057540D01*
X0360299Y0057454D01*
X0360164Y0057370D01*
X0360028Y0057291D01*
X0359889Y0057214D01*
X0359748Y0057142D01*
X0359606Y0057072D01*
X0359462Y0057007D01*
X0359316Y0056945D01*
X0359169Y0056887D01*
X0359020Y0056832D01*
X0358870Y0056781D01*
X0358719Y0056734D01*
X0358567Y0056691D01*
X0358414Y0056652D01*
X0358259Y0056616D01*
X0358104Y0056585D01*
X0357948Y0056557D01*
X0357792Y0056533D01*
X0357635Y0056513D01*
X0357477Y0056497D01*
X0357320Y0056485D01*
X0357161Y0056477D01*
X0357003Y0056473D01*
X0356845Y0056473D01*
X0356687Y0056477D01*
X0356528Y0056485D01*
X0356371Y0056497D01*
X0356213Y0056513D01*
X0356056Y0056533D01*
X0355900Y0056557D01*
X0355744Y0056585D01*
X0355589Y0056616D01*
X0355434Y0056652D01*
X0355281Y0056691D01*
X0355129Y0056734D01*
X0354978Y0056781D01*
X0354828Y0056832D01*
X0354679Y0056887D01*
X0354532Y0056945D01*
X0354386Y0057007D01*
X0354242Y0057072D01*
X0354100Y0057142D01*
X0353959Y0057214D01*
X0353820Y0057291D01*
X0353684Y0057370D01*
X0353549Y0057454D01*
X0353416Y0057540D01*
X0353286Y0057630D01*
X0353158Y0057723D01*
X0353032Y0057819D01*
X0352909Y0057919D01*
X0352788Y0058021D01*
X0352670Y0058126D01*
X0352555Y0058235D01*
X0352442Y0058346D01*
X0352332Y0058460D01*
X0352225Y0058577D01*
X0352121Y0058696D01*
X0352020Y0058818D01*
X0351923Y0058943D01*
X0351828Y0059070D01*
X0351737Y0059199D01*
X0351648Y0059330D01*
X0351564Y0059464D01*
X0351482Y0059600D01*
X0351404Y0059737D01*
X0351330Y0059877D01*
X0351259Y0060019D01*
X0351191Y0060162D01*
X0351127Y0060307D01*
X0351067Y0060453D01*
X0351011Y0060601D01*
X0350958Y0060750D01*
X0350909Y0060901D01*
X0350864Y0061053D01*
X0350823Y0061206D01*
X0350785Y0061359D01*
X0350752Y0061514D01*
X0350722Y0061670D01*
X0350696Y0061826D01*
X0350675Y0061983D01*
X0350657Y0062140D01*
X0350643Y0062298D01*
X0350633Y0062456D01*
X0350627Y0062614D01*
X0350625Y0062772D01*
X0227199Y0062870D02*
X0227199Y0042988D01*
X0219325Y0042988D01*
X0219325Y0062870D01*
X0227199Y0062870D01*
X0203786Y0052929D02*
X0203788Y0053077D01*
X0203794Y0053225D01*
X0203804Y0053373D01*
X0203818Y0053521D01*
X0203836Y0053668D01*
X0203858Y0053815D01*
X0203884Y0053961D01*
X0203913Y0054106D01*
X0203947Y0054251D01*
X0203985Y0054394D01*
X0204026Y0054537D01*
X0204071Y0054678D01*
X0204121Y0054818D01*
X0204173Y0054956D01*
X0204230Y0055094D01*
X0204290Y0055229D01*
X0204354Y0055363D01*
X0204421Y0055495D01*
X0204492Y0055625D01*
X0204567Y0055754D01*
X0204645Y0055880D01*
X0204726Y0056004D01*
X0204810Y0056126D01*
X0204898Y0056245D01*
X0204989Y0056362D01*
X0205083Y0056477D01*
X0205181Y0056589D01*
X0205281Y0056698D01*
X0205384Y0056805D01*
X0205490Y0056909D01*
X0205598Y0057010D01*
X0205710Y0057108D01*
X0205824Y0057203D01*
X0205940Y0057294D01*
X0206059Y0057383D01*
X0206180Y0057468D01*
X0206304Y0057550D01*
X0206430Y0057629D01*
X0206557Y0057704D01*
X0206687Y0057776D01*
X0206819Y0057845D01*
X0206952Y0057909D01*
X0207087Y0057970D01*
X0207224Y0058028D01*
X0207362Y0058082D01*
X0207502Y0058132D01*
X0207643Y0058178D01*
X0207785Y0058220D01*
X0207928Y0058259D01*
X0208072Y0058293D01*
X0208218Y0058324D01*
X0208363Y0058351D01*
X0208510Y0058374D01*
X0208657Y0058393D01*
X0208805Y0058408D01*
X0208952Y0058419D01*
X0209101Y0058426D01*
X0209249Y0058429D01*
X0209397Y0058428D01*
X0209545Y0058423D01*
X0209693Y0058414D01*
X0209841Y0058401D01*
X0209989Y0058384D01*
X0210135Y0058363D01*
X0210282Y0058338D01*
X0210427Y0058309D01*
X0210572Y0058277D01*
X0210715Y0058240D01*
X0210858Y0058200D01*
X0211000Y0058155D01*
X0211140Y0058107D01*
X0211279Y0058055D01*
X0211416Y0058000D01*
X0211552Y0057940D01*
X0211687Y0057877D01*
X0211819Y0057811D01*
X0211950Y0057741D01*
X0212079Y0057667D01*
X0212205Y0057590D01*
X0212330Y0057510D01*
X0212452Y0057426D01*
X0212573Y0057339D01*
X0212690Y0057249D01*
X0212806Y0057155D01*
X0212918Y0057059D01*
X0213028Y0056960D01*
X0213136Y0056857D01*
X0213240Y0056752D01*
X0213342Y0056644D01*
X0213440Y0056533D01*
X0213536Y0056420D01*
X0213629Y0056304D01*
X0213718Y0056186D01*
X0213804Y0056065D01*
X0213887Y0055942D01*
X0213967Y0055817D01*
X0214043Y0055690D01*
X0214116Y0055560D01*
X0214185Y0055429D01*
X0214250Y0055296D01*
X0214313Y0055162D01*
X0214371Y0055025D01*
X0214426Y0054887D01*
X0214476Y0054748D01*
X0214524Y0054607D01*
X0214567Y0054466D01*
X0214607Y0054323D01*
X0214642Y0054179D01*
X0214674Y0054034D01*
X0214702Y0053888D01*
X0214726Y0053742D01*
X0214746Y0053595D01*
X0214762Y0053447D01*
X0214774Y0053300D01*
X0214782Y0053151D01*
X0214786Y0053003D01*
X0214786Y0052855D01*
X0214782Y0052707D01*
X0214774Y0052558D01*
X0214762Y0052411D01*
X0214746Y0052263D01*
X0214726Y0052116D01*
X0214702Y0051970D01*
X0214674Y0051824D01*
X0214642Y0051679D01*
X0214607Y0051535D01*
X0214567Y0051392D01*
X0214524Y0051251D01*
X0214476Y0051110D01*
X0214426Y0050971D01*
X0214371Y0050833D01*
X0214313Y0050696D01*
X0214250Y0050562D01*
X0214185Y0050429D01*
X0214116Y0050298D01*
X0214043Y0050168D01*
X0213967Y0050041D01*
X0213887Y0049916D01*
X0213804Y0049793D01*
X0213718Y0049672D01*
X0213629Y0049554D01*
X0213536Y0049438D01*
X0213440Y0049325D01*
X0213342Y0049214D01*
X0213240Y0049106D01*
X0213136Y0049001D01*
X0213028Y0048898D01*
X0212918Y0048799D01*
X0212806Y0048703D01*
X0212690Y0048609D01*
X0212573Y0048519D01*
X0212452Y0048432D01*
X0212330Y0048348D01*
X0212205Y0048268D01*
X0212079Y0048191D01*
X0211950Y0048117D01*
X0211819Y0048047D01*
X0211687Y0047981D01*
X0211552Y0047918D01*
X0211416Y0047858D01*
X0211279Y0047803D01*
X0211140Y0047751D01*
X0211000Y0047703D01*
X0210858Y0047658D01*
X0210715Y0047618D01*
X0210572Y0047581D01*
X0210427Y0047549D01*
X0210282Y0047520D01*
X0210135Y0047495D01*
X0209989Y0047474D01*
X0209841Y0047457D01*
X0209693Y0047444D01*
X0209545Y0047435D01*
X0209397Y0047430D01*
X0209249Y0047429D01*
X0209101Y0047432D01*
X0208952Y0047439D01*
X0208805Y0047450D01*
X0208657Y0047465D01*
X0208510Y0047484D01*
X0208363Y0047507D01*
X0208218Y0047534D01*
X0208072Y0047565D01*
X0207928Y0047599D01*
X0207785Y0047638D01*
X0207643Y0047680D01*
X0207502Y0047726D01*
X0207362Y0047776D01*
X0207224Y0047830D01*
X0207087Y0047888D01*
X0206952Y0047949D01*
X0206819Y0048013D01*
X0206687Y0048082D01*
X0206557Y0048154D01*
X0206430Y0048229D01*
X0206304Y0048308D01*
X0206180Y0048390D01*
X0206059Y0048475D01*
X0205940Y0048564D01*
X0205824Y0048655D01*
X0205710Y0048750D01*
X0205598Y0048848D01*
X0205490Y0048949D01*
X0205384Y0049053D01*
X0205281Y0049160D01*
X0205181Y0049269D01*
X0205083Y0049381D01*
X0204989Y0049496D01*
X0204898Y0049613D01*
X0204810Y0049732D01*
X0204726Y0049854D01*
X0204645Y0049978D01*
X0204567Y0050104D01*
X0204492Y0050233D01*
X0204421Y0050363D01*
X0204354Y0050495D01*
X0204290Y0050629D01*
X0204230Y0050764D01*
X0204173Y0050902D01*
X0204121Y0051040D01*
X0204071Y0051180D01*
X0204026Y0051321D01*
X0203985Y0051464D01*
X0203947Y0051607D01*
X0203913Y0051752D01*
X0203884Y0051897D01*
X0203858Y0052043D01*
X0203836Y0052190D01*
X0203818Y0052337D01*
X0203804Y0052485D01*
X0203794Y0052633D01*
X0203788Y0052781D01*
X0203786Y0052929D01*
X0199246Y0042988D02*
X0191372Y0042988D01*
X0191372Y0062870D01*
X0199246Y0062870D01*
X0199246Y0042988D01*
X0350625Y0220252D02*
X0350627Y0220410D01*
X0350633Y0220568D01*
X0350643Y0220726D01*
X0350657Y0220884D01*
X0350675Y0221041D01*
X0350696Y0221198D01*
X0350722Y0221354D01*
X0350752Y0221510D01*
X0350785Y0221665D01*
X0350823Y0221818D01*
X0350864Y0221971D01*
X0350909Y0222123D01*
X0350958Y0222274D01*
X0351011Y0222423D01*
X0351067Y0222571D01*
X0351127Y0222717D01*
X0351191Y0222862D01*
X0351259Y0223005D01*
X0351330Y0223147D01*
X0351404Y0223287D01*
X0351482Y0223424D01*
X0351564Y0223560D01*
X0351648Y0223694D01*
X0351737Y0223825D01*
X0351828Y0223954D01*
X0351923Y0224081D01*
X0352020Y0224206D01*
X0352121Y0224328D01*
X0352225Y0224447D01*
X0352332Y0224564D01*
X0352442Y0224678D01*
X0352555Y0224789D01*
X0352670Y0224898D01*
X0352788Y0225003D01*
X0352909Y0225105D01*
X0353032Y0225205D01*
X0353158Y0225301D01*
X0353286Y0225394D01*
X0353416Y0225484D01*
X0353549Y0225570D01*
X0353684Y0225654D01*
X0353820Y0225733D01*
X0353959Y0225810D01*
X0354100Y0225882D01*
X0354242Y0225952D01*
X0354386Y0226017D01*
X0354532Y0226079D01*
X0354679Y0226137D01*
X0354828Y0226192D01*
X0354978Y0226243D01*
X0355129Y0226290D01*
X0355281Y0226333D01*
X0355434Y0226372D01*
X0355589Y0226408D01*
X0355744Y0226439D01*
X0355900Y0226467D01*
X0356056Y0226491D01*
X0356213Y0226511D01*
X0356371Y0226527D01*
X0356528Y0226539D01*
X0356687Y0226547D01*
X0356845Y0226551D01*
X0357003Y0226551D01*
X0357161Y0226547D01*
X0357320Y0226539D01*
X0357477Y0226527D01*
X0357635Y0226511D01*
X0357792Y0226491D01*
X0357948Y0226467D01*
X0358104Y0226439D01*
X0358259Y0226408D01*
X0358414Y0226372D01*
X0358567Y0226333D01*
X0358719Y0226290D01*
X0358870Y0226243D01*
X0359020Y0226192D01*
X0359169Y0226137D01*
X0359316Y0226079D01*
X0359462Y0226017D01*
X0359606Y0225952D01*
X0359748Y0225882D01*
X0359889Y0225810D01*
X0360028Y0225733D01*
X0360164Y0225654D01*
X0360299Y0225570D01*
X0360432Y0225484D01*
X0360562Y0225394D01*
X0360690Y0225301D01*
X0360816Y0225205D01*
X0360939Y0225105D01*
X0361060Y0225003D01*
X0361178Y0224898D01*
X0361293Y0224789D01*
X0361406Y0224678D01*
X0361516Y0224564D01*
X0361623Y0224447D01*
X0361727Y0224328D01*
X0361828Y0224206D01*
X0361925Y0224081D01*
X0362020Y0223954D01*
X0362111Y0223825D01*
X0362200Y0223694D01*
X0362284Y0223560D01*
X0362366Y0223424D01*
X0362444Y0223287D01*
X0362518Y0223147D01*
X0362589Y0223005D01*
X0362657Y0222862D01*
X0362721Y0222717D01*
X0362781Y0222571D01*
X0362837Y0222423D01*
X0362890Y0222274D01*
X0362939Y0222123D01*
X0362984Y0221971D01*
X0363025Y0221818D01*
X0363063Y0221665D01*
X0363096Y0221510D01*
X0363126Y0221354D01*
X0363152Y0221198D01*
X0363173Y0221041D01*
X0363191Y0220884D01*
X0363205Y0220726D01*
X0363215Y0220568D01*
X0363221Y0220410D01*
X0363223Y0220252D01*
X0363221Y0220094D01*
X0363215Y0219936D01*
X0363205Y0219778D01*
X0363191Y0219620D01*
X0363173Y0219463D01*
X0363152Y0219306D01*
X0363126Y0219150D01*
X0363096Y0218994D01*
X0363063Y0218839D01*
X0363025Y0218686D01*
X0362984Y0218533D01*
X0362939Y0218381D01*
X0362890Y0218230D01*
X0362837Y0218081D01*
X0362781Y0217933D01*
X0362721Y0217787D01*
X0362657Y0217642D01*
X0362589Y0217499D01*
X0362518Y0217357D01*
X0362444Y0217217D01*
X0362366Y0217080D01*
X0362284Y0216944D01*
X0362200Y0216810D01*
X0362111Y0216679D01*
X0362020Y0216550D01*
X0361925Y0216423D01*
X0361828Y0216298D01*
X0361727Y0216176D01*
X0361623Y0216057D01*
X0361516Y0215940D01*
X0361406Y0215826D01*
X0361293Y0215715D01*
X0361178Y0215606D01*
X0361060Y0215501D01*
X0360939Y0215399D01*
X0360816Y0215299D01*
X0360690Y0215203D01*
X0360562Y0215110D01*
X0360432Y0215020D01*
X0360299Y0214934D01*
X0360164Y0214850D01*
X0360028Y0214771D01*
X0359889Y0214694D01*
X0359748Y0214622D01*
X0359606Y0214552D01*
X0359462Y0214487D01*
X0359316Y0214425D01*
X0359169Y0214367D01*
X0359020Y0214312D01*
X0358870Y0214261D01*
X0358719Y0214214D01*
X0358567Y0214171D01*
X0358414Y0214132D01*
X0358259Y0214096D01*
X0358104Y0214065D01*
X0357948Y0214037D01*
X0357792Y0214013D01*
X0357635Y0213993D01*
X0357477Y0213977D01*
X0357320Y0213965D01*
X0357161Y0213957D01*
X0357003Y0213953D01*
X0356845Y0213953D01*
X0356687Y0213957D01*
X0356528Y0213965D01*
X0356371Y0213977D01*
X0356213Y0213993D01*
X0356056Y0214013D01*
X0355900Y0214037D01*
X0355744Y0214065D01*
X0355589Y0214096D01*
X0355434Y0214132D01*
X0355281Y0214171D01*
X0355129Y0214214D01*
X0354978Y0214261D01*
X0354828Y0214312D01*
X0354679Y0214367D01*
X0354532Y0214425D01*
X0354386Y0214487D01*
X0354242Y0214552D01*
X0354100Y0214622D01*
X0353959Y0214694D01*
X0353820Y0214771D01*
X0353684Y0214850D01*
X0353549Y0214934D01*
X0353416Y0215020D01*
X0353286Y0215110D01*
X0353158Y0215203D01*
X0353032Y0215299D01*
X0352909Y0215399D01*
X0352788Y0215501D01*
X0352670Y0215606D01*
X0352555Y0215715D01*
X0352442Y0215826D01*
X0352332Y0215940D01*
X0352225Y0216057D01*
X0352121Y0216176D01*
X0352020Y0216298D01*
X0351923Y0216423D01*
X0351828Y0216550D01*
X0351737Y0216679D01*
X0351648Y0216810D01*
X0351564Y0216944D01*
X0351482Y0217080D01*
X0351404Y0217217D01*
X0351330Y0217357D01*
X0351259Y0217499D01*
X0351191Y0217642D01*
X0351127Y0217787D01*
X0351067Y0217933D01*
X0351011Y0218081D01*
X0350958Y0218230D01*
X0350909Y0218381D01*
X0350864Y0218533D01*
X0350823Y0218686D01*
X0350785Y0218839D01*
X0350752Y0218994D01*
X0350722Y0219150D01*
X0350696Y0219306D01*
X0350675Y0219463D01*
X0350657Y0219620D01*
X0350643Y0219778D01*
X0350633Y0219936D01*
X0350627Y0220094D01*
X0350625Y0220252D01*
M02*
