G75*
%MOIN*%
%OFA0B0*%
%FSLAX25Y25*%
%IPPOS*%
%LPD*%
%AMOC8*
5,1,8,0,0,1.08239X$1,22.5*
%
%ADD10C,0.07050*%
%ADD11C,0.07400*%
%ADD12C,0.07000*%
%ADD13R,0.07000X0.07000*%
%ADD14R,0.06000X0.06000*%
%ADD15OC8,0.06000*%
%ADD16C,0.06600*%
%ADD17C,0.02400*%
%ADD18C,0.03962*%
%ADD19C,0.03569*%
%ADD20C,0.01600*%
%ADD21C,0.01200*%
D10*
X0098361Y0221924D02*
X0098361Y0228974D01*
X0118046Y0228974D02*
X0118046Y0221924D01*
X0137731Y0221924D02*
X0137731Y0228974D01*
X0157416Y0228974D02*
X0157416Y0221924D01*
X0362336Y0187969D02*
X0369386Y0187969D01*
X0369386Y0168283D02*
X0362336Y0168283D01*
X0362336Y0115331D02*
X0369386Y0115331D01*
X0369386Y0095646D02*
X0362336Y0095646D01*
D11*
X0068400Y0104780D03*
X0058400Y0109780D03*
X0068400Y0114780D03*
X0058400Y0119780D03*
X0068400Y0124780D03*
X0058400Y0099780D03*
X0058400Y0158047D03*
X0068400Y0163047D03*
X0058400Y0168047D03*
X0068400Y0173047D03*
X0058400Y0178047D03*
X0068400Y0183047D03*
D12*
X0164424Y0190921D03*
X0174424Y0190921D03*
X0184424Y0190921D03*
X0194424Y0190921D03*
X0204424Y0190921D03*
X0214424Y0190921D03*
X0224424Y0190921D03*
X0234424Y0190921D03*
X0244424Y0190921D03*
X0254424Y0190921D03*
X0264424Y0190921D03*
X0274424Y0190921D03*
X0284424Y0190921D03*
X0294424Y0190921D03*
X0294424Y0120921D03*
X0274424Y0120921D03*
X0264424Y0120921D03*
X0254424Y0120921D03*
X0244424Y0120921D03*
X0234424Y0120921D03*
X0224424Y0120921D03*
X0214424Y0120921D03*
X0204424Y0120921D03*
X0194424Y0120921D03*
X0184424Y0120921D03*
X0174424Y0120921D03*
X0164424Y0120921D03*
D13*
X0284424Y0120921D03*
D14*
X0246933Y0214740D03*
X0326017Y0231576D03*
X0104527Y0081364D03*
D15*
X0114527Y0081364D03*
X0124527Y0081364D03*
X0134527Y0081364D03*
X0144527Y0081364D03*
X0154527Y0081364D03*
X0164527Y0081364D03*
X0256933Y0214740D03*
X0266933Y0214740D03*
X0276933Y0214740D03*
X0286933Y0214740D03*
X0296933Y0214740D03*
X0316017Y0231576D03*
D16*
X0332995Y0220336D02*
X0332995Y0213736D01*
X0332995Y0170336D02*
X0332995Y0163736D01*
D17*
X0034026Y0036376D02*
X0029456Y0037419D01*
X0025232Y0039453D01*
X0021567Y0042376D01*
X0018644Y0046041D01*
X0016610Y0050264D01*
X0015567Y0054835D01*
X0015435Y0057179D01*
X0015435Y0225845D01*
X0015567Y0228189D01*
X0016610Y0232759D01*
X0018644Y0236983D01*
X0021567Y0240648D01*
X0025232Y0243571D01*
X0029456Y0245605D01*
X0034026Y0246648D01*
X0036370Y0246780D01*
X0042413Y0246780D01*
X0027053Y0231420D01*
X0026535Y0230170D01*
X0026535Y0225073D01*
X0026052Y0224589D01*
X0025354Y0222905D01*
X0025354Y0221083D01*
X0026052Y0219399D01*
X0027340Y0218110D01*
X0029024Y0217413D01*
X0030847Y0217413D01*
X0032530Y0218110D01*
X0033819Y0219399D01*
X0034517Y0221083D01*
X0034517Y0222905D01*
X0033819Y0224589D01*
X0033335Y0225073D01*
X0033335Y0228086D01*
X0034660Y0229411D01*
X0034660Y0215902D01*
X0034083Y0215325D01*
X0033399Y0215325D01*
X0031715Y0214628D01*
X0030427Y0213339D01*
X0029729Y0211655D01*
X0029729Y0209833D01*
X0030427Y0208149D01*
X0031715Y0206860D01*
X0033399Y0206163D01*
X0035222Y0206163D01*
X0036905Y0206860D01*
X0038194Y0208149D01*
X0038892Y0209833D01*
X0038892Y0210517D01*
X0039986Y0211612D01*
X0040943Y0212568D01*
X0041460Y0213818D01*
X0041460Y0217264D01*
X0042910Y0212090D01*
X0042910Y0212089D01*
X0045790Y0207354D01*
X0049840Y0203571D01*
X0054761Y0201022D01*
X0060187Y0199894D01*
X0060187Y0199894D01*
X0065716Y0200272D01*
X0065717Y0200272D01*
X0070939Y0202128D01*
X0075466Y0205324D01*
X0075466Y0205324D01*
X0075466Y0205324D01*
X0078964Y0209623D01*
X0078964Y0209623D01*
X0081172Y0214707D01*
X0081927Y0220197D01*
X0081172Y0225688D01*
X0078964Y0230771D01*
X0075466Y0235070D01*
X0071360Y0237969D01*
X0124152Y0237969D01*
X0131700Y0230421D01*
X0131606Y0230192D01*
X0131606Y0220705D01*
X0132538Y0218454D01*
X0134261Y0216731D01*
X0136512Y0215799D01*
X0138949Y0215799D01*
X0141200Y0216731D01*
X0142923Y0218454D01*
X0143856Y0220705D01*
X0143856Y0230192D01*
X0142923Y0232443D01*
X0141200Y0234166D01*
X0138949Y0235099D01*
X0136639Y0235099D01*
X0130019Y0241719D01*
X0139777Y0241719D01*
X0151295Y0230202D01*
X0151291Y0230192D01*
X0151291Y0220705D01*
X0152223Y0218454D01*
X0153946Y0216731D01*
X0156197Y0215799D01*
X0158634Y0215799D01*
X0160885Y0216731D01*
X0162608Y0218454D01*
X0163541Y0220705D01*
X0163541Y0230192D01*
X0162608Y0232443D01*
X0160885Y0234166D01*
X0158634Y0235099D01*
X0156197Y0235099D01*
X0156068Y0235045D01*
X0144333Y0246780D01*
X0381655Y0246780D01*
X0381656Y0246779D01*
X0382252Y0246780D01*
X0382253Y0246780D01*
X0384590Y0246650D01*
X0389147Y0245612D01*
X0393359Y0243587D01*
X0397015Y0240675D01*
X0399931Y0237022D01*
X0401961Y0232812D01*
X0403004Y0228256D01*
X0403136Y0225920D01*
X0403136Y0203195D01*
X0403099Y0202814D01*
X0402807Y0202111D01*
X0402269Y0201573D01*
X0401566Y0201282D01*
X0401185Y0201244D01*
X0399967Y0201244D01*
X0397716Y0200312D01*
X0397716Y0200312D01*
X0395993Y0198589D01*
X0395060Y0196337D01*
X0395060Y0160151D01*
X0395993Y0157900D01*
X0395993Y0157900D01*
X0397716Y0156177D01*
X0399967Y0155244D01*
X0402435Y0155244D01*
X0402582Y0155230D01*
X0402852Y0155118D01*
X0402852Y0155118D01*
X0403059Y0154911D01*
X0403171Y0154640D01*
X0403185Y0154494D01*
X0403185Y0130119D01*
X0403159Y0129851D01*
X0402954Y0129355D01*
X0402574Y0128976D01*
X0402079Y0128770D01*
X0401810Y0128744D01*
X0400468Y0128744D01*
X0397987Y0127716D01*
X0396088Y0125818D01*
X0396088Y0125818D01*
X0395060Y0123337D01*
X0395060Y0088652D01*
X0396183Y0085941D01*
X0398258Y0083867D01*
X0400968Y0082744D01*
X0402435Y0082744D01*
X0402582Y0082730D01*
X0402852Y0082618D01*
X0403059Y0082411D01*
X0403171Y0082140D01*
X0403185Y0081994D01*
X0403185Y0080746D01*
X0403137Y0057777D01*
X0403136Y0057772D01*
X0403136Y0057179D01*
X0403136Y0057175D01*
X0403007Y0054834D01*
X0401970Y0050268D01*
X0399943Y0046047D01*
X0397027Y0042384D01*
X0393369Y0039461D01*
X0389153Y0037425D01*
X0384589Y0036378D01*
X0382248Y0036244D01*
X0346195Y0036244D01*
X0345048Y0036334D01*
X0342865Y0037044D01*
X0341009Y0038392D01*
X0339660Y0040249D01*
X0338951Y0042431D01*
X0338861Y0043579D01*
X0338861Y0053722D01*
X0341141Y0049971D01*
X0341141Y0049971D01*
X0345192Y0046189D01*
X0345192Y0046189D01*
X0350113Y0043639D01*
X0355539Y0042511D01*
X0361068Y0042889D01*
X0366290Y0044745D01*
X0366290Y0044745D01*
X0370818Y0047941D01*
X0370818Y0047941D01*
X0370818Y0047941D01*
X0374316Y0052241D01*
X0376524Y0057324D01*
X0377278Y0062814D01*
X0376524Y0068305D01*
X0374316Y0073388D01*
X0374316Y0073388D01*
X0370818Y0077687D01*
X0366290Y0080883D01*
X0361068Y0082739D01*
X0355539Y0083118D01*
X0350113Y0081990D01*
X0350113Y0081990D01*
X0345192Y0079440D01*
X0345192Y0079440D01*
X0341141Y0075657D01*
X0338262Y0070922D01*
X0337372Y0067747D01*
X0337018Y0068602D01*
X0335785Y0069835D01*
X0334174Y0070502D01*
X0332429Y0070502D01*
X0330818Y0069835D01*
X0329585Y0068602D01*
X0328917Y0066990D01*
X0328917Y0065246D01*
X0329585Y0063635D01*
X0330597Y0062622D01*
X0295848Y0062622D01*
X0296861Y0063635D01*
X0297528Y0065246D01*
X0297528Y0066990D01*
X0296861Y0068602D01*
X0295628Y0069835D01*
X0294016Y0070502D01*
X0292272Y0070502D01*
X0290661Y0069835D01*
X0289427Y0068602D01*
X0288760Y0066990D01*
X0288760Y0065246D01*
X0289427Y0063635D01*
X0290661Y0062401D01*
X0291349Y0062116D01*
X0289661Y0061376D01*
X0289661Y0061376D01*
X0287569Y0059195D01*
X0286471Y0056380D01*
X0286502Y0054901D01*
X0286502Y0043579D01*
X0286412Y0042431D01*
X0285703Y0040249D01*
X0284354Y0038392D01*
X0282498Y0037044D01*
X0280315Y0036334D01*
X0279168Y0036244D01*
X0036370Y0036244D01*
X0034026Y0036376D01*
X0028164Y0038041D02*
X0283871Y0038041D01*
X0285765Y0040440D02*
X0228886Y0040440D01*
X0228899Y0040445D02*
X0229742Y0041289D01*
X0230199Y0042391D01*
X0230199Y0043585D01*
X0230199Y0063467D01*
X0229742Y0064569D01*
X0228899Y0065413D01*
X0227796Y0065870D01*
X0218728Y0065870D01*
X0217626Y0065413D01*
X0216782Y0064569D01*
X0216325Y0063467D01*
X0216325Y0063129D01*
X0202246Y0063129D01*
X0202246Y0063467D01*
X0201790Y0064569D01*
X0200946Y0065413D01*
X0199843Y0065870D01*
X0190776Y0065870D01*
X0189673Y0065413D01*
X0188829Y0064569D01*
X0188372Y0063467D01*
X0188372Y0042391D01*
X0188829Y0041289D01*
X0189673Y0040445D01*
X0190776Y0039988D01*
X0199843Y0039988D01*
X0200946Y0040445D01*
X0201790Y0041289D01*
X0202246Y0042391D01*
X0202246Y0042729D01*
X0216325Y0042729D01*
X0216325Y0042391D01*
X0216782Y0041289D01*
X0217626Y0040445D01*
X0218728Y0039988D01*
X0227796Y0039988D01*
X0228899Y0040445D01*
X0230199Y0042838D02*
X0286444Y0042838D01*
X0286502Y0045237D02*
X0230199Y0045237D01*
X0230199Y0047635D02*
X0286502Y0047635D01*
X0286502Y0050034D02*
X0230199Y0050034D01*
X0230199Y0052432D02*
X0286502Y0052432D01*
X0286502Y0054831D02*
X0266017Y0054831D01*
X0266794Y0055152D02*
X0268027Y0056386D01*
X0268695Y0057997D01*
X0268695Y0059741D01*
X0268027Y0061353D01*
X0267710Y0061669D01*
X0267710Y0065795D01*
X0267193Y0067045D01*
X0266236Y0068001D01*
X0261460Y0072777D01*
X0261460Y0103150D01*
X0273155Y0114844D01*
X0273210Y0114821D01*
X0275637Y0114821D01*
X0277879Y0115750D01*
X0278837Y0116708D01*
X0278874Y0116572D01*
X0279163Y0116070D01*
X0279573Y0115661D01*
X0280074Y0115371D01*
X0280634Y0115221D01*
X0284424Y0115221D01*
X0288213Y0115221D01*
X0288773Y0115371D01*
X0289274Y0115661D01*
X0289684Y0116070D01*
X0289974Y0116572D01*
X0290010Y0116708D01*
X0290968Y0115750D01*
X0292371Y0115169D01*
X0281680Y0115169D01*
X0280283Y0114591D01*
X0264658Y0098966D01*
X0263589Y0097897D01*
X0263010Y0096500D01*
X0263010Y0084673D01*
X0262927Y0084589D01*
X0262229Y0082905D01*
X0262229Y0081083D01*
X0262927Y0079399D01*
X0264215Y0078110D01*
X0265899Y0077413D01*
X0267722Y0077413D01*
X0269405Y0078110D01*
X0270694Y0079399D01*
X0271392Y0081083D01*
X0271392Y0082905D01*
X0270694Y0084589D01*
X0270610Y0084673D01*
X0270610Y0094170D01*
X0284009Y0107569D01*
X0295691Y0107569D01*
X0297088Y0108148D01*
X0298157Y0109217D01*
X0304588Y0115648D01*
X0305657Y0116717D01*
X0306235Y0118113D01*
X0306235Y0127125D01*
X0305657Y0128522D01*
X0298157Y0136022D01*
X0297088Y0137091D01*
X0295691Y0137669D01*
X0293735Y0137669D01*
X0293735Y0167440D01*
X0294444Y0168149D01*
X0294783Y0168968D01*
X0314634Y0188819D01*
X0319757Y0188819D01*
X0319840Y0188735D01*
X0321524Y0188038D01*
X0323347Y0188038D01*
X0325030Y0188735D01*
X0326319Y0190024D01*
X0327017Y0191708D01*
X0327017Y0193530D01*
X0326319Y0195214D01*
X0325030Y0196503D01*
X0323347Y0197200D01*
X0321524Y0197200D01*
X0319840Y0196503D01*
X0319757Y0196419D01*
X0312305Y0196419D01*
X0310908Y0195841D01*
X0290393Y0175325D01*
X0289649Y0175325D01*
X0287965Y0174628D01*
X0286677Y0173339D01*
X0285979Y0171655D01*
X0285979Y0169833D01*
X0286135Y0169456D01*
X0286135Y0135157D01*
X0285979Y0134780D01*
X0285979Y0132958D01*
X0286677Y0131274D01*
X0287965Y0129985D01*
X0289649Y0129288D01*
X0291472Y0129288D01*
X0293155Y0129985D01*
X0293239Y0130069D01*
X0293361Y0130069D01*
X0296955Y0126475D01*
X0295637Y0127021D01*
X0293210Y0127021D01*
X0290968Y0126093D01*
X0290010Y0125134D01*
X0289974Y0125270D01*
X0289684Y0125772D01*
X0289274Y0126182D01*
X0288773Y0126471D01*
X0288213Y0126621D01*
X0284424Y0126621D01*
X0284424Y0120921D01*
X0284424Y0115221D01*
X0284424Y0120921D01*
X0284424Y0120921D01*
X0284424Y0120921D01*
X0284424Y0126621D01*
X0280634Y0126621D01*
X0280074Y0126471D01*
X0279573Y0126182D01*
X0279163Y0125772D01*
X0278874Y0125270D01*
X0278837Y0125134D01*
X0277879Y0126093D01*
X0275637Y0127021D01*
X0273210Y0127021D01*
X0272916Y0126899D01*
X0273027Y0127011D01*
X0273695Y0128622D01*
X0273695Y0130366D01*
X0273027Y0131978D01*
X0272710Y0132294D01*
X0272710Y0138086D01*
X0277234Y0142610D01*
X0277683Y0142610D01*
X0279294Y0143277D01*
X0280527Y0144511D01*
X0281195Y0146122D01*
X0281195Y0147866D01*
X0280527Y0149478D01*
X0279294Y0150711D01*
X0277683Y0151378D01*
X0275938Y0151378D01*
X0274327Y0150711D01*
X0273094Y0149478D01*
X0272426Y0147866D01*
X0272426Y0147418D01*
X0266428Y0141420D01*
X0265910Y0140170D01*
X0265910Y0132294D01*
X0265594Y0131978D01*
X0264926Y0130366D01*
X0264926Y0128622D01*
X0265589Y0127021D01*
X0263210Y0127021D01*
X0260968Y0126093D01*
X0259424Y0124548D01*
X0257879Y0126093D01*
X0255637Y0127021D01*
X0253210Y0127021D01*
X0250968Y0126093D01*
X0249424Y0124548D01*
X0247879Y0126093D01*
X0245637Y0127021D01*
X0245332Y0127021D01*
X0256236Y0137926D01*
X0257193Y0138882D01*
X0257710Y0140132D01*
X0257710Y0177319D01*
X0258027Y0177636D01*
X0258695Y0179247D01*
X0258695Y0180991D01*
X0258027Y0182603D01*
X0256794Y0183836D01*
X0255183Y0184503D01*
X0253438Y0184503D01*
X0252789Y0184234D01*
X0252789Y0184996D01*
X0253210Y0184821D01*
X0255637Y0184821D01*
X0257879Y0185750D01*
X0259424Y0187295D01*
X0260968Y0185750D01*
X0263210Y0184821D01*
X0265637Y0184821D01*
X0267879Y0185750D01*
X0269424Y0187295D01*
X0270968Y0185750D01*
X0273210Y0184821D01*
X0275637Y0184821D01*
X0277879Y0185750D01*
X0279424Y0187295D01*
X0280968Y0185750D01*
X0283210Y0184821D01*
X0285637Y0184821D01*
X0287879Y0185750D01*
X0289424Y0187295D01*
X0290968Y0185750D01*
X0293210Y0184821D01*
X0295637Y0184821D01*
X0297879Y0185750D01*
X0299595Y0187466D01*
X0300524Y0189708D01*
X0300524Y0192135D01*
X0299595Y0194377D01*
X0298502Y0195469D01*
X0300242Y0195469D01*
X0300427Y0195024D01*
X0301715Y0193735D01*
X0303399Y0193038D01*
X0305222Y0193038D01*
X0306905Y0193735D01*
X0308194Y0195024D01*
X0308892Y0196708D01*
X0308892Y0198530D01*
X0308194Y0200214D01*
X0306905Y0201503D01*
X0305222Y0202200D01*
X0303903Y0202200D01*
X0303737Y0202269D01*
X0253009Y0202269D01*
X0251759Y0201751D01*
X0247463Y0197455D01*
X0246621Y0196613D01*
X0245637Y0197021D01*
X0243210Y0197021D01*
X0240968Y0196093D01*
X0239424Y0194548D01*
X0237879Y0196093D01*
X0235637Y0197021D01*
X0233210Y0197021D01*
X0230968Y0196093D01*
X0229424Y0194548D01*
X0227879Y0196093D01*
X0225637Y0197021D01*
X0223210Y0197021D01*
X0220968Y0196093D01*
X0219424Y0194548D01*
X0217879Y0196093D01*
X0215637Y0197021D01*
X0213210Y0197021D01*
X0210968Y0196093D01*
X0209424Y0194548D01*
X0207879Y0196093D01*
X0205637Y0197021D01*
X0203210Y0197021D01*
X0200968Y0196093D01*
X0199424Y0194548D01*
X0197879Y0196093D01*
X0195637Y0197021D01*
X0193210Y0197021D01*
X0190968Y0196093D01*
X0189424Y0194548D01*
X0187879Y0196093D01*
X0185637Y0197021D01*
X0183210Y0197021D01*
X0180968Y0196093D01*
X0179424Y0194548D01*
X0177879Y0196093D01*
X0175637Y0197021D01*
X0173210Y0197021D01*
X0170968Y0196093D01*
X0169424Y0194548D01*
X0167879Y0196093D01*
X0165637Y0197021D01*
X0163210Y0197021D01*
X0160968Y0196093D01*
X0159252Y0194377D01*
X0158324Y0192135D01*
X0158324Y0189708D01*
X0159252Y0187466D01*
X0160968Y0185750D01*
X0163210Y0184821D01*
X0165637Y0184821D01*
X0167879Y0185750D01*
X0169424Y0187295D01*
X0170968Y0185750D01*
X0173210Y0184821D01*
X0175637Y0184821D01*
X0177879Y0185750D01*
X0179424Y0187295D01*
X0180968Y0185750D01*
X0183210Y0184821D01*
X0185637Y0184821D01*
X0187879Y0185750D01*
X0189424Y0187295D01*
X0190968Y0185750D01*
X0193210Y0184821D01*
X0195637Y0184821D01*
X0197879Y0185750D01*
X0199424Y0187295D01*
X0200968Y0185750D01*
X0203210Y0184821D01*
X0205637Y0184821D01*
X0207879Y0185750D01*
X0209424Y0187295D01*
X0210968Y0185750D01*
X0213210Y0184821D01*
X0215637Y0184821D01*
X0217879Y0185750D01*
X0219424Y0187295D01*
X0220968Y0185750D01*
X0223210Y0184821D01*
X0225637Y0184821D01*
X0227879Y0185750D01*
X0229424Y0187295D01*
X0230968Y0185750D01*
X0233210Y0184821D01*
X0235637Y0184821D01*
X0237879Y0185750D01*
X0239424Y0187295D01*
X0240968Y0185750D01*
X0243210Y0184821D01*
X0245637Y0184821D01*
X0245989Y0184967D01*
X0245989Y0170029D01*
X0245320Y0169360D01*
X0244653Y0167749D01*
X0244653Y0166005D01*
X0245320Y0164393D01*
X0245756Y0163957D01*
X0245163Y0164203D01*
X0243340Y0164203D01*
X0241656Y0163506D01*
X0240368Y0162217D01*
X0239670Y0160533D01*
X0239670Y0158711D01*
X0240368Y0157027D01*
X0240851Y0156543D01*
X0240851Y0142157D01*
X0225692Y0126998D01*
X0225637Y0127021D01*
X0223210Y0127021D01*
X0220968Y0126093D01*
X0219424Y0124548D01*
X0217879Y0126093D01*
X0215637Y0127021D01*
X0213210Y0127021D01*
X0210968Y0126093D01*
X0209424Y0124548D01*
X0207879Y0126093D01*
X0205637Y0127021D01*
X0203210Y0127021D01*
X0200968Y0126093D01*
X0199424Y0124548D01*
X0197879Y0126093D01*
X0195637Y0127021D01*
X0193210Y0127021D01*
X0190968Y0126093D01*
X0189424Y0124548D01*
X0187879Y0126093D01*
X0187824Y0126116D01*
X0187824Y0131324D01*
X0192818Y0136318D01*
X0193335Y0137568D01*
X0193335Y0152319D01*
X0193652Y0152636D01*
X0194320Y0154247D01*
X0194320Y0155991D01*
X0193652Y0157603D01*
X0192419Y0158836D01*
X0190808Y0159503D01*
X0189063Y0159503D01*
X0187452Y0158836D01*
X0186219Y0157603D01*
X0185551Y0155991D01*
X0185551Y0154247D01*
X0186219Y0152636D01*
X0186535Y0152319D01*
X0186535Y0139652D01*
X0182498Y0135615D01*
X0181541Y0134658D01*
X0181024Y0133409D01*
X0181024Y0126116D01*
X0180968Y0126093D01*
X0179424Y0124548D01*
X0177879Y0126093D01*
X0177824Y0126116D01*
X0177824Y0139449D01*
X0180984Y0142610D01*
X0181433Y0142610D01*
X0183044Y0143277D01*
X0184277Y0144511D01*
X0184945Y0146122D01*
X0184945Y0147866D01*
X0184277Y0149478D01*
X0183044Y0150711D01*
X0181433Y0151378D01*
X0179688Y0151378D01*
X0178077Y0150711D01*
X0176844Y0149478D01*
X0176176Y0147866D01*
X0176176Y0147418D01*
X0172498Y0143740D01*
X0172498Y0143740D01*
X0171541Y0142783D01*
X0171024Y0141534D01*
X0171024Y0126116D01*
X0170968Y0126093D01*
X0169424Y0124548D01*
X0167879Y0126093D01*
X0165637Y0127021D01*
X0163210Y0127021D01*
X0160968Y0126093D01*
X0159252Y0124377D01*
X0158324Y0122135D01*
X0158324Y0119708D01*
X0159252Y0117466D01*
X0160968Y0115750D01*
X0163210Y0114821D01*
X0165637Y0114821D01*
X0167879Y0115750D01*
X0169424Y0117295D01*
X0170968Y0115750D01*
X0173210Y0114821D01*
X0175637Y0114821D01*
X0177879Y0115750D01*
X0179424Y0117295D01*
X0180968Y0115750D01*
X0183210Y0114821D01*
X0185637Y0114821D01*
X0187879Y0115750D01*
X0189424Y0117295D01*
X0190968Y0115750D01*
X0193210Y0114821D01*
X0195637Y0114821D01*
X0197879Y0115750D01*
X0199424Y0117295D01*
X0200968Y0115750D01*
X0201161Y0115670D01*
X0199969Y0114478D01*
X0199301Y0112866D01*
X0199301Y0111122D01*
X0199969Y0109511D01*
X0201202Y0108277D01*
X0202813Y0107610D01*
X0204558Y0107610D01*
X0206169Y0108277D01*
X0207402Y0109511D01*
X0208058Y0111094D01*
X0238737Y0111094D01*
X0239986Y0111612D01*
X0243200Y0114825D01*
X0243210Y0114821D01*
X0245637Y0114821D01*
X0247879Y0115750D01*
X0249424Y0117295D01*
X0250968Y0115750D01*
X0253210Y0114821D01*
X0255454Y0114821D01*
X0248928Y0108295D01*
X0248410Y0107045D01*
X0248410Y0069443D01*
X0248928Y0068193D01*
X0249884Y0067237D01*
X0252426Y0064695D01*
X0252426Y0064247D01*
X0253094Y0062636D01*
X0254327Y0061402D01*
X0255938Y0060735D01*
X0257683Y0060735D01*
X0259294Y0061402D01*
X0260527Y0062636D01*
X0260910Y0063561D01*
X0260910Y0061669D01*
X0260594Y0061353D01*
X0259926Y0059741D01*
X0259926Y0057997D01*
X0260594Y0056386D01*
X0261827Y0055152D01*
X0263438Y0054485D01*
X0265183Y0054485D01*
X0266794Y0055152D01*
X0268377Y0057229D02*
X0286803Y0057229D01*
X0286471Y0056380D02*
X0286471Y0056380D01*
X0287569Y0059195D02*
X0287569Y0059195D01*
X0287984Y0059628D02*
X0268695Y0059628D01*
X0267710Y0062026D02*
X0279328Y0062026D01*
X0278719Y0062636D02*
X0279952Y0061402D01*
X0281563Y0060735D01*
X0283308Y0060735D01*
X0284919Y0061402D01*
X0286152Y0062636D01*
X0286820Y0064247D01*
X0286820Y0065991D01*
X0286152Y0067603D01*
X0285835Y0067919D01*
X0285835Y0088711D01*
X0289469Y0092344D01*
X0309362Y0092344D01*
X0310611Y0092862D01*
X0311568Y0093818D01*
X0314986Y0097237D01*
X0315943Y0098193D01*
X0316460Y0099443D01*
X0316460Y0110411D01*
X0317188Y0110110D01*
X0318933Y0110110D01*
X0320544Y0110777D01*
X0320861Y0111094D01*
X0327760Y0111094D01*
X0328077Y0110777D01*
X0329688Y0110110D01*
X0331433Y0110110D01*
X0333044Y0110777D01*
X0334277Y0112011D01*
X0334945Y0113622D01*
X0334945Y0115366D01*
X0334277Y0116978D01*
X0333044Y0118211D01*
X0331433Y0118878D01*
X0329688Y0118878D01*
X0328077Y0118211D01*
X0327760Y0117894D01*
X0320861Y0117894D01*
X0320544Y0118211D01*
X0318933Y0118878D01*
X0318283Y0118878D01*
X0318695Y0119872D01*
X0318695Y0121616D01*
X0318027Y0123228D01*
X0316794Y0124461D01*
X0315183Y0125128D01*
X0313438Y0125128D01*
X0311827Y0124461D01*
X0310594Y0123228D01*
X0309926Y0121616D01*
X0309926Y0120812D01*
X0309660Y0120170D01*
X0309660Y0105408D01*
X0309210Y0105859D01*
X0307599Y0106526D01*
X0305855Y0106526D01*
X0304243Y0105859D01*
X0303010Y0104625D01*
X0302343Y0103014D01*
X0302343Y0101270D01*
X0303010Y0099658D01*
X0303524Y0099144D01*
X0287384Y0099144D01*
X0286134Y0098626D01*
X0285178Y0097670D01*
X0279553Y0092045D01*
X0279035Y0090795D01*
X0279035Y0067919D01*
X0278719Y0067603D01*
X0278051Y0065991D01*
X0278051Y0064247D01*
X0278719Y0062636D01*
X0278051Y0064425D02*
X0267710Y0064425D01*
X0267285Y0066823D02*
X0278396Y0066823D01*
X0279035Y0069222D02*
X0265016Y0069222D01*
X0262618Y0071620D02*
X0279035Y0071620D01*
X0279035Y0074019D02*
X0261460Y0074019D01*
X0261460Y0076417D02*
X0279035Y0076417D01*
X0279035Y0078816D02*
X0270111Y0078816D01*
X0271392Y0081214D02*
X0279035Y0081214D01*
X0279035Y0083613D02*
X0271098Y0083613D01*
X0270610Y0086011D02*
X0279035Y0086011D01*
X0279035Y0088410D02*
X0270610Y0088410D01*
X0270610Y0090808D02*
X0279041Y0090808D01*
X0280715Y0093207D02*
X0270610Y0093207D01*
X0272046Y0095605D02*
X0283113Y0095605D01*
X0285512Y0098004D02*
X0274444Y0098004D01*
X0276843Y0100402D02*
X0302702Y0100402D01*
X0302343Y0102801D02*
X0279241Y0102801D01*
X0281640Y0105199D02*
X0303584Y0105199D01*
X0309660Y0107598D02*
X0295761Y0107598D01*
X0298157Y0109217D02*
X0298157Y0109217D01*
X0298937Y0109996D02*
X0309660Y0109996D01*
X0309660Y0112395D02*
X0301335Y0112395D01*
X0303734Y0114793D02*
X0309660Y0114793D01*
X0309660Y0117192D02*
X0305854Y0117192D01*
X0304588Y0115648D02*
X0304588Y0115648D01*
X0302435Y0118869D02*
X0294935Y0111369D01*
X0282435Y0111369D01*
X0266810Y0095744D01*
X0266810Y0081994D01*
X0263510Y0078816D02*
X0261460Y0078816D01*
X0261460Y0081214D02*
X0262229Y0081214D01*
X0262522Y0083613D02*
X0261460Y0083613D01*
X0261460Y0086011D02*
X0263010Y0086011D01*
X0263010Y0088410D02*
X0261460Y0088410D01*
X0261460Y0090808D02*
X0263010Y0090808D01*
X0263010Y0093207D02*
X0261460Y0093207D01*
X0261460Y0095605D02*
X0263010Y0095605D01*
X0263696Y0098004D02*
X0261460Y0098004D01*
X0261460Y0100402D02*
X0266095Y0100402D01*
X0264658Y0098966D02*
X0264658Y0098966D01*
X0261460Y0102801D02*
X0268493Y0102801D01*
X0270892Y0105199D02*
X0263510Y0105199D01*
X0265909Y0107598D02*
X0273290Y0107598D01*
X0275689Y0109996D02*
X0268307Y0109996D01*
X0270706Y0112395D02*
X0278087Y0112395D01*
X0280773Y0114793D02*
X0273104Y0114793D01*
X0284424Y0117192D02*
X0284424Y0117192D01*
X0284424Y0119591D02*
X0284424Y0119591D01*
X0284424Y0121989D02*
X0284424Y0121989D01*
X0284424Y0124388D02*
X0284424Y0124388D01*
X0292642Y0126786D02*
X0276205Y0126786D01*
X0273695Y0129185D02*
X0294246Y0129185D01*
X0296205Y0126786D02*
X0296644Y0126786D01*
X0302435Y0126369D02*
X0294935Y0133869D01*
X0290560Y0133869D01*
X0289935Y0134494D01*
X0289935Y0170119D01*
X0290560Y0170744D01*
X0291185Y0170744D01*
X0313060Y0192619D01*
X0322435Y0192619D01*
X0325442Y0189147D02*
X0356211Y0189147D01*
X0356211Y0189187D02*
X0356211Y0186750D01*
X0357143Y0184499D01*
X0358866Y0182776D01*
X0361117Y0181844D01*
X0370604Y0181844D01*
X0372855Y0182776D01*
X0374578Y0184499D01*
X0375511Y0186750D01*
X0375511Y0189187D01*
X0374578Y0191438D01*
X0372855Y0193161D01*
X0370604Y0194093D01*
X0361117Y0194093D01*
X0358866Y0193161D01*
X0357143Y0191438D01*
X0356211Y0189187D01*
X0356211Y0186749D02*
X0312564Y0186749D01*
X0310166Y0184350D02*
X0357292Y0184350D01*
X0360856Y0181952D02*
X0307767Y0181952D01*
X0305369Y0179553D02*
X0395060Y0179553D01*
X0395060Y0177155D02*
X0302970Y0177155D01*
X0300572Y0174756D02*
X0329072Y0174756D01*
X0329653Y0175338D02*
X0327993Y0173678D01*
X0327095Y0171510D01*
X0327095Y0162562D01*
X0327993Y0160394D01*
X0329653Y0158734D01*
X0331822Y0157836D01*
X0334169Y0157836D01*
X0336337Y0158734D01*
X0337997Y0160394D01*
X0338895Y0162562D01*
X0338895Y0171510D01*
X0337997Y0173678D01*
X0336337Y0175338D01*
X0334169Y0176236D01*
X0331822Y0176236D01*
X0329653Y0175338D01*
X0327447Y0172358D02*
X0298173Y0172358D01*
X0295775Y0169959D02*
X0327095Y0169959D01*
X0327095Y0167561D02*
X0293856Y0167561D01*
X0293735Y0165162D02*
X0327095Y0165162D01*
X0327095Y0162764D02*
X0293735Y0162764D01*
X0293735Y0160365D02*
X0328022Y0160365D01*
X0331506Y0157967D02*
X0293735Y0157967D01*
X0293735Y0155568D02*
X0339080Y0155568D01*
X0339476Y0155965D02*
X0338632Y0155121D01*
X0338176Y0154018D01*
X0338176Y0144950D01*
X0338632Y0143848D01*
X0339476Y0143004D01*
X0340579Y0142547D01*
X0341772Y0142547D01*
X0358997Y0142547D01*
X0360099Y0143004D01*
X0360943Y0143848D01*
X0361400Y0144950D01*
X0361400Y0154018D01*
X0360943Y0155121D01*
X0360099Y0155965D01*
X0358997Y0156421D01*
X0340579Y0156421D01*
X0339476Y0155965D01*
X0338176Y0153170D02*
X0304614Y0153170D01*
X0304405Y0153378D02*
X0302722Y0154075D01*
X0300899Y0154075D01*
X0299215Y0153378D01*
X0297927Y0152089D01*
X0297229Y0150405D01*
X0297229Y0148583D01*
X0297927Y0146899D01*
X0299215Y0145610D01*
X0300899Y0144913D01*
X0301018Y0144913D01*
X0314214Y0131717D01*
X0315283Y0130648D01*
X0316680Y0130069D01*
X0317882Y0130069D01*
X0317965Y0129985D01*
X0319649Y0129288D01*
X0321472Y0129288D01*
X0323155Y0129985D01*
X0324444Y0131274D01*
X0325142Y0132958D01*
X0325142Y0134780D01*
X0324444Y0136464D01*
X0323155Y0137753D01*
X0321472Y0138450D01*
X0319649Y0138450D01*
X0318644Y0138034D01*
X0306392Y0150287D01*
X0306392Y0150405D01*
X0305694Y0152089D01*
X0304405Y0153378D01*
X0306240Y0150771D02*
X0338176Y0150771D01*
X0338176Y0148373D02*
X0308306Y0148373D01*
X0310704Y0145974D02*
X0338176Y0145974D01*
X0338905Y0143576D02*
X0313103Y0143576D01*
X0315501Y0141177D02*
X0403185Y0141177D01*
X0403185Y0138779D02*
X0361189Y0138779D01*
X0361400Y0138270D02*
X0360943Y0139373D01*
X0360099Y0140216D01*
X0358997Y0140673D01*
X0340579Y0140673D01*
X0339476Y0140216D01*
X0338632Y0139373D01*
X0338176Y0138270D01*
X0338176Y0129202D01*
X0338632Y0128100D01*
X0339476Y0127256D01*
X0340579Y0126799D01*
X0358997Y0126799D01*
X0360099Y0127256D01*
X0360943Y0128100D01*
X0361400Y0129202D01*
X0361400Y0138270D01*
X0361400Y0136380D02*
X0403185Y0136380D01*
X0403185Y0133982D02*
X0361400Y0133982D01*
X0361400Y0131583D02*
X0403185Y0131583D01*
X0402783Y0129185D02*
X0361393Y0129185D01*
X0361117Y0121456D02*
X0358866Y0120523D01*
X0357143Y0118800D01*
X0356211Y0116549D01*
X0356211Y0114112D01*
X0357143Y0111861D01*
X0358866Y0110138D01*
X0361117Y0109206D01*
X0370604Y0109206D01*
X0372855Y0110138D01*
X0374578Y0111861D01*
X0375511Y0114112D01*
X0375511Y0116549D01*
X0374578Y0118800D01*
X0372855Y0120523D01*
X0370604Y0121456D01*
X0361117Y0121456D01*
X0357933Y0119591D02*
X0318578Y0119591D01*
X0318540Y0121989D02*
X0395060Y0121989D01*
X0395060Y0119591D02*
X0373788Y0119591D01*
X0375244Y0117192D02*
X0395060Y0117192D01*
X0395060Y0114793D02*
X0375511Y0114793D01*
X0374799Y0112395D02*
X0395060Y0112395D01*
X0395060Y0109996D02*
X0372513Y0109996D01*
X0370726Y0101230D02*
X0369836Y0101371D01*
X0365861Y0101371D01*
X0365861Y0095646D01*
X0375111Y0095646D01*
X0375111Y0096096D01*
X0374970Y0096986D01*
X0374691Y0097843D01*
X0374282Y0098646D01*
X0373752Y0099375D01*
X0373115Y0100012D01*
X0372386Y0100542D01*
X0371583Y0100951D01*
X0370726Y0101230D01*
X0372578Y0100402D02*
X0395060Y0100402D01*
X0395060Y0098004D02*
X0374609Y0098004D01*
X0375111Y0095646D02*
X0365861Y0095646D01*
X0365861Y0095646D01*
X0365861Y0095646D01*
X0365861Y0101371D01*
X0361885Y0101371D01*
X0360995Y0101230D01*
X0360138Y0100951D01*
X0359335Y0100542D01*
X0358606Y0100012D01*
X0357969Y0099375D01*
X0357439Y0098646D01*
X0357030Y0097843D01*
X0356752Y0096986D01*
X0356611Y0096096D01*
X0356611Y0095646D01*
X0365860Y0095646D01*
X0365860Y0095646D01*
X0356611Y0095646D01*
X0356611Y0095195D01*
X0356752Y0094305D01*
X0357030Y0093448D01*
X0357439Y0092645D01*
X0357969Y0091916D01*
X0358606Y0091279D01*
X0359335Y0090749D01*
X0360138Y0090340D01*
X0360995Y0090062D01*
X0361885Y0089921D01*
X0365861Y0089921D01*
X0369836Y0089921D01*
X0370726Y0090062D01*
X0371583Y0090340D01*
X0372386Y0090749D01*
X0373115Y0091279D01*
X0373752Y0091916D01*
X0374282Y0092645D01*
X0374691Y0093448D01*
X0374970Y0094305D01*
X0375111Y0095195D01*
X0375111Y0095646D01*
X0375111Y0095605D02*
X0395060Y0095605D01*
X0395060Y0093207D02*
X0374568Y0093207D01*
X0372468Y0090808D02*
X0395060Y0090808D01*
X0395161Y0088410D02*
X0285835Y0088410D01*
X0285835Y0086011D02*
X0396154Y0086011D01*
X0396183Y0085941D02*
X0396183Y0085941D01*
X0398258Y0083867D02*
X0398258Y0083867D01*
X0398871Y0083613D02*
X0285835Y0083613D01*
X0285835Y0081214D02*
X0348616Y0081214D01*
X0344523Y0078816D02*
X0285835Y0078816D01*
X0285835Y0076417D02*
X0341955Y0076417D01*
X0341141Y0075657D02*
X0341141Y0075657D01*
X0340145Y0074019D02*
X0285835Y0074019D01*
X0285835Y0071620D02*
X0338686Y0071620D01*
X0338262Y0070922D02*
X0338262Y0070922D01*
X0337785Y0069222D02*
X0336398Y0069222D01*
X0330205Y0069222D02*
X0296241Y0069222D01*
X0297528Y0066823D02*
X0328917Y0066823D01*
X0329257Y0064425D02*
X0297188Y0064425D01*
X0291143Y0062026D02*
X0285543Y0062026D01*
X0286820Y0064425D02*
X0289100Y0064425D01*
X0288760Y0066823D02*
X0286475Y0066823D01*
X0285835Y0069222D02*
X0290047Y0069222D01*
X0260910Y0062026D02*
X0259918Y0062026D01*
X0259926Y0059628D02*
X0230199Y0059628D01*
X0230199Y0062026D02*
X0253703Y0062026D01*
X0252426Y0064425D02*
X0229802Y0064425D01*
X0230199Y0057229D02*
X0260244Y0057229D01*
X0262603Y0054831D02*
X0230199Y0054831D01*
X0216722Y0064425D02*
X0201850Y0064425D01*
X0188769Y0064425D02*
X0081778Y0064425D01*
X0082005Y0062775D02*
X0081250Y0068266D01*
X0079042Y0073349D01*
X0079042Y0073349D01*
X0075545Y0077648D01*
X0075545Y0077648D01*
X0071017Y0080844D01*
X0065795Y0082700D01*
X0065795Y0082700D01*
X0060265Y0083079D01*
X0054839Y0081951D01*
X0049918Y0079401D01*
X0045868Y0075618D01*
X0042988Y0070883D01*
X0041493Y0065546D01*
X0041493Y0060004D01*
X0042988Y0054668D01*
X0045868Y0049932D01*
X0049918Y0046149D01*
X0054839Y0043600D01*
X0060265Y0042472D01*
X0065795Y0042850D01*
X0071017Y0044706D01*
X0075545Y0047902D01*
X0079042Y0052201D01*
X0079042Y0052201D01*
X0081250Y0057285D01*
X0082005Y0062775D01*
X0081902Y0062026D02*
X0188372Y0062026D01*
X0188372Y0059628D02*
X0081572Y0059628D01*
X0081250Y0057285D02*
X0081250Y0057285D01*
X0081226Y0057229D02*
X0188372Y0057229D01*
X0188372Y0054831D02*
X0080184Y0054831D01*
X0079142Y0052432D02*
X0188372Y0052432D01*
X0188372Y0050034D02*
X0077279Y0050034D01*
X0075545Y0047902D02*
X0075545Y0047902D01*
X0075545Y0047902D01*
X0075166Y0047635D02*
X0188372Y0047635D01*
X0188372Y0045237D02*
X0071768Y0045237D01*
X0071017Y0044706D02*
X0071017Y0044706D01*
X0065616Y0042838D02*
X0188372Y0042838D01*
X0189686Y0040440D02*
X0023995Y0040440D01*
X0021198Y0042838D02*
X0058504Y0042838D01*
X0051680Y0045237D02*
X0019285Y0045237D01*
X0017876Y0047635D02*
X0048328Y0047635D01*
X0045868Y0049932D02*
X0045868Y0049932D01*
X0045868Y0049932D01*
X0045806Y0050034D02*
X0016721Y0050034D01*
X0016115Y0052432D02*
X0044348Y0052432D01*
X0042988Y0054668D02*
X0042988Y0054668D01*
X0042943Y0054831D02*
X0015568Y0054831D01*
X0015435Y0057229D02*
X0042271Y0057229D01*
X0041599Y0059628D02*
X0015435Y0059628D01*
X0015435Y0062026D02*
X0041493Y0062026D01*
X0041493Y0064425D02*
X0015435Y0064425D01*
X0015435Y0066823D02*
X0041851Y0066823D01*
X0042523Y0069222D02*
X0015435Y0069222D01*
X0015435Y0071620D02*
X0043437Y0071620D01*
X0042988Y0070883D02*
X0042988Y0070883D01*
X0044895Y0074019D02*
X0015435Y0074019D01*
X0015435Y0076417D02*
X0046723Y0076417D01*
X0045868Y0075618D02*
X0045868Y0075618D01*
X0049292Y0078816D02*
X0015435Y0078816D01*
X0015435Y0081214D02*
X0053418Y0081214D01*
X0054839Y0081951D02*
X0054839Y0081951D01*
X0049918Y0079401D02*
X0049918Y0079401D01*
X0060265Y0083079D02*
X0060265Y0083079D01*
X0069976Y0081214D02*
X0098927Y0081214D01*
X0098927Y0078816D02*
X0073891Y0078816D01*
X0071017Y0080844D02*
X0071017Y0080844D01*
X0076546Y0076417D02*
X0099797Y0076417D01*
X0100054Y0076160D02*
X0101010Y0075764D01*
X0108044Y0075764D01*
X0109000Y0076160D01*
X0109731Y0076891D01*
X0110126Y0077845D01*
X0112207Y0075764D01*
X0116847Y0075764D01*
X0119527Y0078445D01*
X0122207Y0075764D01*
X0126847Y0075764D01*
X0129810Y0078727D01*
X0132373Y0076164D01*
X0134527Y0076164D01*
X0136681Y0076164D01*
X0139244Y0078727D01*
X0142207Y0075764D01*
X0146847Y0075764D01*
X0149527Y0078445D01*
X0152207Y0075764D01*
X0156847Y0075764D01*
X0159527Y0078445D01*
X0162207Y0075764D01*
X0166847Y0075764D01*
X0170127Y0079045D01*
X0170127Y0083684D01*
X0166847Y0086964D01*
X0162207Y0086964D01*
X0159527Y0084284D01*
X0156847Y0086964D01*
X0152207Y0086964D01*
X0149527Y0084284D01*
X0146847Y0086964D01*
X0142207Y0086964D01*
X0139244Y0084001D01*
X0136681Y0086564D01*
X0134527Y0086564D01*
X0134527Y0081364D01*
X0134527Y0076164D01*
X0134527Y0081364D01*
X0134527Y0081364D01*
X0134527Y0081364D01*
X0134527Y0086564D01*
X0132373Y0086564D01*
X0129810Y0084001D01*
X0126847Y0086964D01*
X0122207Y0086964D01*
X0119527Y0084284D01*
X0116847Y0086964D01*
X0112207Y0086964D01*
X0110126Y0084883D01*
X0109731Y0085837D01*
X0109000Y0086568D01*
X0108044Y0086964D01*
X0101010Y0086964D01*
X0100054Y0086568D01*
X0099323Y0085837D01*
X0098927Y0084881D01*
X0098927Y0077847D01*
X0099323Y0076891D01*
X0100054Y0076160D01*
X0109257Y0076417D02*
X0111554Y0076417D01*
X0117500Y0076417D02*
X0121554Y0076417D01*
X0127500Y0076417D02*
X0132120Y0076417D01*
X0134527Y0076417D02*
X0134527Y0076417D01*
X0134527Y0078816D02*
X0134527Y0078816D01*
X0134527Y0081214D02*
X0134527Y0081214D01*
X0134527Y0083613D02*
X0134527Y0083613D01*
X0134527Y0086011D02*
X0134527Y0086011D01*
X0137234Y0086011D02*
X0141255Y0086011D01*
X0147799Y0086011D02*
X0151255Y0086011D01*
X0157799Y0086011D02*
X0161255Y0086011D01*
X0167799Y0086011D02*
X0248410Y0086011D01*
X0248410Y0083613D02*
X0170127Y0083613D01*
X0170127Y0081214D02*
X0248410Y0081214D01*
X0248410Y0078816D02*
X0169898Y0078816D01*
X0167500Y0076417D02*
X0248410Y0076417D01*
X0248410Y0074019D02*
X0078497Y0074019D01*
X0079793Y0071620D02*
X0248410Y0071620D01*
X0248502Y0069222D02*
X0080835Y0069222D01*
X0081250Y0068266D02*
X0081250Y0068266D01*
X0081448Y0066823D02*
X0250298Y0066823D01*
X0248410Y0088410D02*
X0041972Y0088410D01*
X0041369Y0086955D02*
X0042800Y0090410D01*
X0042800Y0094149D01*
X0041369Y0097604D01*
X0038725Y0100248D01*
X0035270Y0101680D01*
X0031530Y0101680D01*
X0028075Y0100248D01*
X0025431Y0097604D01*
X0024000Y0094149D01*
X0024000Y0090410D01*
X0025431Y0086955D01*
X0028075Y0084311D01*
X0031530Y0082880D01*
X0035270Y0082880D01*
X0038725Y0084311D01*
X0041369Y0086955D01*
X0040425Y0086011D02*
X0099497Y0086011D01*
X0098927Y0083613D02*
X0037040Y0083613D01*
X0029760Y0083613D02*
X0015435Y0083613D01*
X0015435Y0086011D02*
X0026375Y0086011D01*
X0024828Y0088410D02*
X0015435Y0088410D01*
X0015435Y0090808D02*
X0024000Y0090808D01*
X0024000Y0093207D02*
X0015435Y0093207D01*
X0015435Y0095605D02*
X0024603Y0095605D01*
X0025831Y0098004D02*
X0015435Y0098004D01*
X0015435Y0100402D02*
X0028447Y0100402D01*
X0038353Y0100402D02*
X0052100Y0100402D01*
X0052100Y0101033D02*
X0052100Y0098526D01*
X0053059Y0096211D01*
X0054831Y0094439D01*
X0057147Y0093480D01*
X0059653Y0093480D01*
X0061969Y0094439D01*
X0063741Y0096211D01*
X0064700Y0098526D01*
X0064700Y0099570D01*
X0064831Y0099439D01*
X0067147Y0098480D01*
X0069653Y0098480D01*
X0071969Y0099439D01*
X0073741Y0101211D01*
X0074700Y0103526D01*
X0074700Y0106033D01*
X0073741Y0108348D01*
X0072310Y0109780D01*
X0073741Y0111211D01*
X0074700Y0113526D01*
X0074700Y0116033D01*
X0073741Y0118348D01*
X0072310Y0119780D01*
X0073741Y0121211D01*
X0074700Y0123526D01*
X0074700Y0126033D01*
X0073741Y0128348D01*
X0071969Y0130120D01*
X0069653Y0131080D01*
X0067147Y0131080D01*
X0064831Y0130120D01*
X0063059Y0128348D01*
X0062100Y0126033D01*
X0062100Y0124989D01*
X0061969Y0125120D01*
X0059653Y0126080D01*
X0057147Y0126080D01*
X0054831Y0125120D01*
X0053059Y0123348D01*
X0052100Y0121033D01*
X0052100Y0118526D01*
X0053059Y0116211D01*
X0054490Y0114780D01*
X0053059Y0113348D01*
X0052100Y0111033D01*
X0052100Y0108526D01*
X0053059Y0106211D01*
X0054490Y0104780D01*
X0053059Y0103348D01*
X0052100Y0101033D01*
X0052832Y0102801D02*
X0015435Y0102801D01*
X0015435Y0105199D02*
X0054071Y0105199D01*
X0052485Y0107598D02*
X0015435Y0107598D01*
X0015435Y0109996D02*
X0052100Y0109996D01*
X0052664Y0112395D02*
X0015435Y0112395D01*
X0015435Y0114793D02*
X0054477Y0114793D01*
X0052653Y0117192D02*
X0015435Y0117192D01*
X0015435Y0119591D02*
X0052100Y0119591D01*
X0052496Y0121989D02*
X0015435Y0121989D01*
X0015435Y0124388D02*
X0027998Y0124388D01*
X0028075Y0124311D02*
X0031530Y0122880D01*
X0035270Y0122880D01*
X0038725Y0124311D01*
X0041369Y0126955D01*
X0042800Y0130410D01*
X0042800Y0134149D01*
X0041369Y0137604D01*
X0038725Y0140248D01*
X0035912Y0141413D01*
X0038725Y0142578D01*
X0041369Y0145223D01*
X0042800Y0148677D01*
X0042800Y0152417D01*
X0041369Y0155872D01*
X0038725Y0158516D01*
X0035270Y0159947D01*
X0031530Y0159947D01*
X0028075Y0158516D01*
X0025431Y0155872D01*
X0024000Y0152417D01*
X0024000Y0148677D01*
X0025431Y0145223D01*
X0028075Y0142578D01*
X0030888Y0141413D01*
X0028075Y0140248D01*
X0025431Y0137604D01*
X0024000Y0134149D01*
X0024000Y0130410D01*
X0025431Y0126955D01*
X0028075Y0124311D01*
X0025600Y0126786D02*
X0015435Y0126786D01*
X0015435Y0129185D02*
X0024507Y0129185D01*
X0024000Y0131583D02*
X0015435Y0131583D01*
X0015435Y0133982D02*
X0024000Y0133982D01*
X0024924Y0136380D02*
X0015435Y0136380D01*
X0015435Y0138779D02*
X0026605Y0138779D01*
X0030317Y0141177D02*
X0015435Y0141177D01*
X0015435Y0143576D02*
X0027078Y0143576D01*
X0025120Y0145974D02*
X0015435Y0145974D01*
X0015435Y0148373D02*
X0024126Y0148373D01*
X0024000Y0150771D02*
X0015435Y0150771D01*
X0015435Y0153170D02*
X0024312Y0153170D01*
X0025305Y0155568D02*
X0015435Y0155568D01*
X0015435Y0157967D02*
X0027526Y0157967D01*
X0015435Y0160365D02*
X0052541Y0160365D01*
X0052100Y0159300D02*
X0053059Y0161616D01*
X0054490Y0163047D01*
X0053059Y0164479D01*
X0052100Y0166794D01*
X0052100Y0169300D01*
X0053059Y0171616D01*
X0054490Y0173047D01*
X0053059Y0174479D01*
X0052100Y0176794D01*
X0052100Y0179300D01*
X0053059Y0181616D01*
X0054831Y0183388D01*
X0057147Y0184347D01*
X0059653Y0184347D01*
X0061969Y0183388D01*
X0062100Y0183257D01*
X0062100Y0184300D01*
X0063059Y0186616D01*
X0064831Y0188388D01*
X0067147Y0189347D01*
X0069653Y0189347D01*
X0071969Y0188388D01*
X0073741Y0186616D01*
X0074700Y0184300D01*
X0074700Y0181794D01*
X0073741Y0179479D01*
X0072310Y0178047D01*
X0073741Y0176616D01*
X0074700Y0174300D01*
X0074700Y0171794D01*
X0073741Y0169479D01*
X0072310Y0168047D01*
X0073741Y0166616D01*
X0074700Y0164300D01*
X0074700Y0161794D01*
X0073741Y0159479D01*
X0071969Y0157706D01*
X0069653Y0156747D01*
X0067147Y0156747D01*
X0064831Y0157706D01*
X0064700Y0157838D01*
X0064700Y0156794D01*
X0063741Y0154479D01*
X0061969Y0152706D01*
X0059653Y0151747D01*
X0057147Y0151747D01*
X0054831Y0152706D01*
X0053059Y0154479D01*
X0052100Y0156794D01*
X0052100Y0159300D01*
X0052100Y0157967D02*
X0039274Y0157967D01*
X0041495Y0155568D02*
X0052608Y0155568D01*
X0054368Y0153170D02*
X0042488Y0153170D01*
X0042800Y0150771D02*
X0084435Y0150771D01*
X0084435Y0148373D02*
X0042674Y0148373D01*
X0041680Y0145974D02*
X0084435Y0145974D01*
X0084435Y0144950D02*
X0084892Y0143848D01*
X0085736Y0143004D01*
X0086839Y0142547D01*
X0088032Y0142547D01*
X0105257Y0142547D01*
X0106359Y0143004D01*
X0107203Y0143848D01*
X0107660Y0144950D01*
X0107660Y0154018D01*
X0107203Y0155121D01*
X0106359Y0155965D01*
X0105257Y0156421D01*
X0086839Y0156421D01*
X0085736Y0155965D01*
X0084892Y0155121D01*
X0084435Y0154018D01*
X0084435Y0144950D01*
X0085164Y0143576D02*
X0039722Y0143576D01*
X0036483Y0141177D02*
X0149660Y0141177D01*
X0149660Y0138779D02*
X0107449Y0138779D01*
X0107660Y0138270D02*
X0107203Y0139373D01*
X0106359Y0140216D01*
X0105257Y0140673D01*
X0086839Y0140673D01*
X0085736Y0140216D01*
X0084892Y0139373D01*
X0084435Y0138270D01*
X0084435Y0129202D01*
X0084892Y0128100D01*
X0085736Y0127256D01*
X0086839Y0126799D01*
X0088032Y0126799D01*
X0105257Y0126799D01*
X0106359Y0127256D01*
X0107203Y0128100D01*
X0107660Y0129202D01*
X0107660Y0138270D01*
X0107660Y0136380D02*
X0149660Y0136380D01*
X0149660Y0135068D02*
X0150178Y0133818D01*
X0151134Y0132862D01*
X0152229Y0131767D01*
X0152229Y0131083D01*
X0152927Y0129399D01*
X0154215Y0128110D01*
X0155899Y0127413D01*
X0157722Y0127413D01*
X0159405Y0128110D01*
X0160694Y0129399D01*
X0161392Y0131083D01*
X0161392Y0132905D01*
X0160694Y0134589D01*
X0159405Y0135878D01*
X0157722Y0136575D01*
X0157038Y0136575D01*
X0156460Y0137152D01*
X0156460Y0198915D01*
X0156944Y0199399D01*
X0157642Y0201083D01*
X0157642Y0202905D01*
X0156944Y0204589D01*
X0155655Y0205878D01*
X0153972Y0206575D01*
X0152149Y0206575D01*
X0150465Y0205878D01*
X0149177Y0204589D01*
X0148479Y0202905D01*
X0148479Y0201083D01*
X0149177Y0199399D01*
X0149660Y0198915D01*
X0149660Y0135068D01*
X0150110Y0133982D02*
X0107660Y0133982D01*
X0107660Y0131583D02*
X0152229Y0131583D01*
X0153141Y0129185D02*
X0107652Y0129185D01*
X0084646Y0138779D02*
X0040195Y0138779D01*
X0041876Y0136380D02*
X0084435Y0136380D01*
X0084435Y0133982D02*
X0042800Y0133982D01*
X0042800Y0131583D02*
X0084435Y0131583D01*
X0084443Y0129185D02*
X0072905Y0129185D01*
X0074388Y0126786D02*
X0162642Y0126786D01*
X0160480Y0129185D02*
X0171024Y0129185D01*
X0171024Y0131583D02*
X0161392Y0131583D01*
X0160946Y0133982D02*
X0171024Y0133982D01*
X0171024Y0136380D02*
X0158193Y0136380D01*
X0156460Y0138779D02*
X0171024Y0138779D01*
X0171024Y0141177D02*
X0156460Y0141177D01*
X0156460Y0143576D02*
X0172334Y0143576D01*
X0174732Y0145974D02*
X0156460Y0145974D01*
X0156460Y0148373D02*
X0176386Y0148373D01*
X0178222Y0150771D02*
X0156460Y0150771D01*
X0156460Y0153170D02*
X0185997Y0153170D01*
X0185551Y0155568D02*
X0156460Y0155568D01*
X0156460Y0157967D02*
X0186583Y0157967D01*
X0193288Y0157967D02*
X0201030Y0157967D01*
X0201801Y0157195D02*
X0198261Y0160735D01*
X0196563Y0160735D01*
X0194952Y0161402D01*
X0193719Y0162636D01*
X0193051Y0164247D01*
X0193051Y0165991D01*
X0193719Y0167603D01*
X0194952Y0168836D01*
X0196563Y0169503D01*
X0198308Y0169503D01*
X0199919Y0168836D01*
X0201152Y0167603D01*
X0201253Y0167360D01*
X0201568Y0167045D01*
X0206609Y0162003D01*
X0207058Y0162003D01*
X0208669Y0161336D01*
X0209506Y0160499D01*
X0208989Y0161747D01*
X0208989Y0162195D01*
X0205136Y0166047D01*
X0204688Y0166047D01*
X0203077Y0166715D01*
X0201844Y0167948D01*
X0201176Y0169559D01*
X0201176Y0171304D01*
X0201844Y0172915D01*
X0203077Y0174148D01*
X0204688Y0174816D01*
X0206433Y0174816D01*
X0208044Y0174148D01*
X0209277Y0172915D01*
X0209945Y0171304D01*
X0209945Y0170856D01*
X0213797Y0167003D01*
X0214245Y0167003D01*
X0215856Y0166336D01*
X0217090Y0165103D01*
X0217757Y0163491D01*
X0217757Y0161747D01*
X0217090Y0160136D01*
X0215856Y0158902D01*
X0214245Y0158235D01*
X0212501Y0158235D01*
X0210889Y0158902D01*
X0210053Y0159739D01*
X0210570Y0158491D01*
X0210570Y0156747D01*
X0209902Y0155136D01*
X0208669Y0153902D01*
X0207058Y0153235D01*
X0205313Y0153235D01*
X0203702Y0153902D01*
X0202469Y0155136D01*
X0201801Y0156747D01*
X0201801Y0157195D01*
X0202289Y0155568D02*
X0194320Y0155568D01*
X0193873Y0153170D02*
X0240851Y0153170D01*
X0240851Y0155568D02*
X0210081Y0155568D01*
X0210570Y0157967D02*
X0239978Y0157967D01*
X0239670Y0160365D02*
X0217185Y0160365D01*
X0217757Y0162764D02*
X0240914Y0162764D01*
X0245002Y0165162D02*
X0217030Y0165162D01*
X0213240Y0167561D02*
X0244653Y0167561D01*
X0245919Y0169959D02*
X0210841Y0169959D01*
X0209508Y0172358D02*
X0245989Y0172358D01*
X0245989Y0174756D02*
X0206576Y0174756D01*
X0204545Y0174756D02*
X0156460Y0174756D01*
X0156460Y0172358D02*
X0201613Y0172358D01*
X0201176Y0169959D02*
X0156460Y0169959D01*
X0156460Y0167561D02*
X0193701Y0167561D01*
X0193051Y0165162D02*
X0156460Y0165162D01*
X0156460Y0162764D02*
X0193666Y0162764D01*
X0198631Y0160365D02*
X0156460Y0160365D01*
X0149660Y0160365D02*
X0143960Y0160365D01*
X0143960Y0159443D02*
X0143960Y0199194D01*
X0144277Y0199511D01*
X0144945Y0201122D01*
X0144945Y0202866D01*
X0144277Y0204478D01*
X0143044Y0205711D01*
X0141433Y0206378D01*
X0139688Y0206378D01*
X0138077Y0205711D01*
X0136844Y0204478D01*
X0136176Y0202866D01*
X0136176Y0201122D01*
X0136844Y0199511D01*
X0137160Y0199194D01*
X0137160Y0161527D01*
X0137011Y0161378D01*
X0136563Y0161378D01*
X0134952Y0160711D01*
X0133719Y0159478D01*
X0133051Y0157866D01*
X0133051Y0156122D01*
X0133719Y0154511D01*
X0134952Y0153277D01*
X0136563Y0152610D01*
X0138308Y0152610D01*
X0139919Y0153277D01*
X0141152Y0154511D01*
X0141820Y0156122D01*
X0141820Y0156570D01*
X0142486Y0157237D01*
X0143443Y0158193D01*
X0143960Y0159443D01*
X0143216Y0157967D02*
X0149660Y0157967D01*
X0149660Y0155568D02*
X0141590Y0155568D01*
X0139659Y0153170D02*
X0149660Y0153170D01*
X0149660Y0150771D02*
X0107660Y0150771D01*
X0107660Y0148373D02*
X0149660Y0148373D01*
X0149660Y0145974D02*
X0107660Y0145974D01*
X0106931Y0143576D02*
X0149660Y0143576D01*
X0135212Y0153170D02*
X0107660Y0153170D01*
X0106756Y0155568D02*
X0133281Y0155568D01*
X0133093Y0157967D02*
X0072229Y0157967D01*
X0074108Y0160365D02*
X0134606Y0160365D01*
X0137160Y0162764D02*
X0074700Y0162764D01*
X0074343Y0165162D02*
X0137160Y0165162D01*
X0137160Y0167561D02*
X0072796Y0167561D01*
X0073940Y0169959D02*
X0137160Y0169959D01*
X0137160Y0172358D02*
X0074700Y0172358D01*
X0074511Y0174756D02*
X0137160Y0174756D01*
X0137160Y0177155D02*
X0073202Y0177155D01*
X0073772Y0179553D02*
X0137160Y0179553D01*
X0137160Y0181952D02*
X0074700Y0181952D01*
X0074679Y0184350D02*
X0137160Y0184350D01*
X0137160Y0186749D02*
X0073608Y0186749D01*
X0070136Y0189147D02*
X0137160Y0189147D01*
X0137160Y0191546D02*
X0042800Y0191546D01*
X0042800Y0192417D02*
X0041369Y0195872D01*
X0038725Y0198516D01*
X0035270Y0199947D01*
X0031530Y0199947D01*
X0028075Y0198516D01*
X0025431Y0195872D01*
X0024000Y0192417D01*
X0024000Y0188677D01*
X0025431Y0185223D01*
X0028075Y0182578D01*
X0031530Y0181147D01*
X0035270Y0181147D01*
X0038725Y0182578D01*
X0041369Y0185223D01*
X0042800Y0188677D01*
X0042800Y0192417D01*
X0042167Y0193944D02*
X0137160Y0193944D01*
X0137160Y0196343D02*
X0040898Y0196343D01*
X0038181Y0198741D02*
X0137160Y0198741D01*
X0136176Y0201140D02*
X0068158Y0201140D01*
X0070939Y0202128D02*
X0070939Y0202128D01*
X0072936Y0203538D02*
X0136455Y0203538D01*
X0138623Y0205937D02*
X0075965Y0205937D01*
X0077916Y0208335D02*
X0331934Y0208335D01*
X0331707Y0208371D02*
X0332562Y0208236D01*
X0332995Y0208236D01*
X0332995Y0217036D01*
X0332995Y0217036D01*
X0327495Y0217036D01*
X0327495Y0220769D01*
X0327631Y0221624D01*
X0327898Y0222447D01*
X0328291Y0223219D01*
X0328800Y0223919D01*
X0329412Y0224531D01*
X0330113Y0225040D01*
X0330884Y0225433D01*
X0331707Y0225700D01*
X0332562Y0225836D01*
X0332995Y0225836D01*
X0332995Y0217036D01*
X0332995Y0217036D01*
X0327495Y0217036D01*
X0327495Y0213303D01*
X0327631Y0212448D01*
X0327898Y0211625D01*
X0328291Y0210853D01*
X0328800Y0210153D01*
X0329412Y0209541D01*
X0330113Y0209032D01*
X0330884Y0208639D01*
X0331707Y0208371D01*
X0332995Y0208335D02*
X0332995Y0208335D01*
X0332995Y0208236D02*
X0333428Y0208236D01*
X0334283Y0208371D01*
X0335106Y0208639D01*
X0335878Y0209032D01*
X0336578Y0209541D01*
X0337190Y0210153D01*
X0337699Y0210853D01*
X0338092Y0211625D01*
X0338244Y0212093D01*
X0341102Y0207393D01*
X0345153Y0203610D01*
X0350074Y0201061D01*
X0355500Y0199933D01*
X0361029Y0200311D01*
X0366251Y0202167D01*
X0366251Y0202167D01*
X0370779Y0205363D01*
X0370779Y0205363D01*
X0370779Y0205363D01*
X0374277Y0209662D01*
X0374277Y0209662D01*
X0376485Y0214746D01*
X0377239Y0220236D01*
X0376485Y0225727D01*
X0374277Y0230810D01*
X0370779Y0235109D01*
X0370779Y0235109D01*
X0366251Y0238305D01*
X0361029Y0240161D01*
X0355500Y0240539D01*
X0350074Y0239412D01*
X0350074Y0239412D01*
X0345153Y0236862D01*
X0345153Y0236862D01*
X0341102Y0233079D01*
X0338223Y0228344D01*
X0337028Y0224081D01*
X0336578Y0224531D01*
X0335878Y0225040D01*
X0335106Y0225433D01*
X0334283Y0225700D01*
X0333428Y0225836D01*
X0332995Y0225836D01*
X0332995Y0217036D01*
X0332995Y0217036D01*
X0332995Y0208236D01*
X0334056Y0208335D02*
X0340529Y0208335D01*
X0341102Y0207393D02*
X0341102Y0207393D01*
X0341102Y0207393D01*
X0342662Y0205937D02*
X0155513Y0205937D01*
X0157379Y0203538D02*
X0345292Y0203538D01*
X0345153Y0203610D02*
X0345153Y0203610D01*
X0349921Y0201140D02*
X0307268Y0201140D01*
X0308804Y0198741D02*
X0396146Y0198741D01*
X0395993Y0198589D02*
X0395993Y0198589D01*
X0395063Y0196343D02*
X0325190Y0196343D01*
X0326845Y0193944D02*
X0360757Y0193944D01*
X0357251Y0191546D02*
X0326949Y0191546D01*
X0312121Y0196343D02*
X0308740Y0196343D01*
X0309012Y0193944D02*
X0307114Y0193944D01*
X0306613Y0191546D02*
X0300524Y0191546D01*
X0300291Y0189147D02*
X0304215Y0189147D01*
X0301816Y0186749D02*
X0298878Y0186749D01*
X0299418Y0184350D02*
X0255552Y0184350D01*
X0253069Y0184350D02*
X0252789Y0184350D01*
X0245989Y0184350D02*
X0156460Y0184350D01*
X0156460Y0181952D02*
X0245989Y0181952D01*
X0245989Y0179553D02*
X0156460Y0179553D01*
X0156460Y0177155D02*
X0245989Y0177155D01*
X0257710Y0177155D02*
X0292222Y0177155D01*
X0294621Y0179553D02*
X0258695Y0179553D01*
X0258297Y0181952D02*
X0297019Y0181952D01*
X0289969Y0186749D02*
X0288878Y0186749D01*
X0279969Y0186749D02*
X0278878Y0186749D01*
X0269969Y0186749D02*
X0268878Y0186749D01*
X0259969Y0186749D02*
X0258878Y0186749D01*
X0257710Y0174756D02*
X0288276Y0174756D01*
X0286270Y0172358D02*
X0257710Y0172358D01*
X0257710Y0169959D02*
X0285979Y0169959D01*
X0286135Y0167561D02*
X0257710Y0167561D01*
X0257710Y0165162D02*
X0286135Y0165162D01*
X0286135Y0162764D02*
X0257710Y0162764D01*
X0257710Y0160365D02*
X0286135Y0160365D01*
X0286135Y0157967D02*
X0257710Y0157967D01*
X0257710Y0155568D02*
X0286135Y0155568D01*
X0286135Y0153170D02*
X0257710Y0153170D01*
X0257710Y0150771D02*
X0274472Y0150771D01*
X0272636Y0148373D02*
X0257710Y0148373D01*
X0257710Y0145974D02*
X0270982Y0145974D01*
X0268584Y0143576D02*
X0257710Y0143576D01*
X0257710Y0141177D02*
X0266327Y0141177D01*
X0265910Y0138779D02*
X0257089Y0138779D01*
X0254691Y0136380D02*
X0265910Y0136380D01*
X0265910Y0133982D02*
X0252292Y0133982D01*
X0249894Y0131583D02*
X0265430Y0131583D01*
X0264926Y0129185D02*
X0247495Y0129185D01*
X0246205Y0126786D02*
X0252642Y0126786D01*
X0256205Y0126786D02*
X0262642Y0126786D01*
X0273191Y0131583D02*
X0286549Y0131583D01*
X0285979Y0133982D02*
X0272710Y0133982D01*
X0272710Y0136380D02*
X0286135Y0136380D01*
X0286135Y0138779D02*
X0273403Y0138779D01*
X0275802Y0141177D02*
X0286135Y0141177D01*
X0286135Y0143576D02*
X0279592Y0143576D01*
X0281133Y0145974D02*
X0286135Y0145974D01*
X0286135Y0148373D02*
X0280985Y0148373D01*
X0279148Y0150771D02*
X0286135Y0150771D01*
X0293735Y0150771D02*
X0297381Y0150771D01*
X0297316Y0148373D02*
X0293735Y0148373D01*
X0293735Y0145974D02*
X0298852Y0145974D01*
X0302355Y0143576D02*
X0293735Y0143576D01*
X0293735Y0141177D02*
X0304753Y0141177D01*
X0307152Y0138779D02*
X0293735Y0138779D01*
X0297798Y0136380D02*
X0309550Y0136380D01*
X0311949Y0133982D02*
X0300197Y0133982D01*
X0302595Y0131583D02*
X0314347Y0131583D01*
X0317435Y0133869D02*
X0320560Y0133869D01*
X0317435Y0133869D02*
X0301810Y0149494D01*
X0299007Y0153170D02*
X0293735Y0153170D01*
X0317900Y0138779D02*
X0338386Y0138779D01*
X0338176Y0136380D02*
X0324479Y0136380D01*
X0325142Y0133982D02*
X0338176Y0133982D01*
X0338176Y0131583D02*
X0324572Y0131583D01*
X0316867Y0124388D02*
X0395496Y0124388D01*
X0397056Y0126786D02*
X0306235Y0126786D01*
X0306235Y0124388D02*
X0311754Y0124388D01*
X0310081Y0121989D02*
X0306235Y0121989D01*
X0306235Y0119591D02*
X0309660Y0119591D01*
X0302435Y0118869D02*
X0302435Y0126369D01*
X0304994Y0129185D02*
X0338183Y0129185D01*
X0334063Y0117192D02*
X0356477Y0117192D01*
X0356211Y0114793D02*
X0334945Y0114793D01*
X0334436Y0112395D02*
X0356922Y0112395D01*
X0359208Y0109996D02*
X0316460Y0109996D01*
X0316460Y0107598D02*
X0395060Y0107598D01*
X0395060Y0105199D02*
X0316460Y0105199D01*
X0316460Y0102801D02*
X0395060Y0102801D01*
X0403185Y0081214D02*
X0365359Y0081214D01*
X0366290Y0080883D02*
X0366290Y0080883D01*
X0369219Y0078816D02*
X0403181Y0078816D01*
X0403176Y0076417D02*
X0371851Y0076417D01*
X0370818Y0077687D02*
X0370818Y0077687D01*
X0373803Y0074019D02*
X0403171Y0074019D01*
X0403166Y0071620D02*
X0375084Y0071620D01*
X0376125Y0069222D02*
X0403161Y0069222D01*
X0403156Y0066823D02*
X0376727Y0066823D01*
X0376524Y0068305D02*
X0376524Y0068305D01*
X0377057Y0064425D02*
X0403151Y0064425D01*
X0403146Y0062026D02*
X0377170Y0062026D01*
X0376840Y0059628D02*
X0403141Y0059628D01*
X0403136Y0057229D02*
X0376482Y0057229D01*
X0376524Y0057324D02*
X0376524Y0057324D01*
X0375441Y0054831D02*
X0403006Y0054831D01*
X0402462Y0052432D02*
X0374399Y0052432D01*
X0374316Y0052241D02*
X0374316Y0052241D01*
X0372520Y0050034D02*
X0401857Y0050034D01*
X0400705Y0047635D02*
X0370384Y0047635D01*
X0366986Y0045237D02*
X0399297Y0045237D01*
X0397389Y0042838D02*
X0360318Y0042838D01*
X0361068Y0042889D02*
X0361068Y0042889D01*
X0355539Y0042511D02*
X0355539Y0042511D01*
X0353966Y0042838D02*
X0338919Y0042838D01*
X0338861Y0045237D02*
X0347029Y0045237D01*
X0350113Y0043639D02*
X0350113Y0043639D01*
X0343643Y0047635D02*
X0338861Y0047635D01*
X0338861Y0050034D02*
X0341103Y0050034D01*
X0339645Y0052432D02*
X0338861Y0052432D01*
X0339598Y0040440D02*
X0394594Y0040440D01*
X0390430Y0038041D02*
X0341492Y0038041D01*
X0273685Y0046369D02*
X0271810Y0046369D01*
X0217639Y0040440D02*
X0200933Y0040440D01*
X0161554Y0076417D02*
X0157500Y0076417D01*
X0151554Y0076417D02*
X0147500Y0076417D01*
X0141554Y0076417D02*
X0136934Y0076417D01*
X0131820Y0086011D02*
X0127799Y0086011D01*
X0121255Y0086011D02*
X0117799Y0086011D01*
X0111255Y0086011D02*
X0109557Y0086011D01*
X0074399Y0102801D02*
X0248410Y0102801D01*
X0248410Y0105199D02*
X0074700Y0105199D01*
X0074052Y0107598D02*
X0248639Y0107598D01*
X0250629Y0109996D02*
X0207603Y0109996D01*
X0199767Y0109996D02*
X0072526Y0109996D01*
X0074231Y0112395D02*
X0199301Y0112395D01*
X0200285Y0114793D02*
X0074700Y0114793D01*
X0074220Y0117192D02*
X0159526Y0117192D01*
X0158372Y0119591D02*
X0072499Y0119591D01*
X0074063Y0121989D02*
X0158324Y0121989D01*
X0159263Y0124388D02*
X0074700Y0124388D01*
X0063895Y0129185D02*
X0042292Y0129185D01*
X0041200Y0126786D02*
X0062412Y0126786D01*
X0054098Y0124388D02*
X0038802Y0124388D01*
X0072932Y0100402D02*
X0248410Y0100402D01*
X0248410Y0098004D02*
X0064484Y0098004D01*
X0063135Y0095605D02*
X0248410Y0095605D01*
X0248410Y0093207D02*
X0042800Y0093207D01*
X0042800Y0090808D02*
X0248410Y0090808D01*
X0253028Y0112395D02*
X0240770Y0112395D01*
X0243168Y0114793D02*
X0255427Y0114793D01*
X0249526Y0117192D02*
X0249321Y0117192D01*
X0232676Y0133982D02*
X0190481Y0133982D01*
X0192843Y0136380D02*
X0235074Y0136380D01*
X0237473Y0138779D02*
X0193335Y0138779D01*
X0193335Y0141177D02*
X0239871Y0141177D01*
X0240851Y0143576D02*
X0193335Y0143576D01*
X0193335Y0145974D02*
X0240851Y0145974D01*
X0240851Y0148373D02*
X0193335Y0148373D01*
X0193335Y0150771D02*
X0240851Y0150771D01*
X0230277Y0131583D02*
X0188083Y0131583D01*
X0187824Y0129185D02*
X0227879Y0129185D01*
X0222642Y0126786D02*
X0216205Y0126786D01*
X0212642Y0126786D02*
X0206205Y0126786D01*
X0202642Y0126786D02*
X0196205Y0126786D01*
X0192642Y0126786D02*
X0187824Y0126786D01*
X0181024Y0126786D02*
X0177824Y0126786D01*
X0177824Y0129185D02*
X0181024Y0129185D01*
X0181024Y0131583D02*
X0177824Y0131583D01*
X0177824Y0133982D02*
X0181261Y0133982D01*
X0183263Y0136380D02*
X0177824Y0136380D01*
X0177824Y0138779D02*
X0185662Y0138779D01*
X0186535Y0141177D02*
X0179552Y0141177D01*
X0183342Y0143576D02*
X0186535Y0143576D01*
X0186535Y0145974D02*
X0184883Y0145974D01*
X0184735Y0148373D02*
X0186535Y0148373D01*
X0186535Y0150771D02*
X0182898Y0150771D01*
X0203451Y0165162D02*
X0206021Y0165162D01*
X0205849Y0162764D02*
X0208420Y0162764D01*
X0202231Y0167561D02*
X0201170Y0167561D01*
X0199969Y0186749D02*
X0198878Y0186749D01*
X0189969Y0186749D02*
X0188878Y0186749D01*
X0179969Y0186749D02*
X0178878Y0186749D01*
X0169969Y0186749D02*
X0168878Y0186749D01*
X0159969Y0186749D02*
X0156460Y0186749D01*
X0156460Y0189147D02*
X0158556Y0189147D01*
X0158324Y0191546D02*
X0156460Y0191546D01*
X0156460Y0193944D02*
X0159073Y0193944D01*
X0161572Y0196343D02*
X0156460Y0196343D01*
X0156460Y0198741D02*
X0248749Y0198741D01*
X0251148Y0201140D02*
X0157642Y0201140D01*
X0149660Y0198741D02*
X0143960Y0198741D01*
X0143960Y0196343D02*
X0149660Y0196343D01*
X0149660Y0193944D02*
X0143960Y0193944D01*
X0143960Y0191546D02*
X0149660Y0191546D01*
X0149660Y0189147D02*
X0143960Y0189147D01*
X0143960Y0186749D02*
X0149660Y0186749D01*
X0149660Y0184350D02*
X0143960Y0184350D01*
X0143960Y0181952D02*
X0149660Y0181952D01*
X0149660Y0179553D02*
X0143960Y0179553D01*
X0143960Y0177155D02*
X0149660Y0177155D01*
X0149660Y0174756D02*
X0143960Y0174756D01*
X0143960Y0172358D02*
X0149660Y0172358D01*
X0149660Y0169959D02*
X0143960Y0169959D01*
X0143960Y0167561D02*
X0149660Y0167561D01*
X0149660Y0165162D02*
X0143960Y0165162D01*
X0143960Y0162764D02*
X0149660Y0162764D01*
X0167275Y0196343D02*
X0171572Y0196343D01*
X0177275Y0196343D02*
X0181572Y0196343D01*
X0187275Y0196343D02*
X0191572Y0196343D01*
X0197275Y0196343D02*
X0201572Y0196343D01*
X0207275Y0196343D02*
X0211572Y0196343D01*
X0217275Y0196343D02*
X0221572Y0196343D01*
X0227275Y0196343D02*
X0231572Y0196343D01*
X0237275Y0196343D02*
X0241572Y0196343D01*
X0239969Y0186749D02*
X0238878Y0186749D01*
X0229969Y0186749D02*
X0228878Y0186749D01*
X0219969Y0186749D02*
X0218878Y0186749D01*
X0209969Y0186749D02*
X0208878Y0186749D01*
X0242173Y0210389D02*
X0242583Y0209980D01*
X0243084Y0209690D01*
X0243644Y0209540D01*
X0246933Y0209540D01*
X0246933Y0214740D01*
X0241733Y0214740D01*
X0241733Y0211451D01*
X0241883Y0210891D01*
X0242173Y0210389D01*
X0241974Y0210734D02*
X0079446Y0210734D01*
X0080488Y0213132D02*
X0241733Y0213132D01*
X0241733Y0214740D02*
X0246933Y0214740D01*
X0246933Y0214740D01*
X0246934Y0214740D01*
X0246934Y0209540D01*
X0250223Y0209540D01*
X0250783Y0209690D01*
X0251284Y0209980D01*
X0251694Y0210389D01*
X0251984Y0210891D01*
X0252133Y0211451D01*
X0252133Y0211621D01*
X0254614Y0209140D01*
X0259253Y0209140D01*
X0261933Y0211821D01*
X0264614Y0209140D01*
X0269253Y0209140D01*
X0271933Y0211821D01*
X0274614Y0209140D01*
X0279253Y0209140D01*
X0281933Y0211821D01*
X0284614Y0209140D01*
X0289253Y0209140D01*
X0291933Y0211821D01*
X0294614Y0209140D01*
X0299253Y0209140D01*
X0302533Y0212421D01*
X0302533Y0213284D01*
X0315225Y0225976D01*
X0318336Y0225976D01*
X0320817Y0228456D01*
X0320817Y0228286D01*
X0320967Y0227727D01*
X0321256Y0227225D01*
X0321666Y0226815D01*
X0322168Y0226526D01*
X0322727Y0226376D01*
X0326017Y0226376D01*
X0329307Y0226376D01*
X0329866Y0226526D01*
X0330368Y0226815D01*
X0330777Y0227225D01*
X0331067Y0227727D01*
X0331217Y0228286D01*
X0331217Y0231576D01*
X0331217Y0234865D01*
X0331067Y0235425D01*
X0330777Y0235927D01*
X0330368Y0236336D01*
X0329866Y0236626D01*
X0329307Y0236776D01*
X0326017Y0236776D01*
X0326017Y0231576D01*
X0326017Y0231576D01*
X0331217Y0231576D01*
X0326017Y0231576D01*
X0326017Y0231576D01*
X0326017Y0236776D01*
X0322727Y0236776D01*
X0322168Y0236626D01*
X0321666Y0236336D01*
X0321256Y0235927D01*
X0320967Y0235425D01*
X0320817Y0234865D01*
X0320817Y0234695D01*
X0318336Y0237176D01*
X0313697Y0237176D01*
X0310417Y0233895D01*
X0310417Y0230784D01*
X0299613Y0219980D01*
X0299253Y0220340D01*
X0294614Y0220340D01*
X0291933Y0217660D01*
X0289253Y0220340D01*
X0284614Y0220340D01*
X0281933Y0217660D01*
X0279253Y0220340D01*
X0274614Y0220340D01*
X0271933Y0217660D01*
X0269253Y0220340D01*
X0264614Y0220340D01*
X0261933Y0217660D01*
X0259253Y0220340D01*
X0254614Y0220340D01*
X0252133Y0217860D01*
X0252133Y0218030D01*
X0251984Y0218589D01*
X0251694Y0219091D01*
X0251284Y0219501D01*
X0250783Y0219790D01*
X0250223Y0219940D01*
X0246934Y0219940D01*
X0246934Y0214740D01*
X0246933Y0214740D01*
X0246933Y0219940D01*
X0243644Y0219940D01*
X0243084Y0219790D01*
X0242583Y0219501D01*
X0242173Y0219091D01*
X0241883Y0218589D01*
X0241733Y0218030D01*
X0241733Y0214740D01*
X0241733Y0215531D02*
X0081285Y0215531D01*
X0081172Y0214707D02*
X0081172Y0214707D01*
X0081615Y0217929D02*
X0094259Y0217929D01*
X0093994Y0218194D02*
X0094631Y0217557D01*
X0095360Y0217027D01*
X0096163Y0216618D01*
X0097020Y0216340D01*
X0097910Y0216199D01*
X0098361Y0216199D01*
X0098811Y0216199D01*
X0099701Y0216340D01*
X0100558Y0216618D01*
X0101361Y0217027D01*
X0102090Y0217557D01*
X0102727Y0218194D01*
X0103257Y0218923D01*
X0103666Y0219726D01*
X0103945Y0220583D01*
X0104086Y0221473D01*
X0104086Y0225449D01*
X0104086Y0229424D01*
X0103945Y0230314D01*
X0103666Y0231171D01*
X0103257Y0231974D01*
X0102727Y0232703D01*
X0102090Y0233341D01*
X0101361Y0233870D01*
X0100558Y0234279D01*
X0099701Y0234558D01*
X0098811Y0234699D01*
X0098361Y0234699D01*
X0098361Y0225449D01*
X0104086Y0225449D01*
X0098361Y0225449D01*
X0098361Y0225449D01*
X0098361Y0225449D01*
X0098361Y0234699D01*
X0097910Y0234699D01*
X0097020Y0234558D01*
X0096163Y0234279D01*
X0095360Y0233870D01*
X0094631Y0233341D01*
X0093994Y0232703D01*
X0093464Y0231974D01*
X0093055Y0231171D01*
X0092777Y0230314D01*
X0092636Y0229424D01*
X0092636Y0225449D01*
X0098360Y0225449D01*
X0098360Y0225449D01*
X0092636Y0225449D01*
X0092636Y0221473D01*
X0092777Y0220583D01*
X0093055Y0219726D01*
X0093464Y0218923D01*
X0093994Y0218194D01*
X0092860Y0220328D02*
X0081909Y0220328D01*
X0081579Y0222726D02*
X0092636Y0222726D01*
X0092636Y0225125D02*
X0081249Y0225125D01*
X0081172Y0225688D02*
X0081172Y0225688D01*
X0080375Y0227524D02*
X0092636Y0227524D01*
X0092714Y0229922D02*
X0079333Y0229922D01*
X0077703Y0232321D02*
X0093716Y0232321D01*
X0098361Y0232321D02*
X0098361Y0232321D01*
X0098361Y0229922D02*
X0098361Y0229922D01*
X0098361Y0227524D02*
X0098361Y0227524D01*
X0098361Y0225449D02*
X0098361Y0216199D01*
X0098361Y0225449D01*
X0098361Y0225449D01*
X0098361Y0225125D02*
X0098361Y0225125D01*
X0098361Y0222726D02*
X0098361Y0222726D01*
X0098361Y0220328D02*
X0098361Y0220328D01*
X0098361Y0217929D02*
X0098361Y0217929D01*
X0102463Y0217929D02*
X0113378Y0217929D01*
X0112853Y0218454D02*
X0114576Y0216731D01*
X0116827Y0215799D01*
X0119264Y0215799D01*
X0121515Y0216731D01*
X0123238Y0218454D01*
X0124171Y0220705D01*
X0124171Y0230192D01*
X0123238Y0232443D01*
X0121515Y0234166D01*
X0119264Y0235099D01*
X0116827Y0235099D01*
X0114576Y0234166D01*
X0112853Y0232443D01*
X0111921Y0230192D01*
X0111921Y0220705D01*
X0112853Y0218454D01*
X0112077Y0220328D02*
X0103862Y0220328D01*
X0104086Y0222726D02*
X0111921Y0222726D01*
X0111921Y0225125D02*
X0104086Y0225125D01*
X0104086Y0227524D02*
X0111921Y0227524D01*
X0111921Y0229922D02*
X0104007Y0229922D01*
X0103006Y0232321D02*
X0112802Y0232321D01*
X0115910Y0234719D02*
X0075752Y0234719D01*
X0075466Y0235070D02*
X0075466Y0235070D01*
X0072566Y0237118D02*
X0125004Y0237118D01*
X0127402Y0234719D02*
X0120181Y0234719D01*
X0123289Y0232321D02*
X0129801Y0232321D01*
X0131606Y0229922D02*
X0124171Y0229922D01*
X0124171Y0227524D02*
X0131606Y0227524D01*
X0131606Y0225125D02*
X0124171Y0225125D01*
X0124171Y0222726D02*
X0131606Y0222726D01*
X0131762Y0220328D02*
X0124014Y0220328D01*
X0122713Y0217929D02*
X0133063Y0217929D01*
X0142398Y0217929D02*
X0152748Y0217929D01*
X0151447Y0220328D02*
X0143699Y0220328D01*
X0143856Y0222726D02*
X0151291Y0222726D01*
X0151291Y0225125D02*
X0143856Y0225125D01*
X0143856Y0227524D02*
X0151291Y0227524D01*
X0151291Y0229922D02*
X0143856Y0229922D01*
X0142974Y0232321D02*
X0149176Y0232321D01*
X0146777Y0234719D02*
X0139866Y0234719D01*
X0144379Y0237118D02*
X0134620Y0237118D01*
X0132222Y0239516D02*
X0141980Y0239516D01*
X0149198Y0241915D02*
X0189009Y0241915D01*
X0188829Y0241735D02*
X0188372Y0240632D01*
X0188372Y0219557D01*
X0188829Y0218454D01*
X0189673Y0217610D01*
X0190776Y0217154D01*
X0199843Y0217154D01*
X0200946Y0217610D01*
X0201790Y0218454D01*
X0202246Y0219557D01*
X0202246Y0219894D01*
X0216325Y0219894D01*
X0216325Y0219557D01*
X0216782Y0218454D01*
X0217626Y0217610D01*
X0218728Y0217154D01*
X0227796Y0217154D01*
X0228899Y0217610D01*
X0229742Y0218454D01*
X0230199Y0219557D01*
X0230199Y0220750D01*
X0230199Y0240632D01*
X0229742Y0241735D01*
X0228899Y0242579D01*
X0227796Y0243035D01*
X0218728Y0243035D01*
X0217626Y0242579D01*
X0216782Y0241735D01*
X0216325Y0240632D01*
X0216325Y0240294D01*
X0202246Y0240294D01*
X0202246Y0240632D01*
X0201790Y0241735D01*
X0200946Y0242579D01*
X0199843Y0243035D01*
X0190776Y0243035D01*
X0189673Y0242579D01*
X0188829Y0241735D01*
X0188372Y0239516D02*
X0151597Y0239516D01*
X0153995Y0237118D02*
X0188372Y0237118D01*
X0188372Y0234719D02*
X0159551Y0234719D01*
X0162659Y0232321D02*
X0188372Y0232321D01*
X0188372Y0229922D02*
X0163541Y0229922D01*
X0163541Y0227524D02*
X0188372Y0227524D01*
X0188372Y0225125D02*
X0163541Y0225125D01*
X0163541Y0222726D02*
X0188372Y0222726D01*
X0188372Y0220328D02*
X0163384Y0220328D01*
X0162083Y0217929D02*
X0189354Y0217929D01*
X0201265Y0217929D02*
X0217307Y0217929D01*
X0229218Y0217929D02*
X0241733Y0217929D01*
X0246933Y0217929D02*
X0246934Y0217929D01*
X0246933Y0215531D02*
X0246934Y0215531D01*
X0246933Y0213132D02*
X0246934Y0213132D01*
X0246933Y0210734D02*
X0246934Y0210734D01*
X0251893Y0210734D02*
X0253020Y0210734D01*
X0260847Y0210734D02*
X0263020Y0210734D01*
X0270847Y0210734D02*
X0273020Y0210734D01*
X0280847Y0210734D02*
X0283020Y0210734D01*
X0290847Y0210734D02*
X0293020Y0210734D01*
X0300847Y0210734D02*
X0328378Y0210734D01*
X0327522Y0213132D02*
X0302533Y0213132D01*
X0304780Y0215531D02*
X0327495Y0215531D01*
X0327495Y0217929D02*
X0307179Y0217929D01*
X0309577Y0220328D02*
X0327495Y0220328D01*
X0328040Y0222726D02*
X0311976Y0222726D01*
X0314374Y0225125D02*
X0330280Y0225125D01*
X0330950Y0227524D02*
X0337993Y0227524D01*
X0338223Y0228344D02*
X0338223Y0228344D01*
X0339182Y0229922D02*
X0331217Y0229922D01*
X0331217Y0232321D02*
X0340641Y0232321D01*
X0341102Y0233079D02*
X0341102Y0233079D01*
X0342858Y0234719D02*
X0331217Y0234719D01*
X0326017Y0234719D02*
X0326017Y0234719D01*
X0326017Y0232321D02*
X0326017Y0232321D01*
X0326017Y0231576D02*
X0326017Y0226376D01*
X0326017Y0231576D01*
X0326017Y0231576D01*
X0326017Y0229922D02*
X0326017Y0229922D01*
X0326017Y0227524D02*
X0326017Y0227524D01*
X0321084Y0227524D02*
X0319884Y0227524D01*
X0310417Y0232321D02*
X0230199Y0232321D01*
X0230199Y0234719D02*
X0311241Y0234719D01*
X0313639Y0237118D02*
X0230199Y0237118D01*
X0230199Y0239516D02*
X0350575Y0239516D01*
X0355500Y0240539D02*
X0355500Y0240539D01*
X0361029Y0240161D02*
X0361029Y0240161D01*
X0362844Y0239516D02*
X0397940Y0239516D01*
X0399855Y0237118D02*
X0367934Y0237118D01*
X0366251Y0238305D02*
X0366251Y0238305D01*
X0370779Y0235109D02*
X0370779Y0235109D01*
X0371096Y0234719D02*
X0401042Y0234719D01*
X0402074Y0232321D02*
X0373048Y0232321D01*
X0374277Y0230810D02*
X0374277Y0230810D01*
X0374662Y0229922D02*
X0402622Y0229922D01*
X0403045Y0227524D02*
X0375704Y0227524D01*
X0376485Y0225727D02*
X0376485Y0225727D01*
X0376567Y0225125D02*
X0403136Y0225125D01*
X0403136Y0222726D02*
X0376897Y0222726D01*
X0377227Y0220328D02*
X0403136Y0220328D01*
X0403136Y0217929D02*
X0376922Y0217929D01*
X0376592Y0215531D02*
X0403136Y0215531D01*
X0403136Y0213132D02*
X0375784Y0213132D01*
X0376485Y0214746D02*
X0376485Y0214746D01*
X0374742Y0210734D02*
X0403136Y0210734D01*
X0403136Y0208335D02*
X0373197Y0208335D01*
X0371246Y0205937D02*
X0403136Y0205937D01*
X0403136Y0203538D02*
X0368194Y0203538D01*
X0363360Y0201140D02*
X0399716Y0201140D01*
X0395060Y0193944D02*
X0370964Y0193944D01*
X0374470Y0191546D02*
X0395060Y0191546D01*
X0395060Y0189147D02*
X0375511Y0189147D01*
X0375510Y0186749D02*
X0395060Y0186749D01*
X0395060Y0184350D02*
X0374429Y0184350D01*
X0370865Y0181952D02*
X0395060Y0181952D01*
X0395060Y0174756D02*
X0336919Y0174756D01*
X0338544Y0172358D02*
X0358314Y0172358D01*
X0358606Y0172650D02*
X0357969Y0172013D01*
X0357439Y0171284D01*
X0357030Y0170481D01*
X0356752Y0169624D01*
X0356611Y0168734D01*
X0356611Y0168284D01*
X0365860Y0168284D01*
X0365861Y0168284D02*
X0365861Y0174008D01*
X0365861Y0168284D01*
X0365861Y0168284D01*
X0375111Y0168284D01*
X0375111Y0168734D01*
X0374970Y0169624D01*
X0374691Y0170481D01*
X0374282Y0171284D01*
X0373752Y0172013D01*
X0373115Y0172650D01*
X0372386Y0173180D01*
X0371583Y0173589D01*
X0370726Y0173867D01*
X0369836Y0174008D01*
X0365861Y0174008D01*
X0361885Y0174008D01*
X0360995Y0173867D01*
X0360138Y0173589D01*
X0359335Y0173180D01*
X0358606Y0172650D01*
X0356861Y0169959D02*
X0338895Y0169959D01*
X0338895Y0167561D02*
X0356654Y0167561D01*
X0356611Y0167833D02*
X0356752Y0166943D01*
X0357030Y0166086D01*
X0357439Y0165283D01*
X0357969Y0164554D01*
X0358606Y0163917D01*
X0359335Y0163387D01*
X0360138Y0162978D01*
X0360995Y0162699D01*
X0361885Y0162558D01*
X0365861Y0162558D01*
X0369836Y0162558D01*
X0370726Y0162699D01*
X0371583Y0162978D01*
X0372386Y0163387D01*
X0373115Y0163917D01*
X0373752Y0164554D01*
X0374282Y0165283D01*
X0374691Y0166086D01*
X0374970Y0166943D01*
X0375111Y0167833D01*
X0375111Y0168283D01*
X0365861Y0168283D01*
X0365861Y0168284D01*
X0365860Y0168284D02*
X0365860Y0168283D01*
X0356611Y0168283D01*
X0356611Y0167833D01*
X0357527Y0165162D02*
X0338895Y0165162D01*
X0338895Y0162764D02*
X0360797Y0162764D01*
X0365861Y0162764D02*
X0365861Y0162764D01*
X0365861Y0162558D02*
X0365861Y0168283D01*
X0365861Y0168283D01*
X0365861Y0162558D01*
X0365861Y0165162D02*
X0365861Y0165162D01*
X0365861Y0167561D02*
X0365861Y0167561D01*
X0365861Y0169959D02*
X0365861Y0169959D01*
X0365861Y0172358D02*
X0365861Y0172358D01*
X0373408Y0172358D02*
X0395060Y0172358D01*
X0395060Y0169959D02*
X0374861Y0169959D01*
X0375068Y0167561D02*
X0395060Y0167561D01*
X0395060Y0165162D02*
X0374194Y0165162D01*
X0370924Y0162764D02*
X0395060Y0162764D01*
X0395060Y0160365D02*
X0337968Y0160365D01*
X0334484Y0157967D02*
X0395965Y0157967D01*
X0397716Y0156177D02*
X0397716Y0156177D01*
X0399185Y0155568D02*
X0360496Y0155568D01*
X0361400Y0153170D02*
X0403185Y0153170D01*
X0403185Y0150771D02*
X0361400Y0150771D01*
X0361400Y0148373D02*
X0403185Y0148373D01*
X0403185Y0145974D02*
X0361400Y0145974D01*
X0360671Y0143576D02*
X0403185Y0143576D01*
X0397987Y0127716D02*
X0397987Y0127716D01*
X0365861Y0100402D02*
X0365861Y0100402D01*
X0365861Y0098004D02*
X0365861Y0098004D01*
X0365861Y0095646D02*
X0365861Y0089921D01*
X0365861Y0095646D01*
X0365861Y0095646D01*
X0365861Y0095605D02*
X0365861Y0095605D01*
X0365861Y0093207D02*
X0365861Y0093207D01*
X0365861Y0090808D02*
X0365861Y0090808D01*
X0359254Y0090808D02*
X0287933Y0090808D01*
X0310957Y0093207D02*
X0357153Y0093207D01*
X0356611Y0095605D02*
X0313355Y0095605D01*
X0315754Y0098004D02*
X0357112Y0098004D01*
X0359143Y0100402D02*
X0316460Y0100402D01*
X0355539Y0083118D02*
X0355539Y0083118D01*
X0361068Y0082739D02*
X0361068Y0082739D01*
X0199526Y0117192D02*
X0199321Y0117192D01*
X0189526Y0117192D02*
X0189321Y0117192D01*
X0179526Y0117192D02*
X0179321Y0117192D01*
X0169526Y0117192D02*
X0169321Y0117192D01*
X0171024Y0126786D02*
X0166205Y0126786D01*
X0085340Y0155568D02*
X0064192Y0155568D01*
X0062432Y0153170D02*
X0084435Y0153170D01*
X0054207Y0162764D02*
X0015435Y0162764D01*
X0015435Y0165162D02*
X0052776Y0165162D01*
X0052100Y0167561D02*
X0015435Y0167561D01*
X0015435Y0169959D02*
X0052373Y0169959D01*
X0053801Y0172358D02*
X0015435Y0172358D01*
X0015435Y0174756D02*
X0052944Y0174756D01*
X0052100Y0177155D02*
X0015435Y0177155D01*
X0015435Y0179553D02*
X0052205Y0179553D01*
X0053395Y0181952D02*
X0037212Y0181952D01*
X0040497Y0184350D02*
X0062121Y0184350D01*
X0063192Y0186749D02*
X0042001Y0186749D01*
X0042800Y0189147D02*
X0066664Y0189147D01*
X0054761Y0201022D02*
X0054761Y0201022D01*
X0054533Y0201140D02*
X0015435Y0201140D01*
X0015435Y0203538D02*
X0049904Y0203538D01*
X0049840Y0203571D02*
X0049840Y0203571D01*
X0047307Y0205937D02*
X0015435Y0205937D01*
X0015435Y0208335D02*
X0030350Y0208335D01*
X0029729Y0210734D02*
X0015435Y0210734D01*
X0015435Y0213132D02*
X0030341Y0213132D01*
X0034289Y0215531D02*
X0015435Y0215531D01*
X0015435Y0217929D02*
X0027777Y0217929D01*
X0025667Y0220328D02*
X0015435Y0220328D01*
X0015435Y0222726D02*
X0025354Y0222726D01*
X0026535Y0225125D02*
X0015435Y0225125D01*
X0015530Y0227524D02*
X0026535Y0227524D01*
X0026535Y0229922D02*
X0015963Y0229922D01*
X0016510Y0232321D02*
X0027954Y0232321D01*
X0030352Y0234719D02*
X0017554Y0234719D01*
X0018752Y0237118D02*
X0032751Y0237118D01*
X0035149Y0239516D02*
X0020664Y0239516D01*
X0023155Y0241915D02*
X0037548Y0241915D01*
X0039946Y0244313D02*
X0026774Y0244313D01*
X0035160Y0246712D02*
X0042345Y0246712D01*
X0034660Y0227524D02*
X0033335Y0227524D01*
X0033335Y0225125D02*
X0034660Y0225125D01*
X0034660Y0222726D02*
X0034517Y0222726D01*
X0034660Y0220328D02*
X0034204Y0220328D01*
X0034660Y0217929D02*
X0032094Y0217929D01*
X0041460Y0215531D02*
X0041946Y0215531D01*
X0042618Y0213132D02*
X0041177Y0213132D01*
X0039109Y0210734D02*
X0043735Y0210734D01*
X0045193Y0208335D02*
X0038271Y0208335D01*
X0045790Y0207354D02*
X0045790Y0207354D01*
X0028619Y0198741D02*
X0015435Y0198741D01*
X0015435Y0196343D02*
X0025902Y0196343D01*
X0024633Y0193944D02*
X0015435Y0193944D01*
X0015435Y0191546D02*
X0024000Y0191546D01*
X0024000Y0189147D02*
X0015435Y0189147D01*
X0015435Y0186749D02*
X0024799Y0186749D01*
X0026303Y0184350D02*
X0015435Y0184350D01*
X0015435Y0181952D02*
X0029588Y0181952D01*
X0142498Y0205937D02*
X0150608Y0205937D01*
X0148742Y0203538D02*
X0144666Y0203538D01*
X0144945Y0201140D02*
X0148479Y0201140D01*
X0201610Y0241915D02*
X0216962Y0241915D01*
X0229563Y0241915D02*
X0395458Y0241915D01*
X0391848Y0244313D02*
X0146800Y0244313D01*
X0144401Y0246712D02*
X0383475Y0246712D01*
X0345646Y0237118D02*
X0318395Y0237118D01*
X0320793Y0234719D02*
X0320817Y0234719D01*
X0309555Y0229922D02*
X0230199Y0229922D01*
X0230199Y0227524D02*
X0307156Y0227524D01*
X0304758Y0225125D02*
X0230199Y0225125D01*
X0230199Y0222726D02*
X0302359Y0222726D01*
X0299961Y0220328D02*
X0299265Y0220328D01*
X0294602Y0220328D02*
X0289265Y0220328D01*
X0291664Y0217929D02*
X0292203Y0217929D01*
X0284602Y0220328D02*
X0279265Y0220328D01*
X0281664Y0217929D02*
X0282203Y0217929D01*
X0274602Y0220328D02*
X0269265Y0220328D01*
X0271664Y0217929D02*
X0272203Y0217929D01*
X0264602Y0220328D02*
X0259265Y0220328D01*
X0261664Y0217929D02*
X0262203Y0217929D01*
X0254602Y0220328D02*
X0230199Y0220328D01*
X0252133Y0217929D02*
X0252203Y0217929D01*
X0299774Y0193944D02*
X0301507Y0193944D01*
X0332995Y0210734D02*
X0332995Y0210734D01*
X0332995Y0213132D02*
X0332995Y0213132D01*
X0332995Y0215531D02*
X0332995Y0215531D01*
X0332995Y0217929D02*
X0332995Y0217929D01*
X0332995Y0220328D02*
X0332995Y0220328D01*
X0332995Y0222726D02*
X0332995Y0222726D01*
X0332995Y0225125D02*
X0332995Y0225125D01*
X0335711Y0225125D02*
X0337321Y0225125D01*
X0337613Y0210734D02*
X0339071Y0210734D01*
X0350074Y0201061D02*
X0350074Y0201061D01*
X0355500Y0199933D02*
X0355500Y0199933D01*
X0361029Y0200311D02*
X0361029Y0200311D01*
X0053665Y0095605D02*
X0042197Y0095605D01*
X0040969Y0098004D02*
X0052316Y0098004D01*
D18*
X0090487Y0107688D03*
X0156810Y0131994D03*
X0161707Y0107786D03*
X0186353Y0089922D03*
X0206102Y0085626D03*
X0239611Y0067014D03*
X0266810Y0081994D03*
X0248656Y0110606D03*
X0235861Y0110178D03*
X0221983Y0138362D03*
X0230447Y0156276D03*
X0244251Y0159622D03*
X0227888Y0170154D03*
X0218031Y0179209D03*
X0153060Y0201994D03*
X0093735Y0198106D03*
X0034310Y0210744D03*
X0029935Y0221994D03*
X0108105Y0161098D03*
X0290560Y0170744D03*
X0301810Y0149494D03*
X0290560Y0133869D03*
X0320560Y0133869D03*
X0322435Y0192619D03*
X0304310Y0197619D03*
D19*
X0313060Y0185119D03*
X0254310Y0180119D03*
X0249037Y0166877D03*
X0241498Y0166057D03*
X0213373Y0162619D03*
X0206185Y0157619D03*
X0197435Y0165119D03*
X0205560Y0170432D03*
X0189935Y0155119D03*
X0180560Y0146994D03*
X0164935Y0141994D03*
X0137435Y0156994D03*
X0162435Y0173244D03*
X0140560Y0201994D03*
X0081136Y0146408D03*
X0203685Y0111994D03*
X0269310Y0129494D03*
X0276810Y0146994D03*
X0314310Y0120744D03*
X0318060Y0114494D03*
X0330560Y0114494D03*
X0320408Y0101945D03*
X0306727Y0102142D03*
X0293144Y0066118D03*
X0282435Y0065119D03*
X0264310Y0058869D03*
X0256810Y0065119D03*
X0273685Y0046369D03*
X0333302Y0066118D03*
D20*
X0308685Y0095744D02*
X0288060Y0095744D01*
X0282435Y0090119D01*
X0282435Y0065119D01*
X0264310Y0065119D02*
X0264310Y0058869D01*
X0263685Y0059494D01*
X0264310Y0065119D02*
X0258060Y0071369D01*
X0258060Y0104558D01*
X0274424Y0120921D01*
X0264424Y0120921D02*
X0264424Y0118982D01*
X0251810Y0106369D01*
X0251810Y0070119D01*
X0256810Y0065119D01*
X0308685Y0095744D02*
X0313060Y0100119D01*
X0313060Y0119494D01*
X0314310Y0120744D01*
X0318060Y0114494D02*
X0330560Y0114494D01*
X0276810Y0146994D02*
X0269310Y0139494D01*
X0269310Y0129494D01*
X0254310Y0140808D02*
X0254310Y0180119D01*
X0249389Y0187619D02*
X0249389Y0167228D01*
X0249037Y0166877D01*
X0239623Y0171682D02*
X0238685Y0170744D01*
X0244251Y0159622D02*
X0244251Y0140749D01*
X0224424Y0120921D01*
X0234424Y0120921D02*
X0254310Y0140808D01*
X0244424Y0120921D02*
X0244424Y0120857D01*
X0238060Y0114494D01*
X0206185Y0114494D01*
X0203685Y0111994D01*
X0184424Y0120921D02*
X0184424Y0132732D01*
X0189935Y0138244D01*
X0189935Y0155119D01*
X0180560Y0146994D02*
X0174424Y0140857D01*
X0174424Y0120921D01*
X0156810Y0131994D02*
X0153060Y0135744D01*
X0153060Y0201994D01*
X0140560Y0201994D02*
X0140560Y0160119D01*
X0137435Y0156994D01*
X0164935Y0141994D02*
X0164935Y0141369D01*
X0165560Y0140744D01*
X0197435Y0165119D02*
X0198685Y0165119D01*
X0206185Y0157619D01*
X0213373Y0162619D02*
X0205560Y0170432D01*
X0249389Y0194260D02*
X0249389Y0194572D01*
X0253685Y0198869D01*
X0303060Y0198869D01*
X0304310Y0197619D01*
X0313060Y0185119D02*
X0313685Y0185119D01*
X0314310Y0184494D01*
X0299969Y0215528D02*
X0316017Y0231576D01*
X0299969Y0215528D02*
X0299000Y0215528D01*
X0298213Y0214740D01*
X0296933Y0214740D01*
X0157416Y0225449D02*
X0156810Y0226054D01*
X0156810Y0229494D01*
X0141185Y0245119D01*
X0045560Y0245119D01*
X0029935Y0229494D01*
X0029935Y0221994D01*
X0038060Y0228869D02*
X0038060Y0214494D01*
X0034310Y0210744D01*
X0038060Y0228869D02*
X0050560Y0241369D01*
X0125560Y0241369D01*
X0137731Y0229199D01*
X0137731Y0225449D01*
X0118046Y0225449D02*
X0118046Y0219661D01*
D21*
X0162435Y0173244D02*
X0168685Y0174494D01*
X0249389Y0187619D02*
X0249389Y0194260D01*
M02*
